<mxfile host="app.diagrams.net" modified="2024-04-02T15:01:10.588Z" agent="Mozilla/5.0 (X11; Ubuntu; Linux x86_64; rv:124.0) Gecko/20100101 Firefox/124.0" etag="Eh1zs-vwzITc7EOGEwJh" version="24.0.7" type="device">
  <diagram name="Page-1" id="anG0mbtsETrlY876-u6R">
    <mxGraphModel dx="703" dy="499" grid="1" gridSize="10" guides="1" tooltips="1" connect="1" arrows="1" fold="1" page="1" pageScale="1" pageWidth="827" pageHeight="1169" math="0" shadow="0">
      <root>
        <mxCell id="0" />
        <mxCell id="1" parent="0" />
        <mxCell id="-pdbObQCnFsLMG_-y1Zl-4" value="" style="shape=image;verticalLabelPosition=bottom;labelBackgroundColor=default;verticalAlign=top;aspect=fixed;imageAspect=0;image=data:image/png,iVBORw0KGgoAAAANSUhEUgAAA3IAAAIcCAYAAACzXpx/AAAgAElEQVR4Xuy9DZhU1ZUuvAoGPo3xB8WBgRjwFxJRgoNXLiaENo4+OnE0oAyIgkgCF+Jf6Me/GR+1jRkc83Qb1MA1V8FmJDgQO+HTz1xNjB0duCQ4zYgwGkQCnwMfKGku6kACV873rv1zzj6nzqk6p6q6uope53lKq0/tn7XfvavY73nXXivn4SK5BAFBoCACDQ2X0vUzptKN06YJUoKAIOAgsHjpUvqnJcvo1VdfElxqAIFcLkeffvop9erVqwasERMKIdCIudqNAs94rwpQgoAgIAgQffAD6j1gFW0CFsNT0rOcEDlZOYJAcQSEyBXHSEr0TASEyNXWvAuRq635SLSmrY1yEyeSt/tKoj+/LYXRHbRpfQOdfd55lDvqRfIOHK3r5BooR83keefpvx/B33feQAcPPU19z1lB3oaTU7TdTUXY9mUbybv2wwwGNAGHFjp71D6nTgftGdhIm3f9isYCjeBqoj3n7KH+bz0Wab8BbXRE2og3YTdsHBH5aE85uG7GmIc585Vh5NmKdtCaXCNd6P2EPDopQ9U4fDPiuAX4fpwCX2Abtzr3ZF4TGYaXumgTbb21nQ7/XSedMeDN0JrKX3/4OHbMHUSDG2nTCymwcHpYA1zm4O83hcilni0pKAgURUCIXFGIpEAPRUCIXG1NvBC52pqPJGvWQI3Tm7WUapwlPVNHKKqy2mPSsp6uwmZ9FXfiPYEN+1m0E+UG0xC8345yS0DwZhC6wuf/g7w7vkW57+Nt2j6zQqlI5cNo//xUNVtQvpHeR/ktqcqrQqqPC1DnIV2Hies8t7rpX5VzrrFryVt9gF7H/XHu/c5/I6/f3sT+b0b5x6OfukQ6veW6pLKrD+x/OWtNegB17zt6G3n7f5+iLvphAD59mrxeQ1KUN0Wi+GbC8Ut0M/oM8OqDdfpShFwHpjBJHog/++EVmoHuJnLHAbuPU6wptXZeoaX4Dk73i9sxX6Txz7sfuhk/L1DlclDl0jpMiiKXfnlLyR6MgBC5Hjz5MvSCCAiRq60FIkSutuYjyZoHsMtjTak5FalqoIngRo3rQN72YoN4Iioq4jbb2Sxig+89Z4jd8+S1XEG5P+H/d+P/yohZ9Bj9iG7mt5aIQB2aPoxoKV1CM7w5tJhOoEPYXC9ct4j6nz+HrqPh6OfBeEUnr+43gk18DDnidkej6w1o8+p9C2jlcX0pG5FroN4YyGE1loDI/QbtjqF5GPsVuG/IyzaiIUMJVNaQRENGLv+U6MXeKGbIjSa9k1F3thp33xgCoYkccPQ+60xlA7U1TqUrWpYZ1fN9pX5BW6U9fW4g7yBv6zvoHdzrewuQf5ToFXs/ROQaQAKIpsWtAZQbqfAy6p1PWEdhru5VcxVcWn0L95+VyMXh20BDYV9qHOlZ5yHDA6jbjrrrgN3tINDt9Oi+l9S85117Yata03jYQB8p3DrVgwp0zuMewKrtiBDmB9+alLxOo9gNRhvft8qvnpeHvZ9GMAysugr1V9k5923D5+qLxN+z32Pe8N0hfAc78R3M+z6iDA1FcTxQ8Z4O1qWqO1TN+Rl2fAk/EAPR/sYRI6Amv5X0E+LfFyJXFCIpIAjgnwc5IyfLQBCIRUCIXG0tDCFytTUfSdYwkePr3jRETm3in8Qm8HRnUwiSQqeoveVreI1ThAQbab7xY3x2LX82md7E5poJQR6RW3Y5XDu1dVYRmYHN7fjcN7S6cBrub2WlxG5GnZG0wZ5I3V6ItnAF+lbqYJQQWVXHb1MrimtzF5WtyGkyaImWIS+0AkZM0jhMgdoX3YwrwnCGUce0Qqk35qxgDg1NmSZyk2nF/c+q+70/mkoT7lmmN+98gRTv+OPlIIREA8BUd7/BN5lYtvgkO7gPO4mJNRS5lkNGSczvU6t2eg4Ic0A8t4Mwtzv5/SgY/Pchcq0JaUL/ZSlyBs+0OMKGgLyQIeogOyDKIzGgDUlqYojIQTV2lUSFBfDsBJ4O5q3APHadxmGnCKZRQUN9YQ3EXIznrZZ03sEkEIU4mohStrXyrefIKt+Byu0TvEEgeD55NDieifX4EL6X/N2xazDWAiJF5AYQ9d9VPIyJELkEEOW2IOAiIERO1oMgEI+AELnaWhlC5GprPpKsyUTkeNPouPPpzeI8WkstUKOwsTwWm0a4gvFJHkXa+FxU7mpF5HxyxxvQ43Q5Ji4hJQvne3JncsVt1AolQSkNHjarZhPLBM9VgJLqahXCqmPOyKHeLfhoEd06ej82wI2apMDGZthYtmtlDEkkKHFrQXLHhMiN3owPUQoT0bl4bTAmajfVeJe3ONdKX9mzm3ooPte8zWrTfKU8jVPkF66tjoKjN/6YD6Na6a4NzqFF0mSULJxv9D4harvRbPyfoCtzs0GUtSIUugr1XxaRI7NOXJKYjKOPC4rwcnpXGRmzHqJfiixEzmDuE6bIOv0VHkRsB5EPY4cODQnbAQytClv4l8KcMVSFQLY74aLsq4bOQwDVdPCwI6wQ84fWxXeUIvdpLyFyaZGScoJASgSEyKUESor1OASEyNXWlAuRq635SLImC5HTZ4mcDby/OeQdM57yb8ZTfmxUtbJm3A4tcbAqXYTIaSUrckExaT3ARA7nybwDiUQuqa6HurFEzqoabneVInLcpsHjxLF/SZ1r/hU3tJvp6yCN6jzc83ix56VSQb5F04HVUig0j9Eh5Wpa6MxgrGulIR6W4L6L/kF7ncshclbNiiVy3Hk0GIlVFSNzA9uvzH0rlsgV7L9MIscuoplwhHo8EmcW2YX2JnoHamYcWY2MLQORs5hrIhdep6wKH47j48DuJmD3OM5v9qI76HDRc4bOHPjqsrkXq8gFZx61XawQN+NMYzvdx0Mt4UylELn6+B0XK+sIASFydTRZYmpVERAiV1W4i3YmRK4oRDVRIAuRU0QltBl0NprGRSsgV2ZzW4TIaXe84GxZIzbALWirFRveYkQuqa6HunFELuT+6G/aK6nIzcLGeYrjQvkErYbycqHdsCss+tBO7xBdhHG+EwpSYYkGIgySifzprJDiRO4bWnlThBpunNblzipysUROb/x121HFqgnnHNtB2PhsGRQ55VZ7GlxRn6SH4Yqar8g5bntx/ZdJ5DiCYmocW6D4GlvHkg32YR9AsIp4avx3rwCR02sncK0sROT4s04ocnHYjQV2luMFCnOcTR1wCW1En1ECar9zejxaecs/I6fPFNozcoWDvRT6IRIiVxM/02LEkYSAELkjaTZlLJVEQIhcJdEsvy0hcuVjWI0WMhG50Bk5ts663znn16xKFyUOVpHD2arLP12vg3240Sz9wWolL07piLpW+kFFInUDN7KI+5+rIPp1ViCMxyTtWnksFEWOEshqBwiY8oJLOjuo2nKiVjrn9XTT5sxZtE9D6vT4nMsoYjrARb56VJzIbTUb/8iq2Ya/h+JVgMiRtT2qECVETfTJeiiYjCUeCf0zket9Q4CpwSU1vplwvNoER7G26EAywXqJcQvlopFgJzeDSIUjhaYncouPA7GOizhpA+HknaeMRk1NVkT1gwrnKhC1cjmIY160Uyb7u5y1HtFx3aaFyFXjV1j66FEICJHrUdMtg82AgBC5DGBVoagQuSqAXIEuMhE5ELeVUGl+XiDSXkGTcEZt8dpWunHa55HXqoEunbiOXnoUag/c5nZi07wSUSpvHY0IlZmuuLr6nh8owm0PZHTxScYGvL9mZkIEQ7XhzhqeX+f82rUgctYNZ/9+/sYMumzytPDI0P+Cr0TGrMhECjfAWIx0vrAFq/Q5wK23NubbkglbLqzHdOd3XZx0tMwJzd+MtJal/xLwzYIj1hSPP2w3zGVCWNSl0Q6rnHWZjF1eOoZMNlnbsKaeTbmmEuZcpZGQYCeZvxFSQRAoCwEhcmXBJ5WPYASEyNXW5AqRq635SLImG5FDKxxC/WacvbnLDYNfH2PNZGUoVHymmmUVVucQMyfPLqvL7qncLfg2Qeltj0+zUA0UfNXWKoSa7HWPTQ309ZnL6YWnOINe8iWKXDUWhvTRoxAQItejplsGmwEBIXIZwKpCUSFyVQC5Al1kJnKqzwLnjCpgkzQhCByZCDTRpvUtdPYoztxYH5cQufqYJ7GyjhAQIldHkyWmVhUBIXJVhbtoZ0LkikJUEwVKI3I1YboYIQgIAl2MgBC5LgZYmu95CAiR63lzLiNOh4AQuXQ4VauUELlqIV1eP0LkysNPagsCRzICQuSO5NmVsXULAkLkugV26bQOEBAiV1uTJESutuYjyZr0RE4HOpkUOr/VQA0Nl9D3Xr0rIZG1SWYcPfPFwR38vFhpcdJBNw7/XSedMYBTjtsrwV0NgTE2fdwRcWNLCIARZwICs+SGNSPaYZAKYCvsPj0xF1cDzZ02hxYunUQqVH6hc24ljT8tTinLcQTSJUhYveHkcAW27ZyY+ymbLV6s3HnUAUhW3697+vhUE7gmtmOTey661lQEzCdpF32TBnLEx6e/FI9F8cFkL5GEe6GW4oLicPnYNY77KL/l2uj3RN9PDu4Tb4AQuexTLDUEgYIICJGTBSIIxCMgRK62VoYQudqajyRr0hM5Ew7dzQcWCtd+RkwXTp3eHHr+YRCj801qgWi49QJ4JYTBD9IMmLoFwrCPbUP+roluH9G8aZH+Tbh7m/LgdfytknqHQu47dQwWfjLoAnnTdOqBDOPviqUUTZ9g+tC5+dxgHBXsvBLz6OeFC+zKT0vh2GzTFvjRGW1Y/3W0ms7XuelUAnknlUSWIZsk84WSuYea8/MqcjqEYlcTcvy1h9MHFFrjwEbnj7OX/r7lp+mw94v1TyRErjhGUkIQyISAELlMcEnhHoSAELnammwhcrU1H0nWVIrIHURuq2v32RD1NiLeFJ2kehvRTUNJb0ixEW098UsgMg/TM3QHXUdIN+A9SB6dlAiYzq2GSJkeImX65BHFVTItnRNMk6P8xMiqf5TZgWRqbuJxdZ/zxdFs1CU6w4ukDHCI3Awkdw6TuA7aDVVoBJrYM99E8EwiclD2pg8jWkqX0AxvDi2mE4ytceOPaRdpEDjU/xUty6hvjFJ2CHaOhh0bgOPV+xbQyuP6Et9biFQO/c+fE8G3gZZhrNfBls30MrKH5ZOXeCLXQe9gvJ0WI1aVBmwkb/QImjg1mLa2N1oxF0gtkXBVYh69Y0G6kJ9tdXS+gFPsPCIqpE5srom7TqCt8x4yTmrNHn+pInLv0W/odCRsp2Xrybv2w5hRNNBDwG/+cf3po22/JK/fbfQ62lZrI06p9efeaTMLkbPE15DQYmvcwxrnZa2w2YsHFyfqNb4WORHH2ITvJnKmKvMIysSpss7IhcjVx++4WFlHCAiRq6PJElOrioAQuarCXbQzIXJFIaqJApmJHM2iFff/SNn+pftJpxLGRvMmELnHrcpkNqA7PaJBhshdOZSwmcYFN7fWqSN0MuzTiHptJTpsNtZJgDC58HPCGQUEDEwTOUXGYIXaIGODDj3CTeTtb35VQuhX8Wqid7H5ZruVktOGxM2s1EXzaRki14SP7lNjNP3grU3mfS7eb1BGI/l35wy1cQ4pcj+DCmlUwH4otdf0OR7EMG78hdpV3UTJglWbgGM/4Mjt8wZ9C5JA2/b1fSYu23215kyUe1c16CRyN+DHE7mIGqv6BTFqaaGR8ywGuoF8ghXMakXmEcQ7lAzbEHk/qXlcXjQb9h84EfCgJ0D+Z/0eCdQbdCJ4QnJsY6aPTV47Dfn4rT2XXhuzIYHIBQm9gzZtovmUiieI4Nf/0aYIsAnX9cOHuDW+FvfH+Mnkbf/bMMtD8a2YRefSj2hDnxvIO2hS0at5HIW10RJMUuSdELlEaOQDQaA0BITIlYab1DryERAiV1tzLESutuYjyZrsRC6mpWJEjt0Me7NrpVZFAnIFOmWIWUH3ONWlOW+n3gfEySdghtRofhcQFK3AWDfKDnoAypIiZv69BGQsSfI/XgvbD+Avs0FWZOBX6OxGvanuxNsIkVuLMft94zxTjnf0IB6t2Fgr9dALxn/5p0Qv9sbHCe26RNI3CRv9BR/p5N+EcSkygrN5rbmr89rnU4Uj8bI4a8JWJpHDXKrLd18MyG7y6i9zHqlFjfMHUBwvh+KoHiQUcGP17fDn0yi7+CBK5LR7ZIwLsTPGq1nB++NCWjpglcb4WJAqKIT5rpVO0nRWMEF46ccgjdcyaUxJ5KzxmOfeUHUPm/n1ML9xa7wZ2DRa5RoPLIbigcV2WoFak3RLlshmcCMVIpe8kuUTQaAkBITIlQSbVOoBCAiRq61JFiJXW/ORZE1mIseb0SlbdHPOGbmCilwskTNnxFIRuUDdYEVPu72Ze7GKXB9srF9WJmrSyJv3ZvylKZxf90zYsNmMJQqQT05+Qt5x2Dhjs65I1ha4r30/H804Itfc+wZsrCMXzmS14kyWf0bOjN8ncpHitt1YomvVSbeOT+QM8TRlNJELcNHkK61rZYIix0TOql181mw/5xcsdFViHt1E9B1wm2yE0pvmvGFkvcDMMJGzWBQmcuHR4YHCsVBiE4hcbzBORb7sVQKRexfzpMgqFDXPm6JbUnOXv8bX0hX5itzYtURrxqCSxShhfAnTJkSuyJKWjwWBrAgIkcuKmJTvKQgIkautmRYiV1vzkWRNpYhcM1wrlZuaB2JkSJDvWpmayLHfWxAlUtvsuJSxguVfgesYn5HTylv+GTkd/GEbNUMFC9QKUzcFkQsrWEQ+4bIqkBpr0K/rWrmj9w2hc3mNsKUF6mUrsEokcgntxhE5TUSiZwetIhcmcr7dhvi6Z8XctZHGtVL3yyon1DElA67D+0+cZjq6bB5fwzyOY0XWG4o+UsxjdL04LrKlEDnrOqoik7Jbpzmzl6fIWVdfnMXz7cwjckx8T03+obBEPRpgx3+Aot0s7RrXZ+QswQuIazPOyDWSWQ+huu73Kd4MIXL18TsuVtYRAkLk6miyxNSqIiBErqpwF+1MiFxRiGqiQKWInAdyEj67RJRP5HjI1rUwX5E7BmfHHs9zeXRUHBcxPsMU7bNQRL/jENiBVTX/MgqMH1Ai4hboBDvhACW8Gdcb5nn0GlzYVIALe7EatQOb6OgZuV5wJw2BovsMRa10FEk/qEpMu7GKXJ77J1dcAdfNSSCKYSLH9f2zeVEMnKFoIhe5oOrcBFVHBavxr3kIINOSX9Z3s41GBa3QPN6BeQwpouaMV9I8+vaWqcjBVTEvgiSvwTuw7pU9llyaDuPUUl7byjWUXSufNWsjIIN57rOx88suuZ9gDTXqc5Dq6oOziS8hBUhC1Mo8W0zUSuuOrFxK4y8hconQyAeCQGkICJErDTepdeQjIESutuZYiFxtzUeSNemJXIrx4CzQ4pOS8nrp/F9+0JK45pRaYM6OpehOF2mgnz87gy6bPC1cIzb3VgOtRPSSFd+x0TV1lQewob0vLkhGIRtw5q1t0VQa2DwzIYeerazHvRJnum4djQidxa7U7ZqGXMzT5AlLyklWzC4oo6nH0eXzGJ8PsKR5LDruSIG4NT64gS6duI5eetRVJSNrE/N66aNxZcpYg7FzCTV0cCNd83Z4jXOQH87DeOd33ftMbh132xgshMhlXSBSXhAogoAQOVkigkA8AkLkamtlCJGrrflIsqaiRK7MIe8GobrJT2FQZmOpq9tUCQNT15CChRGQecy6QrppDYKA5r5vz5zG2yxELutcSnlBQIicrAFBoCQEhMiVBFuXVRIi12XQVrThWiJyFR2YNCYICAJlIyBErmwIpQFBIIyAKHKyIgSBeASEyNXWyhAiV1vzkWSNELn6mCexUhDoDgSEyHUH6tLnEY2AELkjenplcGUgIESuDPC6oKoQuS4AtQua7FIihzM8x9/fny55fxmtPK5vYD0HWXATExcbF5f30w7EFOY8XUtWkLfh5GItVe/zWJsa6HsIfnIPUgR4dBJsaaCH8PfdflTCDnod5+nGYawrkDT955ywXAVa6eIr6dwcznVt+riDzh61L2wAym+5tpPOGMBJDZwrzRk9FN+K+bwgMqQ9iCvqtSAXXq3NY0HoG2jutDm0cKnJ05ZqmvRZtcN/F8WviTatb8nHOmkOku6nsiF9ISFy6bGSkoJAKgSEyKWCSQr1QASEyNXWpAuRq635SLKmS4mcH3XPDWDiRC/0CU1hrHSofJuQO6as6idjkuWunp7YPG127CZip420aJOD23D6a8+l4WM20DscKh+h43PkRhk07ytif0wkxkKRP5OiIlq7fZsK28hE7vQ8+5GcHDFB43LbVWSoqRqxkS0RjZLOKF7DhPIvnszeNOXPt206HD3S77DgHDwQiZ6ZnwuwuOHpSwiRS4+VlBQEUiEgRC4VTFKoByKQmci1tdE7Eyf2QKRKH3L/AUT9d3mpGhAilwqmbi9UHSJH5G923c2sInLbaTdUqBFAYs985ES7yyR83oxE3sOQ0BvKXeuhp4Nw+vY+XYI252jFyhK5QQjp7gdv6KB30O7DrGpt/oZuC2Haadl6nVAc7Sxe20rjp08HqXDuR2bkENoejXsbaDhdvW+BUhb53kJEoex//hy6DvfJe9BX2JZBYbsOtm2ml5HIOX+THeRgQzJtJ7y8yk+WQ2h97h8RNN9GaoXj8VX7B9zgsP9PtbbSetiqUgCYjX4+boik2TiVrmhZRoMYz3OKqJR+yH5NXHRahPxcfDqFAsLkqzxlhFD3sHUvbEW6BQ6ZvxZkc4xNG2EShKsyj6BMMYXNT7xuSesF9B79JjInHbQGc3klj8lXcvX89r0FqbIfJXrFVXj9NdJMB5FB7drYADod+evOnw8n+ba/Hox6yn9bXDMSuavQ/qq8vH9oz+KLfIiZ5gDEWs2Nyo03G3WJzmDc8xKBlP4zI0SudOykpiAQi4AQOVkYgkA8AmmJ3CL8y3cTmjiM17kCZiYE9qD0ToPbj8d9js7+9fuJ9bMQuT3nnEOvbtxIb2eyRgp/ARA0ZCDXcYhVi8gRJ0OessUk7jaWgMi15q5W+bD4u7hB3eZ8XDP8/Gv9cGevug+S99wVlDPPXux9RRCRf04pcgQiZxMi+4mP7UaZ6Ey8fZeb8pUubUdwP6LE2I39aUT9kKuc7WCCsgWES+Xw8u9DTfK2mzxzTnvE958Ow27a5HYeRjuraBY+/xGRnzRdt6U26NuIrhxKKINrId7PNe/hetkK18s83DqBG5MrF89CSc9BeL7+j8vphac4YqeTeB2kQPEDk1/Mkou1uK+SrqvE7EFC9iEgeNsxjnMxjg0uoVJjNXnewijov2x+M+Sp81YfCBFbd052gNRybrsBYNS73+CKbjJy9z4nR8caMbn7grVjFFDHBj2m8Lp7k2bQSFUmSuQ66CqQRp6HYJ2C2Hbq3IFpFTnO0een37Bj5+diPhkDrjaRuFInk+ZgFM2n9XS3+xDBEGh+CJBKTYybj5h7QuRSAiXFBIG0CAiRS4uUlOtpCKQhciPxLzyfouGn2sO9dMpST8MxzXhXAkc+FYKUXHRvAo5piNw7aOdraONTvC7Gi7eHcqVHYDOKcipfxq8Nr7ElrOlqELnXYNs4RQBAEHh3+jxeEKSw49Sb2CewKZ71K7y/Uf2py1s1y26in4dz5RWB8oMzQjne7ftKkZNkGURtB1SiwSbxMqtUE5q/ScTn1uahCpPKa09xNsqGlDCZ6jUkmAAQnQUfcf63/bAN57f4E598GkJjNuR8WoxJgN3U68TaMUQuSjBh602w9XGM7iaMjv/veWM0Tj65M8m11SbfITER3LxOmGlUMg/fpptR/nHKJzF5Kwzj7A3Fkh9u8fg8kOucY7t2bZ2HU2wt0LeYLLFq2gTi2g66sQLvzRkxEFsC4aUYJTJ/VVsiaNvjtcDjs+TFmZNTbjB50ebjDGE71oZDdnn+oWT5qqwi83btWBujGJi2o/hhPQYKl/trpHPobWO1a8tFdBXWnVLWOkEaMxA5jYFWFy9U7/HQwpJvS8AsBuqrEayf8BzolnyiWmHy5s6VELn8lSt3BIGyEBAiVxZ8UvkIRqAYkbsO/0LzP3yPlbDZPYJhK3loewaCFO8mpaLFkeJiRM6SQd4GXiNzUvI8cMXXsbbH4//8gGJORiyrQeQswdBkBwmIOw+pDfDlYKAv9s4feituKRc/pfzAJVKpJ8+DSFwBIhG5jsZG/gC7/DGROx/kpRE4PEy96A46zJ/tH0q9wQ4USbGXT+Tshj+ByFnVxK3rEzlzZi9E5JzkyrFn5Lgh54ygVQ8dF0utXIJkFiJyt7fAhTQft4DI6WAqaYjcu+hbo+yoUMqeYCwWf02kI4oc1DRaMwb1LVlKwDJkbgMULiZDEdfTEGZBO5t73xB5yOMQOaP0WiK3A0RusLN2YjGIm1fYx1+deCLXhKTx7XRfaAylEDln7v3gPfZcHrtHRhW5pDkwxN4n0ynIeom/MELkSgROqgkCSQgIkZO1IQjEI1CIyK3Bv84TUG1Xxk1uaqw/uIouffAeeulRPk0TXIrsYLfqLe6Vrim0s7zfz2gKjuzEXt8+iZb/4A/4fAmd/O8z6MMvpmu2q0oxGbsNje+IwbUgkcP5xBzOJ24s4p7ZVXYfie2ye+rJcE/9cMQI6v/WW6mHWBUi54036g2bBQLUCcVJKUd4WcLCSpjayOvzPgGRaDAui8/TDhCJwfYsFghRI+q2sBoB1zs/2IlDigK3S6tsmE1zSiKnz7MZxchX0qw7aJjI+aRUnVc6y7iQxihyGLJWV/iKtM231LlBKGJpFDmrIFrcOoGbwjUlkbOExo+aaZaNP1Y9F0Nhy3Zf+bTkIiAgzVAUG20wmlDdeI3dujXmuSTGEbltsGkoXtZF1LoeWvfTCJELudf6pDlBkYviZxVjM4f+l8gfk3Zb9NdFSJFjKfI8U6XDeW9bcVxXzQMK/UngosrKol4b+ecUw3MQeYT+4wUAACAASURBVABhVcnU3/r0BYXIpcdKSgoCqRAQIpcKJinUAxEoROR4s8oBtJu7iMjtRvt8ygS7SvK+Y8HP0RewAXqHXsST3stSzYhuB20keH1uxeenn4/Pf5yj3BcPkncwifGl6q4ihZiweRmJ3M3GxTXJLTOVYSC9i/8n03N9zWy/zifMm9avp1NHjaLPpGqoAoVAsNuOuoyeOHQb/RRkXve7H+HEf4dw4qMq0EG6Jvj850so+rMM67w6RA4OoJZg8eZ53w0+4XgNbnzj3OEZFc2ecwo+clwO/ZtmQ6vatlErIy57seoLFA24CQYueAkqkquU+X2uoFa4Ek63xMW0z6RkPM7qqbNzUfui02fbtSTE38zHKIS9gZWqHwQb4fevgd3k4bZDn9nKI3LHQuH7mO8b1cfaEzs+Vtw+gQra6IylD84GvoQgGhcZUmcbMFEX8zAOR2O0Z+10LVeRdIEBQSQotb5KF8xJMzDIU2K3oe5QvKJEzns2YiP3ka9YvY6xJ6+7URhvsxM0JN5mS9557o/B3D9ulECtAlrVzI4xYdz+gwgHiyKRQ8PfDbNm/MA1kTmOrr2MfwuRywiYFBcEiiEgRK4YQvJ5T0WgEJG7GP/ysVvMVzJscLPgyATsrOP600cfISKe9zldFfeOV/dexj2zmceGf/EFj9DRU6Y5qhs2/F8dRiNO3067lvR2iFw77l9P80b+1CcHPpH77RJafmiGamPL7r10Rm4Gtf3jZ2ni3qWO+reEFi/tTXeOnkYfvoMTVBMC0pNlbMXK8rnDf0ahqHtlIUUuqU6xvkKfo1/evP/1jVfSjSe8QM2I1LdGbdg+h01ojv4X5npRpgZLKbyfluWOQZTChxFVcAD1QlTBGSoAwdvYlMK+3Hz6T++uqhFKVuVGQJXLojx3KZFLCynOu7UtmkoDm2c6m2eoGoMbadML0Txm+rzSSkSNvHU0sM674khZA/382Rl02eRp+MI00KWProN6/kk663CubvFJrXTjtM+rM3bXzHwpnBMv2kpSTrZ0vcWU0uPVQTI2Ou+Rly8Wt/iOHgC5uC/rWarYseh5uebtKA46P9qd33Xv81w47qZlYMB9LlilzytuvbWRdi1IiM6I8365V4jeewci3gKiU6yayOfoolccfiaaqZrv0OWObz6igw7W5y7jLqXguSk30gzcWaNu8QxzUNIcFzFNiFyauZMygkAGBITIZQBLivYoBAoRuYoQhwJoKiXtqBeJ/riM/sV7Rh1kZ7fD/8T/Z+BwOxM5RcKw4X9u3puadCj1roUmYpPWhnDWS96ahLJ8sSLXgPvt1IZw7EvuvgL3nwAhmEW7rCK3AyRhJ5OWU+h0bFS24vTQi8s30k1TltDWvai/B5+fORwk5z768uIpiG6GKATee8qTrdIXk+QH0Gg00EYhIpek4mWyTRE5TdzUtRl/DzPECa6bmrjuB+H9DE25LYZAGxUtRH5VvRMRc2McCPFrqDs+INz4bD/aDKl8yoaw4hqoqmEix262//fDrSHlkIMdtDW+opS8qFtuJiycwlmxrQkiV+pgo/Vs5L5ayylXqfGV3A6iU8600SlLbiR7xcEgNH46iOzVS6uRr3yljSpZWn/5tXaDNN8Um/KgUj3EtdM1cyxErivnTNrukQgIkeuR0y6DToFAtxM5OgB3p6NpnCJoehN/EBSqryJy5+HvqfTfQPKUSjSYiRgIAF0OIqCJHl8ctAIUQqs5aM/zjlJkRKk+aPe9eca10iFyg3MX0N94a1W7VrF7bx2TRuuiieh5uQO0E2WOPCL3Ir27S582+mDgiSDQjNlh+h7wugeKnKdwhmpzzgO0YuIkmnT/ZBDt5XShUfOear2MPoCKdreptwj15iIHGPV5gbyT++o5Um6xPJ9TfZJul+MytAOHzgRX2IDI/aua1ydBtldTM8j2K2aN8NyNuvE2Q7aDdZBiuScW6dFEDsEfNq1vgTsrO1LL1XMR6FCq3fPXJ6m2PReZrCMXIpcVMSkvCBRBQIicLBFBIB6BWiBy3qCjtVJGHNocpEL9jQ36uyByZzpudko9eoJ2IZDAQJ+wGSKG2u+h9ukgFOPHB2Pd+MOX6Ddn5xM5l2BYIvcMiBwTP31er52m4Anxs0xsumDxdK8idxowOkON6mD7y3Ct5FDkQ0Dkcg6Rs2RsP3A4xuCwBPR4hlLXDqGsJtvDSBE5H7cWlG+kE9hFM6r+GRz5flA+Cq6jyDkK4evoQ5H13/EamEz9Ny1XQWsQ4N6ofXvp8OHjqVevlAFyIt32bCLXBQtcmhQEejACQuR68OTL0LsGASFyXYOrtFr/CHQ/kWNlRm/+X+XEtb/A3yBeisghsa5PChhqRQxwfxAInq/6EJQ3o/CEFDkETMH9P4BQ/EWMa2UckQsrcjkochccoYqc41oJTXJibi61IVDAgyd+ySFyVunaH1Lqjv+kP/3ZiCF0+5p/hSKniZyv5JmvgyLGyDW1cPZQmssuqyeEvye+guoy5Ecwt/OYUCLwhDkj97E5Q3neeefR50E4cZJRqXhbb83R9Y8iejtCvXOqao5axxH91l4/h1betbCkqKRC5Or/t0xGIAjUCgJC5GplJsSOIwYBIXJHzFTKQCqMQG0QOauq6TNtn1GufZpIaOVnOE0Y/Q61vTEcSszb2KjbYBmXIMjDy8QJnveoTX47SEUD3QNVju+vcc/ZcdRKx7Uyjsh5v22gi3HGbv3Yv1Qod67BaT0VgKPyV/cqci6Rsy6kt9ODiIQYuFZGidxPaCE+94mZP0f5RI4UKWOS9biezyh86nPjrmk+0+SOXTyhxoLI7fTupkGOW6Y+K4k5fBd1/cijmmxbF9lyZqnqRE5FPnwS4z09MJvv+XmyyhlNN9aNHUMDvpcIpIEohYvJsHou1+cGRJANx6ssz/LkQC/sMnjaAk4D715Rl9IGWtkULrHzr4u5GTaZZNtcbzhdvW+BCerSQHOnzaGFS03Sb9ssn387aQV5G04ub6ixtU3SbJNGIV0H5WJmekFwkU3jowF24izQa+Ge6DpH/ePvR5Crff9d5fIrfiXg61cs9nnxHsopIUSuHPSkriAQg4AQOVkWgkA8At1J5NLPyX64zR0V4za3F651/WKiGybdL9KjyUf3t70Po6+vgVAMDs7npTc2VcnuJXKuiVbVOjlyRi5fkXtPkalLQKpfptVoYrch1rdBQVUE0G92EQjxXHqlQEoIHdykD5049lwaDnVvjQlM8xkTtdLzxsA1E5sxbPYnjHyadr3BCtwTIHiz6cscqAb3xx562ifrqUAvUKjaRM7PiYbE0N7qA8oyPxdWKF9WuSOrbn09BpMrztlUY7qJQvnH8Lcz9vKtjAbrMKH/2y5C7kWnddtnNIUAh66HIq1TFriXTc8QZ6FN0I1YP/AmeAtr9F0uBjXau0anNIjP+bZEKc9pLhVRUaWWiIkemdeAwcDiXLSDCmDW7zYkUG/HIxvnKkgkbZ/hXIE2R56fFiGt7Ul9mRx21Q7YYs0WIld0AqWAIJANASFy2fCS0j0HgfogclWajy1IffCX/WnqldfQm/+0CCTBBk6pfP/dRuTKHopLkveitX4xLaY9X7gfaSD+RIMGxJFx3ezhw4fpjzj3xqoev/fPwMVFwyxjbN1G5NhmsxkNETmEc58+jOBO2ozgP410LUfze+pSyv0JybDv+iwqNdEabKBPBXv+BdjHNLghq4vDyLeZMiABI3FrA9rgwEEEhfoduDD3vYVoFlxTX0lUxLSycyVq7PHLFKhrbUXZVpBrP1ecPx8Oweht8ru55MQfKx4qLEMqkms/VONYvLaVxiOozunsQmvvJ82xn/D6aZSwZGEbctcNhT0mpL0hbzuB2SDF2NiVV7vl+mXibO71tFLdHs2LqGj6cfLM6bbWIXn7+YrILUF7tzOOiLCrVDgoT8EcRgYTnS8uO4/LjAIhvDdQM1W1uDnKSOQqgZmfTJ2Tfi+jocBpu4qKe31hzHgIPuF0CKWT3y68dvWYd2NdqpQ1y/YQ8tyb7852dX8E44yIxer7YYhcL8z1ZU7k0UMYs/ouHXcpPYQ1cDc3a+cG66atcSpdgejIg9w5S1pzBe4LkSsBNKkiCBRCQIicrA9BIB4BIXL5uLjkoavWTf0SuSKIQNWcPmAVCIjrvtlVKFau3e4hcvPoJiTYtkmQAyI3m4+DqotpMtNllZxZBQOKJPDGRrUXyh4+E59v3mJICTaz2OWqJpBBA3k2cHG9Z/12B/B5VChIRCjrMTEMrp3Y7A7Gn0EZTtKMRODGpnBd9JNna7RNvVEP6mkCpa9gE38m/lKKFhOjHDAwJYL7TBZ0kJ68KxSy37QJ9Y3WcHRW05/Z3CvpmBu3BCxEaHTLmpBZZRGEGOU35CljDgEBiV19cFqQz8/2hbbOxWsDN8pz9K47h84orELoztcgzNdOLoPovN7fh1wOC85RWkWuIphtN/M/i96kH6kHB0qRnDW0IGZ6XRt8XXWUidy1jBGu0NqdjVyAel2GLjwEaYXLNzvo+jiDPnudMxSRtsnHSeUC/Ja2FX1ciT5WherA5k6TGD46Z/heZb2EyGVFTMoLAkUQECInS0QQiEeAidxMPPVOut7GB9Gk1YJl+QgwkUP+3cyX10XJ2TMbUqBCEEmykq12bVtM5LJefJzqXquEZazsk7YWEBZWXUAS1h4YCrdEkBhEZc3RBSA7D+GDpkDliCVyT9AOkJ7B5JAtbOSH9L4ByghUIA8JvNtu1O6FlsBYYqM20DGug9jg68TV8835L3aDsxt2Q4psXQLZ8G3toKugjKzKI4dRFz47NgZNqyAqSbRVoJzNPAc88sleGoLik4JRcMNdr5U3Q3L9dp7HPaXmGGJo6ui+cN0Be78f4xYZO8cgfOhjqfsZu2kS3DRBJCxZvBl9PJ5Hxm0lO8fR+XqCrsTcrrLz5fZRaI7S4OS2VQZmrG7+A8af2bXSzAFjrkkza5fICLr2XBoyZkPy2nUUO/WNtWtakcdfgaBjrfPtTrw1rq2/yn0D7eFzqLP82WrvV/hOXUTb8P+xWy6iq/CkQK3ZTjyUiJszT4hcxp+3nlecD3n/DMP+Zc8betkjvhgt8PO2a4psboTIlQ21NNADEejqhOA9EFJ/yEesIlenk9o9ilzY5Y+J4X0gcjtA5AZbd0DciycBjlvfHSB+IB4c9OcsRap+46tkoemwm97QZjifyL2LjfVZoYoOkYvUXQsip8inOdenN+Xxipw+/wS1Re3A4X7IJBNErjcrim5/PpGzhC+Ny2ATPQC3vvu4naOQOuPA0XhjCZJVAC1m+KiAIhdW4wosaHZjvdoNXNJkzovB7k7MgXNGrjCRixJd0yeI5pW5b8USuYJzlJrIVQAzUCRLjsbiXbybqothZA624bOheNm1CSJHIHJ5l6+iGvJtFE9fcYtUcIncYhA5ftjQSr8xa7M5WCt+PZfI/USpn/6cCZGr01/1Kpi955xz6GsbN9JG9eNNxKSEHwbIlR6B51D0XrzYN/rH4z5HZ//6/djKQuTSYyolBQGLQGWJXDtdestn6d5HRyMBdY1cJrjJFI73UeVLiFyVAS/SXbcSORCOq0BC2NULfmlGkesDovMy/rab/Ihrpe8maMr7giITpNtNe4YsKaXrNChUW7VCVZDImf6siuW7HRpFLlpXKXKBrUPR/vYkIhcNdsIqClJU5MgGvjB9l0LklJ0mwIkTsiRELEyZnd6h0Bm5cJCZJNLIrqCnhlfRcSj7MW45Z+S0+19WImfnPzxfq70n6WEoR/mKXJE5SkvkKoGZUo8BgVEzNd6sDrPkGYOZXc8gqWtBUvlBPLkPH0DkrgSRW2WJfnTthtYld4wXGxBaW/hOmLN7OtgJiJz9fnC5fTinqZQ3TQpbYDPSoDuKnBC52vp1rlVrcFA7N3EiLYR9c+rAVaZWYbR2rcS3lIP8fjhiBPV/6608c4XI1foMin21iEBFiZzKAcdX1wUQyYqhH9K+K/ILFDGmnojcpvXr6dRRo1TAkT0Dc/SL9z2acttJtPwHf6CSSfC3y6yfdbKLlO9eIgfj2rA5V9EVWd2aDdcvJkTuBSJ3LNQsJg7uZUiEf37IugtakuGXfRjt3uGfEfKmwF0s1rWyAxvbRmxsI9c2/D0UrzwSGJy7C2oUiVqJgtbeeEUFRABnBwOXTYdc9dbBUnw3SNOpVk8iF2/6HwJmaaNW9sNpRONmyO53rDDpy5Jp92wf3++AstOoVUD3iolaWViRQ+XY+TrfkAx8zu6abJ+6iswRkxUXp6jraEUx+1L+WlVr0p7zjGJmFTmQqDtwZg1KslZnERzGPmSYHV3nvHbP9+cmhDXOyL2GM3Lj3Jt8lnGHGzV0q3H5jTwwiExbcJ5OiFx0ScvfMQjwP+K88O4VElex9bEImLJC98sYTIXIVQxmaagHIVA5IrcfoeSPobn85GquyRWncFxCyw/NoL86JUdTJ62jn0KtUznH8KDr8FVX0dsNQ2jE6dvJW9xLo477NOFEHIMYZ+4toZ8/+zpd/jLycdkyXA4koe2oy2jiXqSQjty/tPdLdEPzaEVALJHbOO4Umjfyp0H/po3FFzxCd46e5iSYXoLzPK/QE4duo5dgazlXPRG5pfht/V/4XeXf2Bw9TD8+eDt9tW+ORm7yMibfRv1cKzZl07CRRw64mGTh5WBaTt1qE7mCtrLLHg5QvvcOjnctIMLXQ5/x4QAhW3CmbNFUGtg80yEalhhF3SSbkDy9ne78Lp9365sBHp1bbMEqzqG2H2000q4FLrGJNpWUiyxtlw34Hs+gyyZPU+O79NF1+H6x22XcxUTAKoBp29c45I/B6bdYU0yGktIAwOaVyzAHRXPOFeskbr6cM4Sh6lnmqAqY4cze4vmtdOO0zwdWFsKsGBRQqePXbsKcJXwvdDcRxdPcC9qfj9/1wfqcZoUuCXZSISBrthlsMnov7KRPq0ji+CnqyXjcENrUIAPTpq8Oow2/fD/lU1WUX/87OhtPZuOvYp93/YwMxubgzQFE/XeFH7ELket67KWHIw+BihG5zdjAD9PnaCbiH/c2u4FXxAChyc55iJa8NQlH3XWS6G24fx2S69L879P8u69AiGjOaTZMk0HkMaM+LyCRcF86HRvcrQg3vQRlZiglYxae2nKbk+mp1svoAwRxudsogJq0PUkr7v8mTbofbe99m97rx/cmo5+pph+crfEuQyhrznH2ML24/G16cMoSpCHgZOM6+fSoG2+jLy+eYmxK+i0svhZql8jFkFVFoCcg8AU/gHwSRG4mTdl7Fe3/85+ZHH5xhLodm/Ol9P8dHE9HT5mm/o3Ryd0nI6n7cvqw/1W0GvW1m21c/SVINzBdkfk8kl0c3swlaorIOZEc7UCS82E5qpAK+JAm31hmeGqnQijSYrXMasLZr/YgxUO1uq1UPz0as+AMZjVzygmRq9TirdF2+B9DPtQcpxx1lcnL1MboNCS3fY8W2U4ewYZH5SjhTUqanvmpzmBstJ5JOOPCT1vn0396d8Uk6E3TfvllrsM4OfdNNPiJELnysZUWeh4ClSJymkRpl0r3vSZdNvE0aaJwvkfPrOPfK/u7ZHOS/YQWwoVmbgvufydQ0/Rvl1H8FEFcgr9mqN8gTRy4/fPQ1dTgt8u49V0AVel0vx/9+8WJqAfn7sJ5IriHcdPqdxIkUUUXNCTki9wjlfU7V5tELo6sDjOJwq0Lk1bkFHaYK+/HOvfeR3cvcUj3WhD2udSG/EwrJk6i2+6/gP4GeD5qiBzNWEbvLemt6/8W7cQQcr1OQNrn30yrQdQvJE2yu+qqLSLHo+xQStjz17MqhgcPhS6cI1rznUKKWVehJu0KArWOgP4enbbARCStkrlC5KoEdHd184A5dVlNt0omcnM5ieKwD/EPpx45/0N5Af6/x9/IJLspsYvRZdOm44BweDMUdj1yiZxW+/hJajWDG7Drz79jTI9FmKkQue5a7dJvPSNQGSLXQhfjHMkrCERw3HHHU9+P9uA3RytvFyoiF5yZs66Oz+DudYawMX78vZ6LMyIPnvglugffbSZYlvTZ3zP/7x0gFp/0pz8bMYRuX/OvWjn7HYicUgSh2DlX+Iyc/v3a6d1NXwax+N9j/5LO7XuSKt3+h28ime812BDk6HokUl7DCYqR8crzhpQ8vTVJ5JRyGiWr+w2RA+7OfCnsQMTeA+kOyPB+BLT5d+V2GiTvXgJSd6NWYfeg/TP1PCTVV6orymq11K6Nrn9IWHtEruSlJRUFAUGgmxEQItfNE1CJ7vkfsX794OMXcw3CRmYK7lebyF2nzqfYp9+c3LOD5tMybHS021AxN6Vfw01pqdmAnZHgemSfaC+C+9RcPI113aWqEalObfgSJnD8+Evo1VdfqsT0ShuCQI9AoCJEbjA24TtdEmWIARO1eUzkAqVFeQ7g/jO4HyhyiAKXO0CXQuk/HWGkLZHTap5NOt2uXTZB9haC7DER8E7AFKm+tSLHbpGsCrFHgnKdRD/voZ84RW4K2jqBz4TxLG9BG188SN6/99X/P8gkTitXtr1SFkPJRO45nASGm2NXXflk9eSCRE6pp0pZcy1qp5XA8Jt4eHjeeefR/9v+Mm1NIHKvoT6rsFFCHiaIQuTC891Ba/Bw5EIEeuAw6emupHNsSYpFE45StOAoxb5w8ziLtOnjjvz7eUY0YN3gnJ+KGshfxjq6OFLiEjetgLEda/pkZxiH8bDnytX31PD4ks+Txc9h3JxnULRUUBWcV/ZOD1Die8s2Isn3h3W0ACKmljAGIXL1O92+5UzkevfuTRs78OMZuZ7DP2x8VZ3IYZMzGZsctUFRG5z36T0kGOWNzHv4+rlPVdVTUZSfgPJt5gk4mae1q/E09Zrc3fmuR4i0ZYmc2lT1sZue6k2oJXJM2kLbCmwk5lw/hxYuZTYrlyAgCKRBgMkGR2T7Sjrf69gm9bmqsPu2PoMGgkVQypS61YDADS9D6dKkTruCD6cTxx5DvaCq7VGBHhxCoXpqQSLeRjxcusTU1aTOuuRNGP0yrUap3W8Mx5mst+nDs5n4DacJo9+htjcmw818Od2u3PesbQFZ6KNcAG1ZfZ7OO8E87OpzA4099DRsDVxC02AZLZNEklkZ+vTTT6lXLxPgxanIdZhcji1jPgraakmrQ1ZDBDpRkbPKGbvfz6CDCEDe1yfojttrjCLngcjlEXJfkcufGxUMp8LXpq+eQpe89h+0IwOugWdNZVy2HsC/mfclBdPIGy/jjJtpw8znnbkzYfrbLsoQ0fFLyKvlJn7OD/UfNjOrjRWe1HKaU4TETVquG9Nh6mMuGym0nD4rXPd12BqK5DgWruKrV+OsXyO+nfaKzGF03H4kVVNetXEg0VKdxoF/oIJy4dQOFR5klZrTY4hGYi3cuRC5Kk1OV3ZjiZwX8w9DkvtfV9pjn3TbJ9Cv4WdqnPNEWv0dfSqKpyiDps50njrzRmcqCNyyBNejScEZOeRnmvjXq7Bh4k3aIpybm1nWeZK02PA/rvz8sFlcK9NCJuUEgUQEkr5PFYPMJwaHcebsM/5vhP298r6zF/f7FfntiCvj3uOQ3f2Myfvh8ndULEnKH9N+2rL7T3TGAFvXlEDgj/1QxMolFNqVr9OxTbdfiMg1os5ulHkmA+HINlfxZPV76FcpoTFEzvttA9TQdmqHOjEcpNsGhmEPj8/jgdqJn7xMr73BLvxMxodqzw885HvvEILVqH9zChHy6hC5m81xh6hLfiHsyiJy2BiOROMbqFmpxaRyZXFvo2iGd29E4dHqG5/93oOHCN5B3oZnJElqgx4Nvb4NCZKHYlMfTkq+E37LKteciZLp52Ez+cJ0WP4HaCjmfLsKG3873Jzb6dF90ciYBWzEeEdivBswntUHp6nom5yO4I+3IL4gXJeX+uNkOzqgoDeqXLF7ENjIu+uzavxPw8bnTeDYzs9eQqe+OidPGTuENrnIBjyUuXrfAhW5k+8tXLeI+p8/RwdU8h40qmYDHiAR7l2CxOovm8TqD4WWgCZyQfLzvLQEMeMK9Ydx7Tz4NLWin7vR9wxvvrG5gR5S93DBk8nbwLqfjlZ5Rcsy6ot7byMY1Bd8BbYBhIwKBF8x2IdSRWCo+LnR+dOi6QGGOknZAwKbn4PPpH1IUCx9IsfjMLaGiByisU4fhvnFuj8IJK/lNfPUpZT7k53XJqz1djoVa/AX7vg4imubKRP97mB9vIP10RdrZxbWziuhteNOX9z3qEBdayvaa8WDu+lC5LL9U3IklC5E5N7BPxp/i0G+2WX/GOcj6G+M/prPQLBadbI6+P8X9ok0fkiLuimpQ/+TiRW5x5CkMs/1CFHkWJFb7V1ATbcc64fnViqZc96lK+c3SUGQM3Jdibq0faQisAbf3WswuCxKRSYsFDHID7YUELlMrdVNYVYpGdddMf8GFCJyPECOzPsD/D8a0Kmigy+JrOYT6uCc3H6kmfiMiY68F+/7xURKTkPaKzpK1RgTMg4+ljWKdMlETpEqXAjWSlv5DVIGDEIutp38HlFQvb8PuUvafGsDwEh2gxCTSrbMRyPYaOQL65XinGYoaqHZ5EM1oTWsn5i0Bn6CcdxSidp4s3+Wyd0FEgjaFpBBq07pnHcjUX5DnpqYQOTuwH2VO0w/XuHHLEwe/6vNm+fjogmFJhNE5+K1QdVagvszoMYzIQjacJNyq2IOzv2AM/fDJHQL9i5KkUI/+j4T3O0gpjpv35l4vasasMRX28pXmMjB2woEQs0lz8NdyG8XGZfbXzB/um9/7pEf7Sq0w8nggzFiTjp1HjR1HfUitf7xctgNMuOByCYohoGlkSibqjxSNtChUA6+EFHzMbNEzsxf3vpA/jck8s5hrfI6dC9N2ubRTfCWeNwkBQ+InM0r58wZu8bDK4yjDPM68okx1kMvAHvYJP/WdmLs+5VAZAAAIABJREFUdEX+d8cL8hgGGBucHOMKfo9QLlwX/ZgUgnaN4rGBxj7lJYpcSqBquVghIsc/HTl8Q725+Jb+8A9VGUawMWrHP1xw4TBnS4LD/vFPRXXEtj5wcTqX/s/G7fTRRxerIAX/JcH1KHRGDk+22L2p7Y0nUGdWQqTLCg7fJFn3Ys6QCJGrIM7SVI9CgCPB8mnfqMpdGRD2h5S4oE1XRatMTzXTCn6nek+cSJtg0PASiBw/CDwbdfks8GNdfF6uZjDrEkP2UiP+HeatKLvgZnVXLY3INRklC6qLhzxpbTdq10aQpitzs7GZjyZPxmcgYde8zWrXfKV8jTPEIxORs/hZcoNN+E5vvVbezGbZ30Q/j3tXsE3YsNMZPiHycDTTJtYOyA6TSi4cd8UTuTB5CEjlEJDK7b7qYe5zVCO2UaVV+BXeAy82zbPurBGy4ZoBRWXBRzoPnk+4oBK1IvKtr0IaUvkm6rFCasPT601/EpGLjlVjEDsuYNv67ikRAmZIi6+S3gI1spG2sdK55SK6CuCuYtLQCTLhq2eWUGsy+jDI6Cqlhibl2rM2NmC/RzphOWM4G+TQGZclXv4chgiiwTa6PizBj5lyn7SpCL8oAHK/9sBQkDujAPruqvZ7kETknqAd+D4Mjjy0GNL7BqyR6HfHrBH73VFjiOZTLPI9itYlkEPf1g5DtIXIdcnPcC03WpjI6ShsScmru3dc8U9FgyerrnUJrkd+kaQnr10zwquAKZ8+jDt7KESuazCXVnsCAnuhAp1I52OoT44YQf3feqsnDLpLxshK3Hi0fBteScS4mCJnDWOCjRzExCfp2O1MrvQIbETRw3hNxeuZGPfWNC2VRuQs8Yj0ANJ0JVSOOCL3Ljam2MY7l1aQshG5Jmzo2/WGHuqOd+BovLGbaUseI+Qpqsh5TysXUOUSCbfAm+gdqC6um2EUtXgidxXGs0o9SN6CCnaTvA704vwg6TncCnuzIuMrV+G2NZFrMCraw2iLf50il6P8+Z/4RM6cdwoROSfJeMEzcs6Y7Rkyn4hHxwUiB8XJd8tT7Rry6xO5U4O58Q0NiFyQ+8zgGSXaSYvVH7/jrmuVOe9lVctXuqzSFBp30vowBD+m35AbpXlowGr3fVgnO+CaO9hZLzfj88cTFTlgfAfIIBTOzah/liJVv/FVslDXluyH3EjziVzB71Gk7loQOUU+kfc0FqcUPxCiyKUAqdaLFCNybD+7AXIcn1dkc1TedCIn1MVIsM5YJrmrCpErD2KpLQjwxpU3gkwcGgSOTAjwbxO7hbGy2Y5XnBJnG0xL5HwD8Pv3Dn7/5EqPwPAKeMOURuSa8HS/PVBT1Nm406CyPGlUlqgiF1FF/M1/RiJnNvCrvZfUeTR75Z+B6gOl7lDojFxYZdG2jiUESXHO0RFxEvJTIxMQT+R0exFXurXn0pAxG0DkzObZJ0ho0nUhVePgMssReKUdRCBGeTFWaDdIo6L4bqNWkQsTucs/JXqxNyoa8qptLOZayR2ZMYIIrL32lPxx4X4r7hckcp2YS6W8aYLk220UOTeJdXAGzR13AeyjCq+Pg1bItDups+YiBDZufXiGBMZ928KBTexa55JWkbNk2T7QiChyEfuseyOZs5hx352d3la9XgsSuSLfo2hdpcgFtmqcRJFL/wt7hJRMQ+R4qDbKIv8Dz97q6T1wjxCgyhgGOxXAy18d/udYlHMKnDkUIlcG0FJVEHARAHFYI8Qh05rgfdrwlMpPZiKXyRIpXCkESiNy6P04bCo/dq3QipIfERHRor1+7FrMVwfuN+ZHStyGj4bixWezTsDZLG6PSQjc0cKuh7oVrX5ELnaZewjnk9i101422qDvgmk+UDZ9yT9Hpu9GyFieW2ic+tiHLv/0kCZN/sXt7DIup+59Teryoi/yWTy46wV01NSJntGLjkEVWwGFbFJArIxqxWRpPFKbBNEcuWxS1Mq4YCcghi1jTMAaOwaNjyZDhjjGKnKGlEemx5JLl8j55/6i7o6+wmkaiVMjDTGxZw51yRKjVhpsAxdX3VpehEo/6qU+S2nPIQZDxRo8Fmsw9H3Ap4ZQ23Ntvptv7HfnDv1QoSCRK/I9yqsbnLsLbJWolZEleuT/mZbIWST2nHMOvbqRHT7kyoJAQ0o1U4hcFlSlrCAgCHQXAkLkugv5bP2WTORUN01ILt9Od37XjfSooxROaP5mxBCd/23BKn3ea+utjbRrAUeOzKMyqMfkyXERTDUkbUt+m3E5yHROsbDd6IQ39qlTJ7BR0XYCN773bhma3z5y17UtmkoDm2cmjDthoFA8F5/USjdO+7xyC71mZjSyZqQeyiz4CuOMaJYlXQn4FG3LXQ/zsQ4Gx6wDgzP+l0fuMmGPBjKNM259lLDOOPLkK8gr+A6OZS4gOsVVAxPmVxO5qOoa990pCrBac+m/R3qNcvlNL6TJmZjfv7hWppmTGi+TlcjV+HDq3jwhcnU/hTIAQaBHICBErj6muTwi10VjDEWn7KI+8pqNREgsqdvoeaySGjmyK/kKo6sMVQL7EmAraZ3lK7QhQhoyowPnBhuDIC2z2H20vi4hcvU1X7HWCpGrrUkUIldb8yHWCAKCQDwCQuTqY2XUJJGrD+jirQQ5WLMjSWms54FVyHaoVps+Lk0dqpAFFWhGK5bPX59C9YRquOY79bsehMhVYLl0dxNC5Lp7BsL9C5GrrfkQawQBQUCIXD2vASFy9Tx7Yrsg0LUICJHrWnyr0roQuarAnLoTIXKpoZKCgoAg0I0IiCLXjeBn6DqWyPE5oGHNCOzAiXBq4dLniQ7/XSedMYCzpdmriTatb6GzR+2LGIlzQd/+HvLbcnIk50qrjsSNn93wOm3Kg2KYdNAauNRdiDQBHp3kFG6gudPm0MKlk4o1UODzpLbLaJKjji5BXrMNJ8c00oFALY3I++euhwZaibNhgzlnXOwZR24mo51JNrAr5rKN5F3LMXOjF84CvgFV7PU5tGl8BVS+pDN3SesG6uKaM+IwaKI95+xBipvHik8K1tr0YTopPPW5gbyD4VA1xRvo2hJC5LoW36q0LkSuKjCn7kSIXGqopKAgIAh0IwJC5LoR/AxdxxI5c46JkzYnb9QzdFJO0byojSbfWvS+TfzNfZmogG7usnCkwYScbdZO03Z+pMX8UP7xQ2uggSA6u20UQVvIhKVPPlOVBqiEttNUTSqTkG9OF3fOhPkY21x9ybnYuF4sBhlt0NEpbV67SGUzT/1we2/BXIDFwGlARFQKR0RVY/1WJEKlu25sWoJ822yUyqLfHycq51iYuEaZGYnAWcz0Lv5ciFwXA1yN5oXIVQPl9H0IkUuPlZQUBASB7kNAiFz3YZ+l5yxE7hA2ztfusxETG+jrM5fTC08NRHdNUG3aodr0IVq2XqsnUBoWr22l8dOn0+l8v3Odn45gN9o567j+9MAr36VTlv9LfGRDNQibaDucLw07bJ2XTaUKeM6kNuDQ8J8EwSXwqU+Y3DDzdvOsQsNzWH2iaSoxt3MVI3K+iuKMl6uj3oW8Iec8QnPxUkRuBW2FojUK4/1o2R6iK6xdC/IxA/kJMCUK4R3bNicjDy4uP5pR4b72/XelBvK9hesWUf/z59B1SIA+w5tPi+kElGqgZRj7dXQJklW/bJJVP5S/dEKEGXMIjH1yh3F+DeN85RxHzUuw09q2IaLsxdpg8YVC1XzoaaSt0GQpbny8znJtyI1212Z6Bzj3vYXoG48i3yUnjP+Hy03i9yLqsk0HoBTU7cF6wvrw02C468Yk+dZgRYicg5clcmx33zxV0a5tN69bmPzmj3e7P8aZGy6hV1+9Ox4TWBX/HWughzCg+Vgfl7y/jFYe11eNIBZXsxKEyOV/JerujhC52poyIXK1NR9ijSAgCMQjIESuPlZGFiKn87iZjavasOoUATa/27kYMieMJ87jtgb5yAwEZ+L/7/J73ijnrlb3/bJ4X0i5YHXjHuRHU+TDbLiDxNdGEVK2OGqZk1eN64XzggXJr73/y+Sfi7pA2s04iMqKD/QgDtxPUIa4jyBfWjCuIPddaNb9RNrhtcAE8xjke+OceCHMLgRm3w/wuAp2rGKyimR7eUkaomqftfk0on5bWaHSc+PnW8P9Xrh/2IzBKpT+GGLyzTFBHwqCvh2JrHfQ+Qihb3PSxeXWg1pFyIUWXfZsJ5KJq/uwgWCDzt33rK92hWx47jd+TkCttPFlE27rNtzx6Zx0uj2beNtdWwPAbHe/wW1Ek9Q7hoIMfv0f7UOJDqznRszN88iadwXyItt8e866maIJdOj7oO7oMrZ/u64fgI330RLYONTp1LTHORR7DYmiplNhGMzseIMk9/zBLOD9o7wyKtG5qevisBMPP/6rSpWAtAl4qe/jE8BktllbUVyNRULk8qem7u4IkautKRMiV1vzIdYIAoJAPAJC5OpjZZRP5A7pDbR1u7NueoQNOd9Wapd1xcPbvKTHhYmcRrGD3sXm+iz1HupP5yTKcXb6UJ+2L9yPEDmdpNwqHylSBOS5c9q51ETOz5NnE0WDrNwEsvK4TZhtx7sWW+kxoLahRM2EZOKkk4lHMbsdmMUQuZtA5PLajhI5Vqbe4LNkL9EGYDWSTQZBbQVxnm7JiCHCVtC0iqV2BcxPHG5xVImtrQpllEw150wEOKS+wetK3FoVg8EQYLCd543VvDtuVGPEdDjq5Ank26DWjbXFzhUeDPwOJDdmfPrBgEPkjAp6FTBYZR466PlPcM90v6Y4C9d7HpNdjV0z2i60bsJErgnErh3zBNUSpJfhKexaab8TrAzrlR26YuazFybusK9EA/dCZSJrzs75u7twzjQ3g5YOWKXXxe+gOsbhas52CpGrj9/xglYKkautSRQiV1vzIdYIAoJAPAJC5OpjZZRN5I4Fkfs4xo0Rww825BEip8gANq+GAKTa8DKcnf9m3DMjZ7QsefSMa2BaRc4oK3kzVdC1cjv1xmZabfbthU3zEBC57b7qY+zbhgJDmRQY5dCckeNwLUy08lw/bwckPpFbT5qMbIOGNjS/7SiRc85b+Xb5RM6QGEPkdP9OwvUofqYBe9YrjA+7uYJUueTdjEuXs8qXwcCS2QjISTasBZELVDCCm6MhYbdD1WMC6F6+whslcluAnVEzvd8bVbIwkXsX5TWdgtLlTVHvEpXcOEUugfwnr+18hY/71OpdB3m3n5c3Xp/IWRUvds7RiJqb8HfsNdwaF4FPPRS5HQ9F4nAVIpeHVt3eECJXW1MnRK625kOsEQQEgXgEhMjVx8ooj8ixCoZ9I28czeZSb/6xsSa4ukVd8awscCY21ZvhnhYicuvRSDRKZodz/s1VLaCcMJky7Wj3QeesUYTI6X4McbGkww2OEp2qQkQOlCpw4ww2460gcr7yZZU6S2Ii4/UVuShmtwMzbKo1wfuGcRXcRq0gcnltR4hcSHX0z3NZRS5M5AJFUG/2NX5RRc66TwYuiXpuHffS0Lj64PTbIShYxhXRweBKKHKrWKliRY6jU847DarqVqOqRmxQipwlmdaGtWh7TKCOOeOLV+QyEjnbnv+gwCyIIusmpMghguXT8Fn87fVz6Iv/tIhu5ib8s4OIopq3thGpMoq7o/A2Yz35aqCxL0rk4ubcLxNZc/bhgSWWa9D3hUdvo+YDQ+NxFSJXHz/gaawUIpcGpeqVESJXPaylJ0FAECgdASFypWNXzZqFiFzYjrgzUHrD/To2haGn/f7Zm8iZKlYJcjqAhHux+6XeFNvzSPbTuLNY+IxJWO5b4XZcYhYlcnB1jI1a6Qe5iLi3FSJyt4PIRRUMmkfecy3+2S5/bO75MGfATNRm4IxcHmazcF4p75AZiNRzuD8xAlrSGblQsRUggZOCqI9mvLyZ35K7CPfdK0LkrMLknh/0STDqRe0EKfCeSbBzNtQ0qLbBxefFOkFkGmNsAJHLw8A5IxcZn4fx5btWJhC5Y40dVq2ybcWqafxg4IoCUSvjzsiZBiNKs1YHo2uby5oHEqExJURlVWVm4fUj/6GJf44uFpPweuEzcv8AXPlcpn85Z1bDpdkNVqeiENfKyPeuHv8UIldbsyZErrbmQ6wRBASBeASEyNXHysicEByKyuKTWunGaZ8PDxCKxM/fmEGXTZ5WYOA6t9i+5TNo8xn/hW5FJEVftVMkIW6zWwhH9PlssT5tfagigxvpmrdt1E19X7myFVLnYrt3+sW4F/xv5DIbPRwldb67XQuiaRsS7IzFrAnnxdrpVj86qDUgqW3HQMzNz//C4IG8d9Gx5g0lKW9a6qWLPH5f3UL7fr3USVORZKe+f+d3w/izQrfgKxa/wnPFZTONL2Yc2ec7ft2khogLqgcLBdY2xtX2H1NpYPPMcLqPNOONlFmwahGdj+9V7HeMbYn7/hboR4hcppmuzcJC5GprXoTI1dZ8iDWCgCAgRK6e10BmIlfmYPPUO3OmisOlD8xLoF1mZ0Wrh8P9Fy0uBeocge6Z72qv7aTvWCmTJ0SuFNRqrI4QudqaECFytTUfYo0gIAgIkavnNVBtIqewSqXe1TOqYrsg0M0IVOg7JkSum+exEt0LkasEipVrQ4hc5bCUlgQBQaDrEBDXyq7DtpItdwuRq+QApC1BQBDoMgSEyHUZtNVrWIhc9bBO05MQuTQoSRlBQBDobgSEyHX3DKTrX4hcOpyklCDQExEQIncEzLoQudqaRCFytTUfYo0gIAjEIyBErj5WRs0SOQ5TvwTR8zbo6HnpruSgIps+7qCzR+2LNINgHetbYu4T7RnYQP13cTLzpKuDtiJwy+nLOAn3h6ZQA30PkQH/DYFKHj/+UhoYDWefbhCllyoFs6SAJ7i/5Vokjx7AgevdC/d3O/cRVGUlB1M0V++PptKE5m8mjEHjc49/FrKBHsLfd/s4dSACaiONC2FaOhwVq8lRKPNs0mN5T6WKOMHpqoHmTptDC5dOKtK9Dv5y+O+iGCevSfo2Qpf+8DndLuZn5UfhLlZ85yX6LtbdcESBrdQlRK5SSHZjO0LkuhH8mK6FyNXWfIg1goAgEI+AELn6WBlVI3ImJQCnGkh1qRDunOh5dqrieQEexiJx9erVkRD3fWi191IQGTAhEbYf1t0mXk6ywA/Rr9MX2ATaHN6fEN6f83R5+3+fyv7YQl2KWRNSPrSHw9ErQvWlAiH3bR1OCn4AJjch6mc7ElhHLk4/MStu3DadRDivHfmh+c3nNgda6chVtKZODG7HbJs2tkbXiMmTt9p7MhyB0rXIpr3w7yWkHHAfBPipMn6CtXZSfsoP1db79BqdgrQWJmdfBVAQIlcBELu7CSFy3T0D4f6FyNXWfIg1goAgIESuntdA1xA5rbTMP64/fbTtlyAHt2Hj2a7zph31InkHjg5DthkJqYchQTISQdOy9VrhykTkgsTc3pQg0ThSlTlJp5G/TuUn4wTXQ3VCcWVFUiJsfGQ36YlKl01YjjaORf4zzpVmSMwh2H+tTSHgj+8SJPueE1FwDBR5ZRZ0LWY+MUBOPjrDJKdmQqrz/KnE0XsvCvC7A/f9/HlRUmPGoObMhNlPwEwnsUbePeRoc/Ogqf5AftUUIR3EQeQJHI23G2g4Xb1vAa08ri8xpgvXLaL+CK9/He6T96AiNUwol2F9XUeX0Hu3vExzvHX00qNIPh66dOqLK3FvT58byDvIWfQ66B3c63sLMrQ9SvSKfx8f2fnAvdZDTyPfXUoih9xwbY2FVEkinVfOJLDPy82nE7DrZOGM5Scgy40BWY6L7BrKe6gTyeuk8q5SWNqvlBC50nCrqVpC5GpqOkiIXG3Nh1gjCAgC8QiIIlcfK6PyRC5Ivn0mIHiXYVh7Lr02ZkMCkQuSfvvl/cThaRW5Jmx822maVfvUxhbJyumQIgZWBQw2x2fpyclT5KziFJd4eRTaaYmZVDdpeaCEaMIC5ek5JKE2ybz7ofZevPI22W1oI6aMnzQ8j/xWADMQla//43J64amBitC0gCw0gjisBZEbE1XITIoIHrxO3B5D5OwYLNFQ2MZg5iTLfhjEbZWb5Lr3DagzBPOGpOvc2WlE/bZqzEJJzP37KOudCmLUjnaI/PUTo+RatXQA2OHuN7hxJpNI4m6Sjwf3dSJwe9/OGVni5a+ABEXOELNCRIpt8fMEGtUVg9ZJ1m2ycoUTj+9p3aNfTitywdVAg1Fvp58gvoNGYi43RBPGl/hzJESuROBqqZoQuVqaDRIiV1vTIdYIAoJAAgJC5OpjaVScyJmN+tWsRv1xIS0dsEorC8dC0YFile9a6SgYyi0NuPEm9FoQoAyulRrtBqgXpNULVsZmDw1thrWLnFGDuEyUyPkq4LN6I1/MtVL12QFy06hdFB2XQkvk1sLVze8TIeFzzDYcYsR/hexyyxwL+7saMxC63lBDlToJEtacuxqEzqhFULqGgiRtZ0LqQenEFU/kLBFM4dIXVaBAXG7KzVbk8CYgpUji78bQgo84Sfh+zFGjUel+Qq2wTatUIOKG2Fz+KdGLvbXtTHA0ljEPAPwE6fON0skkCYTRV2nhCmrnnzD/vlLbAaLYGCho/te6dCKnm9AK4YXq/RLyOmcY9VMrpFat9L8vSUQuRrnWDyyCOfNNLuGNELkSQKu1KkLkamtGRJGrrfkQawQBQSAeASFy9bEyuorIhUePjeqx2KgmkJLAzdHUKoXI2Y0uVKAZ3r3arcwqc97LqmG9wbUkBTdCRM5V1hzriwUsMcS1CVWYQCoXQdAAS+SaQeQao0shcnZOl41cXObPkolcJTB7F/1qbXIWSM0U9U4TIUOWQIwV0XHOrMUSOZ+cRdWiuO+AizNUU54bg6EqzXO/HiTed+M0bYCoaSJn1EAz3xyKZSRePuGJITbcQjBWa5ND5Kx6ZequBZELMIhZN6qJcoicg4EfRMXcy6TIRVyKzdDiz/TFzUXxe0LkimNU8yWEyNXWFAmRq635EGsEAUEgHgEhcvWxMrqKyFlCswab4wtZgUpSl0IuZM7GNKTIceCMUw2g7nuLsd0Y6/NF/uUTDH32ayhIyXZXDQsRuSal1Cy/fg59/p8W0d2qkVkghZclnzWy7oQqsMoY074mQZbI7QCRG+yrgCBssKEFZ8CU6mIu7fZnlUKnzHHfiie/mTGLWYuW+EaJaoj8RsgFmokjctr+tG6wliyyTZFzYnwrqgo6JDGOyAWKnA44o3GP2hIhpD5+RpGLEDlPKXKGZIKw6XXjPABITeTgF0rnRcAP3FiVsuhf4TUcJtQoFKfIOW6q/PDAXqLI1cdvb9WsFCJXNahTdSRELhVMUkgQEAS6GQEhct08ASm7ZyLHQfmb00aTLNpuTDREJi53gJQolQXqHIKN+JevpLkNg9QQzi+pDblxczRBSrQrXMRtLLYNvRHXm1p7pYxaGVVbzIY57BZqN/iOq6a1A2pa84Gh+oycB3Up2GPDkGhwFbYtqgaaMv64ysDMEGj/7JWFwlXBfHyYhFrCa2+aiIrmz3wil+9+qYrGYmYasX3757js+M24Y21bQa00KU+R47No43PfcOaY+4gSOUueIot3G/7mpRglcv6ac8snBDsJNdmHLv/0kHL1ZLuOgV2Pu668qmyC8svfEQR4CS0Vl2THELl4Am3OzKVyC47gEfOnKHLFMar5EkLkamuKhMjV1nyINYKAIBCPgBC5+lgZa8Ay5sDUNytG5My4cd5t8UmtdOO0zwdA4JzSpRPjIgo6+d9wRuzSR+PKOCQga1j/pFxpqaeIN99WoUldySnYgdQEjbQSERdvHY1oi7FXQpkKYPYAiNF9ERWw8Cg6iAY30jVv45wjokWWdpWJmbt+8P6amUm2NICsE30ZkSefv34RjUFES9ctMrBdj2nBKn32buutjbRrgXaDTZoPLr/phbj8gykRUWqidVNNWQdE7+fPzqDLJk9LWyFcLmvKikK9fPADyuGMq+dxJJbiVw4F05Us3paUqCACQuQqCGYFmhIiVwEQpQlBQBDocgSEyHU5xJXpoK0NERMnkrcbgdn//LbKtNllrUSiU3ZZP5GGQaZy33cTf1er40r0g+iUM210ykq0l7KNqmEWowAn5rFLaXuFiu0Ggb7JpqCoUJvFmnkcfd6c9UFHQqPsFq0f8qSjZ0Lkis1ON30uRK6bgE/oVohcbc2HWCMICALxCAiRq5+V0QhV7j2Y+7NKq3L1A4FYWu8IgDhqtS1J8az3Aaa0vw3JEyecmLJwgWJQ43pDjduEIsOFyJWPZ3e2IESuO9HP71uIXG3Nh1gjCAgCQuSOhDUwGGTufCZzdaHMHQmIyxgEgdpE4B0oceNh2jV4PZaSxPFIRJGrzfkkIXK1NTFC5GprPsQaQUAQECJ3pKwBVuY45fW5eI3D6+QjZWAyDkFAECiKwGaUeBWvnXitYCKXgcQJkSsKb/cVECLXfdjH9SxErrbmQ6wRBASB8oncnnPOoVc3bqS3BcxMCHwBpRsGEPXfle4MS6rGcWZuDc7M/TJVYSkkCAgCRwoC/OCmAa+0rpTRcYsiV6MrQYhcbU2MELnamg+xRhAQBEoncu9AAfoaqn+K18V4uVmVBNfiCNgn6IxfG15jMz5BL96DlBAEBAFBIB0CQuTS4VT1UkLkqg55wQ6FyNXWfIg1goAgUBqRWwkSNwlVS3HhEczDCLwOLMfj1uN4zREyJ8tDEBAEugEBIXLdAHqaLoXIpUGpemWEyFUPa+lJEBAESkegYNRKE/J+47jP0dm/fr/0TqSmjwC7p54M99QPR4yg/m+9JcgIAoKAIFBVBITIVRXu9J0JkUuPVTVKCpGrBsrShyAgCJSLQCEidzMUJD6PcW/F1aP9tOmrw+jOM75P/483ibzFvcodRl3VXwRcX4LFP6s4rnUFgxgrCAgC3YCAELluAD1Nl0Lk0qBUvTJC5KqHtfQkCAgCpSNQiMiNBOFtCfRAAAAgAElEQVT4ZzRd6qH6eKta6OJcI71y1Iv0g9e304Hz59Dd9AT9pzeLPlP6MOqqJqtyI6DK7RIiV1fzJsYKAkcCAkLkanQWhcjV1sQIkaut+RBrBAFBIB6BQkSOP/MqTTYeyVFu3hNod5YxaD+9njuGxqEfHdOxHWrd9TRv5E/pp4+ODsjdt0+ixRc8QkdPmUbnd+6lMwb0Q+QQhA6ZMMG0s4SWH5pBU/roP/cMzNHUSevohubR5t5+fP4ZmnJb0I4tSx9cRYv/5wS6c/Q0+vCLFqcEOyq0kCqFLQeikUsQEAR6DgL9y3TLFiJXo2tFiFxtTYwQudqaD7FGEBAEaoTIUQ6KHNEr1Ew047aIW2UDTcy1U9v852nJ3VfQDKvUgazk6BJ6qnUqPTV9Oq2hybQaRPDV3EV0jyWAqswBEMTDtAzE8Dq0v+L+Rpp0/3CivW+TdzY+34n35zxAKyZOwv3J9C/ecrowr20QSi/BjgouonKIHAdN4STAu/HiXHJyCQKCQM9BgL/3/OJIwr+ceyLRD/+QafBC5DLBVb3CQuSqh3WanoTIpUFJyggCgkB3I1B1RU4NeAmtbLqRfnA/gZTx9SRcK2fSZ3wydhTu7deErPPfaMKJX6I2S9g2g5ANK0DkWo5Wip911dyNNgcywRuE+ztfBEm7TLU9BW0/6/2EFuauprl7Qd5O0HblbpxO3pLehhQ6drSgzHcqN1ulEjk+t7gSZug0BpwWWC5BQBDocQh88AP63oBVdA8GnjWisBC5Gl0tQuRqa2KEyNXWfIg1goAgEI9A9Ylc2AWSXSm/l2vAhsSj90CfTofyNn58YGv/VY205vh76W+8tbRI3QaRy02FIjczXpFThO00tHGG30j76hfIO7kv7neAyI1SRO57IHL3gMhNBpE7ASRRt62vrSBLUTs2/vAlx+2y/NVUCpHjVBAPous3hcCVPwHSgiBwBCDwOn47x2Ec3nPPOW7mhQcmRK5GJ16IXG1NjBC52poPsUYQEARqhMgp1c0qY9qmZbh3HYicxyRNuUeyEkbE5786vV9pwmZVM3XGLl+R0+QLdX8HIjfMOYM3GJE3f+HRh3/FrpX5RE4pclZtU21vgx1D8+z4A8jehRVcRKUQOa6zAzYMEiJXwZmQpgSB+kbgAZC51zCEX6Y8zyxErkbnW4hcbU2MELnamg+xRhAQBGqEyFmXSRoO1ezzdLD9ZbhXPgxXyNsR2MSqc5fQWOL7hniBjOV29qETx55L/2fjdvroo4vV+ba/MMrZhNEv06432E1Tk8A1uH8hlL0BuL/7DXMWTrURJXIgjyBvx9/fn/5sxBDqXLMB5+kOws0ywY4KLqKsRI5J7d+i//pX4xpoy+5OOmPgiSq1hXvtwZz18l6m2dPm0MKlnIa+2lcD/fzZGXTZ5Gnhjrc00KaPO+jsUfvC9x/BWK7FWAa86dxvoq23ttOuBb/CGk4TiKYDCnAjHkLwhUg9y9aTd+2HhQeOjXtu2Ubydo+g3JIV5G2IIlkKbh343jTShVCpvUeuNu1OorldORd2HMXG6w+ng2hwI216IToXwPDWRjptQZyrsVlvao6aaCfO4K6+P8Dn41Nb6cY/TKfcAOCZ2o5S8O3COt+eSLmFnakDUwmR68K5KKdpIXLloFf5ukLkKo+ptCgICAKVR6D6rpV2DPuxof8TDUL0yfy0A3tB96L3dfkzBkyAa+VgELlnjEK2F9Eo+/nRKgOETJRKE8WyGHL8b2ivXtF8dnF2FGsp3edZiRznnvt3NP1YXatxmiw8su8lWnn8pfE0h0OXgv/M8H5Ki0kdXKzKZV3U/M7GriVv9WpaCnun+zf7wKX3JRC0i2gobNzu338Ym+jziY4DwfrYNXcd7n9SwP6GoJ3TiM7cSvSuKr0E9YYm1msBAWqk96EcnwKoJqPs7ApgBNuZd376NHm9b9DttjwLhfo0jPnJdKSUiRkeyigsUlz+OLwtKUob+6Jz0XYR5SY61dW8HTA3muhmELfHCfc8vhdtQxfrhTV3uBvWXIpBpy7SG9h/mtK9UohcalirW1CIXHXxLtabELliCMnngoAgUAsIdB+RK3X0vBlziVyp7XRvvaxE7gGTZuDeeiZymzF3w5qxqT4vDP4duP99vgW31k64tSIQ3xL8dTtee84JFKdD2KyOxr0NUHOv3reAVh7Xl/jewnWLqD/yEV6H++Q9CIJzEko1wWW3HfcuofdueZnmeOvopUeTSJXZ4P8Y5GgKSIUiJGiqE29hC3lw1aXZmuiwjcr1lkBwoLrtBZEwZZpzs0Gwnsf4Puu3oco8gjIxytlO9DPYtmNprenbJ7JQ/UbOw5j73ECrD05ThCqWyAHb6cOIlrqq3uAGWrDKYnMJxjHLYKMJ9ZWML9r1DjJVjSFy3rPU1jiVJjR/M//LAjtHqrmw89kA0kQgTbgQoMjrtzdUJ27uMhE5hcsQYPt0YCvmohVzMR3RbT3vrGDe+Dviryk2wxI51yRL8jCf3u+h1PFcFCPe3fubUaj3gbB/4wCi/rt0EpdClxC5Ygh10+dC5LoJ+IRuhcjV1nyINYKAIBCPQP0ROTw9j1XP6muGeySR4834E9g4z/q9M1lWJTFKzl78zcQIF6dWgLMrpCoQrHdZfcIF5aoflCumCUyStuD8pFLM/Pu82T+VrgKJW8VV8dIqVyHlqgnKWztNsyRZkYY+ID2HNKEz95fiPpOGtSB1Yyx58FWegOCtuJ/oNbwet32q9kahnRZn3E1Q49qh6mFsSYqUQ0aQNdEf81qMOazIQTkzXpz+eEE+14JYjjE92voE18kdOBfKBHIAWPFuuCQTzVO25SlynWgXc5GnjhqyyZgT5kJj+ywwJ4U5sdun66bolHfnzh9HGkUOpDT3fduuWTNQ32gNj1CTMbJrx/sfmDsd7Ohm9B0ocg78yqYLUO8hfTP6t1O0Ht4KkauHWSpioxC52ppEIXK1NR9ijSAgCMQjwISi0FXxhOAyEXrfWEIi7ybUq19FrgOJ3xtpXEitaTKEy9lQ+5txVsHOMhtxkJ3fnUILPlpEt47eD/AaNakDKWkFKfEVGUN8Lv+U6MXe+nNW536DTfqYVC6IDfQAGr6P22bCOZuVN6sCkWlnHjSolkB5g/LnEzLl6uhehVwkLYE1JKQNf7sugui/Ff37Y7OEEaS2GaQ2SuR85QwKXg4KHkFdXHvtKRi3xdZiDSwHnULXvA331uPmY07aEfWQx7g9JZGz44VSym6jbTdqu1m1BHHMKVJ4RfhbDrUwbu6aMXdqHGmInG3RkkIQ453eehrEgDPR38zumQZTpaBCocMVT+RMudBDBX2v2i69lfo5FCJXKSS7sR0hct0IfkzXQuRqaz7EGkFAEMiOQFbVKHsPPbdGVmzr37WygxaBgM11iJx1LbSES60GQ+TshlpvxLFRvx0kSblfOpdP5IzrnCFyHNaC3f6skqbVliJnyXz1axQ28/fq83lWmUMAFr60Ivc8FLkr8hW5tdAPx7B+GFWHAlIRNr4DJLYRClbU7S9w87wSRGyVT3RseRA5EMYokesNEnLY7cAncsbt0Ld/LW2G9Zrm2CsLkYs/Z0asguW+FU/kQm6Opk/MXTYi1wSS3a5J9lGIenvgaLyxpNJg7hO5IopcrPpmSaAm//V2CZGrtxmLsVeIXG1NohC52poPsUYQEASyI5CVbGTvATU+uIpO3vOz1DnaNq1fj+iBnAsuzWUSfC/+IxJ9H0Xe4mgwkzRtdE2ZrNjWP5EjqD/IeWWJnFVWoq6WCUROkxdz/sxX7awiFyZygSKnSZQ+i2WJHLt1nhqZ1Ig6Zj8NqYOzobxxgBPrQgnXS0XwLAHAW3uGjt38rMLmqEN5K8li4KqU9p5PxKzdAcFrBsELETmCC2T0/JhfP3qujNNHIyKoVbH8s2fpFTnttmrOkykF0AREgctnnCKn8c+fu0xEzpBqHWwm0D2tu2twRs7Oi0Y7X5GzhDhyHs7MtTrTmCraaNf8LpTaqhC5UpGroXpC5GpoMvinveFSun7GVLpxWiSMcW2ZKdYIAoKAIJCIQFayURKUKq8cu1d9LkX1RXB/Wu1ErCxSRaUc4LZX0NdnDqIXnpqcoo/qFMmK7RERtVJtxlk9ucG4I8ZgHYla6StyeW6LXHcFgl1MgkoWJnKs5o3PfcOJNsll9Tku7dEaceeLU4z4jByImiYK9ioStdJ3+7Plzbk/c99XCP32OiJRMR08OPDKLqiQ7CbpX5rU5QU7uR3jiqqVcHFshQtoYDs3ou3XZ9Mi1zb8PRQvN2pl0hm5vOic4XH6qqTtIg8XPXfNmDtFSI/FODnap++e6aippg29DiIXk9GHUDcxamUckTOEmMfZa0jQYBrVNma51sotFbVyLg40/vAPRU2SYCdFIeqeAkLkugf3pF6FyNXWfIg1goAgkB2BrGQjew+oUYjIffskajvqMpq4d6lR0zSRu3rfNLrsZ7toZjvSiDsq256BOZo6aR3d0DxapyPwidznkLpgL1IXIORDWxvRhBMRje9Jp122fD9t+uowGnH6drT5Gv4aH5MWoaQRxlbKiu2RkUcOm+i+NkpiCVhC/Vl8EvJ+Tfs8Ed5fM5PPefWNaagBBInoy7cQPX/9IhqDiJZ+cBLesB8NMrnfDbhSxBb0teArfD4PUTH9S+c002fNXBsaVKTH5fdNc+4zeQgrReEede65O78bNx6dIy3+M7cVJwce8t5d+ug6euCx8/W4W2ZH7Ne2c0RLPnPI7afPe2f7jLO5A9EfG+lWTi8RnZcMc1cYq7i5ypq7L78NRY79s3YlrM3urCJ55LoT/cr1LUSuclhWoiUhcpVAUdoQBASB7kQgK9koydYkIqfuT6anWi+jD6ZPp7tVsu8ldHFuLr2CkPJPtU6lH+P+K3Ce87z9CDV/DELNN9OK+xtp0v3YcO99m7yzrSKHp/a5+Sh3F30P7d6DkOtPPdlAv0Z9UETcb6eJ2Mi1IdT9krcm0QweyPm4/9uSRpSqUinYcp0daH1QHacg2A2cB8aEp08FWupCNrS8U0G5cN4Qjk6Zur0yC4YiLpbZVobqOshLcEYuQ9XuK9odWBk32HzFtPtgyNLzA5jn11Dhl17x1APcrihyWdCtYlkhclUEO0VXQuRSgCRFBAFBoKYRKIVsZB5QoiK3BKrYDKWKHUKZvtQBwrUWhGsutWHDorYsm0HUhmGjOgjR8nY+Qf+JPFlcfjfKD2TiN+ho41oZEDl2UZzbgvrfQUGr2CGKX24nt6/P3i1DmetqkMithF0Pwr43vWb8N5KLLTPw3VUBalC1bDd51MJKWneNuxv6LahadoM9Ndslx4NVYVTq7loJEocTj+SldKvkAQqRq9FpFiJXWxMjRK625kOsEQQEgewIdCuRA8k6/pP+9GcjhtDta/4VipwmcoNzrfQ3+P8iNRwQudxUOkjLQPROo/Hjde4ovtpXv0DeyX3ziJxS5CwRtEROnb9ixe8oVfd1lBlXg0SObbsZtq3E//n1lTpW5rKvRqkhCAgCPgIf/IAeGLBK0c+FeM1JqcapX03klEmn3QneVUVAiFxV4S7amRC5ohBJAUFAEKhxBLqPyO1HqPpjaO5eKGeIAq+VM03klGulvf8I7s9DKPLfXa6VOShy6kL5k3/h0Yd/leBaGSVySpFDO95lqLwf7pfH0D01SuQs0bwGb3bjNQiv/jW+jsQ8QUAQqBwC/L3n19fw+mUGJc5aIESucnNR0ZaEyFUUzrIbEyJXNoTSgCAgCHQzAprIdcIKBAnpqku5VroXopS0HKT35uXodJyFmzD6ZVrNG5c3hiPIyQI6fPyl9MvjtFLXuQZ5u/YeVGRvDdq5EOUHoPzuNyYjsuVyutAPdhI5Ixclct6J5oyd7u+1N4j21DCRc9HiIChyCQKCQM9BoP8APLzZVbqmJkSuRteKELnamhghcrU1H2JNnSKAqIWvL+ykV+vU/O4y+2R03IDX8DIdaEaCJPxzBdopHYe90Mf6meiRe0OEkv/N69UrmhduPy0/9BkdsTLT1Y48c+MQrXKf6u+nfEbOnqPL1E66whxdcyQeqe8oc37S9SalBAFBQBAIEBAiV6OrQYhcbU2MELnamg+xps4QQIj4iydOVASOCcm4OjO/u839EAZwFDPoVZnPT7i283ksvh474gmHiVqJaJbzDz2N83hB4JSumEtO7r0ZDT9zxOPaFehJm4KAIFAOAkLkykGvC+sKketCcEtoWohcCaBJFUEACOw55xw6eeNG4jhi98pGt6w1wVh+DVieilZ+ViKWvUE6NqF+uepeWQOpWmVXAeyaTjd99RQa8dp/kPfcc8hnN6FrOpFWBQFBQBBIQECIXI0uDSFytTUxQuRqaz7EmvpBgN35/hvMzRKFq35G1z2WDgamP0DX15RA5lQER9TNGhmte0Za271y+gAOFb6ixLmo7dGJdYKAIFAPCAiRq9FZEiJXWxMjRK625kOsqQ8EmDSMh6mflkA4so6QlZHxi96nD7+YtWba8vtx7uoonLuKnuNKW79y5Tggxtll4GqVvY1og11dv1A503pES29jlOwmPAKvH4/7HJ396/d7xLhlkIKAIFB7CAiRq705URYJkautiREiV1vzIdbUBwKNIBzHw9Qud6lUYesZExtynt/vp6UIO386SOSFKj9ZKyI2TssMHJOmL6jw+C309ZmD6IWnJmduoysqqAiU5brz4ezi6zi7yIROrvQIMIH7SrnYp+9OSgoCgoAgkIiAELkaXRxC5GprYoTI1dZ8iDX1gQC7VXKi57FdrMhtRT+nH/UiDfpjE+1EbjIVyHkL7p1JtHXZRjo4dQQSTE+m/puWG8WunTZ99XqaN/Kn9NNHR5soikvwAG06vd0wxLm/hKbnbqSltA0kcAht2b2XzhhgQvcjAufiCx6ho6dMC6IqghjRhBOprfFJmrh3aZeqdxdjzA9UAdv6WGlipSAgCAgCPRMBIXI1Ou9C5GprYoTI1dZ8iDX1gUB1wt230JRcIz0LsviaOv8F9YyZHFS606HSuUSOZiwDufoaTcy1U9v852nJ3VfQDBPRcBeTQeQto/k30//P3vtASVFd+/67IbAEFQXhwgMRIihEQQLBBw8SZEyuLjREAsJlBMEBAzJKJMzDyHsuZYhZGFyMAZW5vCjjEHAIhFGu/vTClThq4IcBxytCIAhceD55TMSZq4lDAj+p33efU1VdXV39d/rPaWbXWi091afO2ee7a8b69D5n7504P1pF905pkAMknjxzG/UMLaMvrYdJt11OWxZ+QCsqNtAuldreLjyNTInPP1dEb82cCQC0bcmCuwTksiCqdCkKiAKiQIEpICBnqMME5MxyjICcWf4QawpDgZyAnCoSbS+pVO/XAMDmQKA6AF4RXQ6qq0R0LnSNfV4VrD6DNhehTbMuHA0Q0wWrnfO8FFND23sMhwrU9LmT1mIA3TS6z1qvoo3kjn8TVaKvUqdemVu8+sqsOEtALiuySqeigCggChSUAgJyhrpLQM4sxwjImeUPsaYwFMgFyG3gYs+Qo1OnrkqUL77oRNR0FHvagkFOLcNE5G3s2LCG+5/dRu9ez+edCFoikNOQ15G7OIy2AzQk/hx9PwJwVEs7BeQK4yYVK0UBUUAUKGAFBOQMdZ6AnFmOEZAzyx9iTWEokH2QC4GXRtAPsC9ORcdwaFDjyNruJCJyRJzM5DPA139R1yUGOcsaGe6XB1QRvnqMNwAgd7GAXGHcmmKlKCAKiAIXhAICcoa6UUDOLMcIyJnlD7GmMBTIOsi5EDU0LIjKYDkVYDUXYFVEj9j7274dAuS1O0vW2Z36PKJyo2g77VIQNtQGwGiQc/bDnbQecvfItcO47WkgTRx+iGr3DkQSlYNIomLvkSu0iBySthxa3VgYN5RYKQqIAhlRYKDFv/N24qaM9Cid5EsBAbl8KZ9gXAE5sxwjIGeWP8SawlAg6yCXUIZmqjnX0c4q2YT3ncMZJqkJO+Q62xkr43cUka3SbdqMLJcXUZs2+akr19I9ctMBoxswF7ae0+nLIQqIAq1HgX327/4z+HdelrMKtx5V8zNTAbn86J5wVAG5hBLltIGAXE7llsEuEAXyD3IXiJAB00gX5Jxi4qXo8+mGO4j+YcGFK5LMTBQQBWIqsAsrE+bh0254vSEwV7B3ioCcoa4TkDPLMQJyZvlDrCkMBQTksuendEGuFyJxv4RZk603s2ec9CwKiAIFo8AEAF1v/mJHYK5gfOY1VEDOULcJyJnlGAE5s/wh1hSGAgJy2fNTOiBXBohrgEnrBeKy5xjpWRQoNAX+/Etq230rHYDdAwXmCs17JCBnqMsE5MxyjICcWf4QawpDgUyC3OkeIep221co6O3dk9ZMB24aQPve+Niz9y0ZbaooNGumr69krvO2aUYfF7Wwj1THDLdPB+TYH5zdc1RBglw9HXi/iK4fOgxF2gnl2vUx+e55NH3dZCSuwUkqp80o9v669RKtpcvTF7clVyK6Edqwn6y7Po3o5RjO92v8d7I6N7Wk9zjX1qPkRRkdeLUeGn3uaVdPxx4so6tX+iOwRfT6xhIaN3VGdJ/3TyJ6dktydh4uoiEDiHjPFbW7B8mEZiZ3XUZbFVHpjHm0et2UFHothy51dP5/NFL/7h94rivHfVbh0xAfP1VEK79TSQ8OH+gbw9u+HllwywBDhRftno77czRmJvvlUriFDGkqIGeII/xmCMiZ5RgBObP8IdYUhgKZBDldL+5qFOI+6pYaIJWhkrVwsk0mqYuq8aazVaZ/VND3Z/ekV5+fmn4XLbgyHZALQUOrUPfFOYD074Mo9GSAcGuOkzWnL30DPHfIQl0/urYF6qZ/6buwcyTtxr11JgKmJuABfyt9jPNH0u885pWAR+ZY92hHO61tNKr2ZgqBydxjFOzaeYbegY1jvM3t8+pUJ/T1F/6V+i00vCK+rewTu8Uo/LvLaZ3MtXF7tudj/Qo29E+sVxPadyEqSRbgnTm6PS+HX25EKZHwfNRHCrwX0Hx8OcBJQdzDC+TqmhG4/gn1sdZ2D37+a2K7DWqxAXa/DnvWS0TOIK8kZ4qAXHI65byVgFzOJY//v5WiW+nukmk0a0bAt5dmmSrWiALGKJBpkCtF0e8vBnxK1h/0FLlm3Aj8e9oFuTpE6O6mhUNeopdWDQ9npPzzBFr7rxPpp8NnoEwALnBArvR7tHbEU9SheEY4ood0/LUXjaNJTevC0bbaWqKJXai27LmI8+FsljoyyOM+inH5m22iKmS1nEkHi/qo89twnqOK06bsibQtTW+lDXIFGC0gKqJJeM4u2/M7GvUQ4IRBzgMLGp70w/QhvG+0fkc3hm6m1XsqqeuNiNihVARZj7tg0oA21+JeWrrjZ9S75vc0ccW9Pi/U0y6AF1LB0Gk3yqSjLe1/TDRnFdEOb/QJUamZiEqtw7nqcy/QzKRBrghfBtTgy4AeavxzsOuuz7fR5k7tVQRoCL6k2Ic+d56dYUccY9wsCib6YP4voIEDdcepmvrCFi5WD6i1IYWf0xX0vQioLAZUuuffpKV4/5gzhKtvOeCkjlY5drkmhMexrP+wz5bb0MMgc2PsuUVMo54aoCtnTj297BWyHr7EA1Rz0E+xb9JF9ATsX8xnB28iax9SdaQIcrwnbCthLAtj2dfi5sC43Cm+EMB81qGN0u7SuTbYaqh0z6O8SVu0P6+sC4Oco3/SUJnm73+mL+PEJ4+iU0l6kmlls9+fgFz2NU5rBAG5tGTL2kUSkcuatNLxBaxApkFu+mqIVepE0irwQFpPy5BEf7ECOTzs44GzFg+DVYvHUwkewr605lBHVWvuFnq+eho9P3MmogZo25MjclfjQfAJqvpwCtpOpd9bNTRatZ2KtuPoz2i7WBUWP68LfeOB+vnniugtnAfi4Tzahpbh35FUiYegUjxUevvSBcb1uPoawMSyJ2kZbFusIjNXtsjzrQrkADWhhc9Bs35ED+G9D+QcGGmDh/Hz/DD+1QtU3fYePIjjgJs7H8PzugM6/qgLmvgfuk+iTS+c7z6cqGEvd7IQY/P9pl0WPs8wMN49z1W59MJJGxJcD9dTYETOnoszvgYMgMSivm7U0elzJ+BULx8NOHqxJs5yThuwEGWjXSPRWINJGFh+RdWhH9EMB+iVHu3QZrvuOEpfACWG3dcB/TQ7wIZ2to4x7Yo1Nxf69HAajIhuwEstz8QXIB/gN3KIeu8HOUdHb3vY1Qi9UojIsX8fdMDUnS/PCS8nmuvAccUJ+v5+B7brqQLQWebAMZvoi8gR6lIOQZt9DigHe8y4swJyxrkkaYME5JKWKrcNBeRyq3ei0QTkEikkn7dWBdauW0ezASqxjoP4IBMb6NXSSixpmtrlm3Q5wgqVKqr2MR1FvrV+DFZ4Cgsp8LoIIzbTBsDXdBQAX32uPZU24XO1ZcreG7etLa59DW3HqbbFaLtRFfKuwk8lKpJ3ThX9ZmgcAFC7mEor8PlP8IE9rmX1dkFuEh7malWx8XauDBwtVHapb/rZNhve1HJQZ+z07xoGuR1pXG4VYkSOH5ZR2N060yEY5PwP4y7I2dEo+3MX9HzRqKjoCcBo8kGOjC1T0agxCgJP2MBmg5F6gEfhedroWVrngEbLQC4ikuZE2K7B/XM4wbJMF1KH0knrfRSwxw3iXucsV3SWnRYhAkc6AqeWpdqQFgTKQfdZRBQwDGS6KXRZBF0A3FGQGgFytk1q/N/h92SWZiknahi1RLaeTgKSjjPUHrmZJlxDOrLWCJhOAeS0jTrq6kTPrcYS1Qc5yzk9kUrVHFHXtoi6qgicd+loFMg5WmRrGW0av/RJXCIgl4RIhjYRkDPUMQJyZjlGQM4sf4g15ijAIPfrqg305pvboozKeEQOMHV0oQakt/HIN8bz81H8zBGwsWPDZnTdWkZfuy4J9NYAACAASURBVOxWDX5e6yL2yDXriBuDHM5f9teu9LVBfWjRrvcQOdMg537OffhA7kvrYeqIpZuTbt9KtXsZ5CoRCZxNp6JAzobMDILcUow2KoU9LWqPXAGCHC+F7OFEluJE5E4CABS8uCBn71Wzr0GuHHqtLT+I2zBj75Xyg9xHvPQy4m72gFwEBE7FIsqNWNZpAyOu0RGmloHcHVgSGd5PFyOaF2FfOaCsTkOZA7xI/NIX5044ujlAyKDy0I/siN9QgNajkYlhUgI5H9Tw+A7YLHo3Mcg5Y/n+csQGOc883WvSATnPnkI3MY0PdD2gGr4fApZ6BoBc8D5Jc/5mB1kiIGe2f+JZJyBnqO8E5MxyjICcWf4Qa8xRINcgZ92OiNaAWyBANyyHXE96CaM/IoeEFzjPe6U+wF4pN5qmIArf/vfEUiw32YkDcr+l1aE7w9E7F/bigxwvrbz1x5eoPXB8VGJcHs8BznBETkAu7bs2bkTOeSj3LHOMAXJuRM6BGzvqEglydn9OJMt9oLcjcj6Q0xE5Z2liEeCJAE/pgNwP7Yjfx4DD3oBDRLWwD8vd8xZvqZ69PFIlOPEsvwzv53L2yLVDpO6chl0X8HxeCQQ5jtZ93dfQ0T0MseH9edgzFgFy4blFJnux+4C/rDZ9bAjk/rAvzbvM0RnZ3c+m96tVYN5lURE5rKOlYfYVyOTpvnc6CVgeqT6K3POnYQy2LIItvJQ3VsZRicil/WstF2ZGAQG5zOiY8V4E5DIuaYs6FJBrkXxy8QWsQM5B7id1dlIGvVQxvISxDpGzInoEUblRtB174ey9dIC3y5boKFvjLuzCacISyOt5Waaz1y4ckTtq72ubOHw77YTPGvYOpK4HDtICtFcRO/ZjwNJKtUcO4/J1tXvXADDnhAHTXVppCMiVYv1YsqnlTblvg/bIRdg2FFkaV8DvSIQSJyKngC0EqPDNKxLknAd9X6Pj+LkvXn6QswByUVvXYmWt9PXpJtjwnscXDRX4okFlY3UOG+r8y/3sj+fjfERWRT7PIPoElv/6s1aOHhmQ9TP+Hjk9P3tJqdesWsCPt38eFq+PVPIPROSidInuIyqDptqLh/mrax2/Oh15ImkeO5xIK/vxYvj3GTtCqnXh/Y3jPa2D+1BLKrF3MMJkhjcs5Y7emeiB1yiQw/5KXHDSgVNTfocS2CFZKwvEUQFmCsgZ6jsBObMcIyBnlj/EGnMUyBXIJT/jJuxz6xzOWGlfyH9T27Tx1qCL1aP3ek5dwekmkjmaqOZc5xTr2SXTb3CbdJKd8FJXfuD/TsEtr8xUfTi9L+rzmhIl6rhi7Jn0JvpwpdY12VZu5bphzaoO26mVcZKN4EuD4Bpuyfi3HPu+6sLJNzw28Lg//ZmdxVKdZwjxQFcy3WOJJddLi29/go4YVvzJTryXxKmxFjw333hHsMe0chr1WDE7HFHEnrS1u6uRKfoqX2M9H63LMmSS7RWQddS+REXwvBHDZASLU18vmcvtiGahLWGWOnLJONfMNgJyZvoFaavPU9u2bfFNkvoOWI48KyAgl2cHyPDGKmAeyBkrVUYNSwfkygByR2HFywUHcjCaMzPOt9PTt0DJqAhQIdX8ishO2QIRUrq0HPv+6sJZLlO6Nr+NeW/lA1FlE7Jr0zMYc3486M3u8On1/udfUtvuW+kArs5EYqr0jJCr0lVAQC5d5bJ8nYBclgVOsXsBuRQFk+atRgEBufy4Oh2QY0t7AeZ+iX8nFxzM8X4njo7692qloT8iQK/vLaFxU6UuaBrqySXxFKhtVDUnC+ngshe9YfDTEjgoJLe5tgrIGeo2ATmzHCMgZ5Y/xBpzFBCQy48v0gU5TgJzPUwu5Qe3Qtwvlx+5ZVRR4IJTgDNVzsOsUFJdCoEXsHcF5Ax1noCcWY4RkDPLH2KNOQoIyOXHF+mCnGPtdADdBvzAuwYH5WcKMqooIArkSQEuvs6/+7xndp5E4vLkhcwMKyCXGR0z3ouAXMYlbVGHAnItkk8uvoAVyCXIHXj/ffr60KFRiUzC8jbTyr3raPjw++xCv7kQvoq6/bGEPr0uF2OFx2gpyLk93X8FHVqN5WByiAKiQKtRYKDFv/PJJnJqNbIU5EQF5Ax1m4CcWY4RkDPLH2KNOQrkDuQqsb+rmn5g7Y4s7u2RQpcieE4V5O6YVYlQvgC2WBb2WB3B++tQ0uAsFwPP3ZExkMudyTKSKCAKiAKiQIYVEJDLsKCZ6k5ALlNKZqYfAbnM6Ci9XHgK5AfkqpDZdyYdLOpDC4e8RC+hGHdHqkIduVmoI3ccINcHPzfTgZsGqM8fxeejlfR1KBEwlooXXEE1v/wMpQIi++Gi3qd7hGjalD12n/qa1zeuo/97dix1KJ6hygucAzC2R8HmrgdqEImrQp8ldtmBoDGb8XlHNebaEU+5fbT0ThCQa6mCcr0oIAqIAoWvgICcoT4UkDPLMQJyZvlDrDFHgXyA3CK7cDctm087F48HpL2G6NgpmgmQW4eI3E7ranozdDOgbgVtWlJGU5YMpPusg1Spinlz5OwJevHsQhrRniN4t9Dz1dPorZkzce1AomVP0jL0uZi44PgrNClUSrWDN9GmSVNowZIRKiK4ygY5KtlA1ra26JPbHrELkgeNiX4HL1V9TFkyFQXDa1q89FNAzpzfAbFEFBAFRIF8KSAgly/lE4wrIGeWYwTkzPKHWGOOAvkDuTOAp4sgBC9zXIYo3MN0igHvRousTxjYGO7GKaH0kkuc78nnuUDwnMjzXK4TbUIK3q4kegrvF+rrw4XEqwB1s6i2Cf2cxufX2P0oOMR1PXvHGdOxpZmKQxfTRiQXaGmFUAE5c34HxBJRQBQQBfKlgIBcvpQXkDNU+WCzBOQKyl1ibA4ViAdymYWN8B45HZEDDCkaCgC5PR4oU03snxVs1eO6oTFAzoZDF+Q60Gak6L63U1caNmwY/e+67XQsFsihEpMLgjHHbEbU7mJ6JAMgNwRzqsQ4oyTjXA7vdhlKFBAFRAGzFBCQM8sfrjUSkTPLMQJyZvlDrDFHgXggVwbYuAymPpoR2EgB5Io5ohaOvL0DO8a4EbkUQK7nbZ4oWzNVAsJKY4FcBUAu4ZiZA7kQ5mRt2YLiwxPNuRnEElFAFBAFRIGcKiAgl1O5kx9MQC55rXLRUkAuFyrLGIWoQDyQY4B6AJP6INcg9wciDW+3UPfh26lh7xosvZxDHdUyyBRAzrqN+oWIrhp7C3X563Z6ey/RaSRTsay+6vyxdshW2a29vUfuyiTGzAzIOUW9v8qIroV414nNooAoIAqIAqyAgJyh94GAnFmOEZAzyx9ijTkKxAM5tpKXV07Cv/kpOtuE3JWdW1yKILxPzs5AqSoNNCEbZWc7W6XXH5kZM56He0DTzWjwHQE5c34RxBJRQBQQBfKggIBcHkRPZkgBuWRUyl0bAbncaS0jFZYCiUCOUHC6LQpOl2JaTwt4tMi5HIn7Lnoowmu9aNkiLeViUUAUEAUuBAUE5Az1ooCcWY4RkDPLH2KNOQokBDnb1OmAkA14fwNeY8wxvyAsaYKVb+DVgNcmvCYLxBWE38RIUUAUEAWyrYCAXLYVTrN/Abk0hcvSZQJyWRJWui14BZIFOT3RJjoU6kJvFvysczuBrhiuaNAg6vrhh7kdWEYTBUQBUUAUMFoBATlD3SMgZ5ZjBOTM8odYY44CqYGcOXaLJaKAKCAKiAKiQKErICBnqAcF5MxyjICcWf4Qa8xRQEDOHF+IJaKAKCAKiAKtSwEBOUP9LSBnlmME5Mzyh1hjjgICcub4QiwRBUQBUUAUaF0KCMgZ6m8BObMcIyBnlj/EGnMUEJAzxxdiiSggCogCokDrUkBAzlB/C8iZ5RgBObP8IdaYo4CAnDm+EEtEAVFAFBAFWpcCAnKG+ltAzizHCMiZ5Q+xxhwFUga52lo6NIlLhMuRrAJduxN1PWUl21zaiQKigCggCrQSBQTkDHW0gJxZjhGQM8sfYo05CiQLcpWoI/cAzD6PF9eSkyN5BU6j6UlbtxfHXEnXv/Vx8hdLS1FAFBAFRIELVgEBOUNdKyBnlmME5Mzyh1hjjgLJgNwQQFw3mPwMXgOlmHXaztsMHafg6nK8HhUd09ZRLhQFRAFR4EJRQEDOUE8KyJnlGAE5s/wh1pijQCKQmw746AxznxbwyIjTTvcAFDcQHRQozoie0okoIAqIAoWsgICcod4TkDPLMQJyZvlDrDFHgXggtwsQNxGmnsoixDHYvAaw2TB/D720ajh1zJs0VdTtjyX06XXZN4AjcwswzCdZ1DX7s5ARRAFRQBQQBVqqgIBcSxXM0vUCclkSNs1uBeTSFE4uu+AViAdySwEcn0OBFVkCjnfQ/xhaTr/ccyn1/H/m0ZQlA4msg5S7tCAhCoWqybJmEB3B++vOknW2XU58HsLcrSzpmpMJyCCigCggCogCLVZAQK7FEmanAwG57Oiabq8CcukqJ9dd6ArEA7nvATYegwDfyQpwFFGv0Bn6gbWbKm2RGzBejxstsv6gT3C0btqUPXTPiuFUrPiqmWrOdaTiBVfQrW236Qje/VfQ2hFPUYfiGXYbfd2/LK+m2XXTyVrbRvV1pKGJ+odKqPYXl9CkpnXq/DmM156mUtcDNYjEVaHvEnecAzcNoIVDXspalJD3Hf4Gdsmewwv9N0zmJwqIAqJAbAUE5Ay9OwTkzHKMgJxZ/hBrzFEgHshlFzaa6eehi+kRuoWo5HUXuLQyzbQBn02nFbRpSZmO1DUhUnc9omYn8X7Zk7Rs8XhaTFcTDX6Cqj6cQiW0hr605tB7Ksr3HL1Ws5NWFFfRjgqA4U9C1C9EdAz9vVaznx7A+WNNFp3trEGOSjaQta0t+v4YUbIjsKuIHhm8KaLfTC/5ZEheipmOygokm3N/iSWigCggCogCAnIFdw8IyJnlMgE5s/wh1pijQP5ATgPbsQcvpkW7iGr38s/L6T5rEVU+BWBbqMGMAUpF6ugMWT07ALZeA2yNIzqMNgOWoc3DaFOEJZK96PfWehqNOnc0kXf2NdM7gMExWKhpWSFE/0a40b9j6K8fR/5eRB/XrMHncwgNNMj17I1/63FuqHLS6cGD6U8ffkijM+wyAbkMCyrdiQKigChQgApIRM5QpwnImeUYATmz/CHWmKNA/kCujkKzgFn20kdWRAEWAaJ6DgNMXU1jx/Z3harb+SpZ3dqHIUuBnA1hHpDrjz6u7dSVhg0bRlfVbScsolQgFwpN06DnjBML5Aggx9BoXZRVJwnIZVVe6VwUEAVEgYJQQEDOUDcJyJnlGAE5s/wh1pijQN5AjpOLXDMNEbj17h450BYgCiD3J4CcC2nQCtGybv9m0af/yFEzO1oWAHInrQ3U0w9sqYJcBUBuoR31Q1RvM6J6U7D8MdMJWATkzPkdEEtEAVFAFMiXAgJy+VI+wbgCcmY5RkDOLH+INeYokDeQgwR6yWQ76jLqBhq46z3axfvVrBoFTVz6YDT2z3Ufvp0a9k5FNK2GRqvlj7FBbqc1mz4I3Uyl7e6hiUNeoFNYrrkLe+dOWnOjAU8lVbH3zrVDtkoV7eM9cl3sJZm30CjajuvDyywz6TUBuUyqKX2JAqKAKFCYCgjIGeo3ATmzHCMgZ5Y/xBpzFMgnyGkVmpFR8u/Us3vngBpydpbKFCsC8N/fv7Vpo/rj923wPvbRhGyVnd2Ml+F2TbAsyKbM+E5ALjM6Si+igCggChSyAgJyhnpPQM4sxwjImeUPscYcBfIPcuZokUtLWgpyXFR8DQx+k2E1l4bLWKKAKJB3BXrCgiK8Fo+5kq5/6+O82yMGpK+AgFz62mX1SgG5rMqbcucCcilLJhe0EgUE5PLj6LRBDlk5J0yaRP8Bsx/Ba3JpF6Jnt+RnEjKqKCAK5EWBkyiRUoqRt+JVjtejUsYkL37IxKACcplQMQt9CMhlQdQWdCkg1wLx5NILWgEBufy4N12Qm4BIHEPcB9aX+K9dOT0/U5BRRQFRIN8K3D+JhqxupPtgxzyBuXx7I63xBeTSki37FwnIZV/jVEYQkEtFLWnbmhQQkMuPt9MBOV5O+bhAXH4cJqOKAoYqwNG5XrDN2oLIvKqhKUchKSAgZ6i3BOTMcoyAnFn+EGvMUSB3IBddN84cFXJvSTogx9fMhamTLd4ZV0AHogbUv5FGL0Qdd4/ZZ1Hv74vjb5DV5ZsU2rCfrLs+LYxJPYUC9FWbyNrXLXl7cc3K71TSg8MHRl6D80fuaqT+3T/wnK9HyY0yOvBqPV0/9HPfGGjf4G8fz4xylNCoo02fb6PNndonby/gINonuq/XrZdoLV2efF/JtkxHV+wUe31jCY2bOiNylCNFdOAvfv1i6VpOxx6so/P/w9G1iL4/u4Zefb5Hspbnvd0E+Gua+tuQ6UIpeZ/aBW+AgJyhLhaQM8sxAnJm+UOsMUeBnIHcUygdsNAp4J3l+auxuBB4lsdpQffpgFxbgNxXhbYnznk4L5lCQwBy+2zNOuPfJn5/zcdU/VFvmklc+uFICxRtwaUPAVqeREQjWUBmyEGpDAtlLRIf5TQf8POMt2Hjv5PV+ZvUN0R0wj2/HP3diJ/QN86Hj3a009qGUhh80ulrN9qeSTy0amH3B52tw8nruw5zjPZJEX0DZhyy8HtM1yYeP6u6EsqEFNEYrxWjoMvOnbQuVAbbncPR7+ZgXTvh/F+8nbAfXqMJ8NnWNcfJmsMLmc0/fg4tTsHMp03+o2e+jHmxUEAuL7InHlRALrFGuWwhIJdLtWWsQlIgLyCHhB00sQu+SV9Ht21/jqy1b3vec6kAu+zAgito7YinqEPxDE95gCq0fce+zikrUIUyAzOpccgQOvzhKuqBWnL9aDm9eHaRuu50jxD9y/Jqml03HWPpa440NFH/UAnV/uISmtS0zj1PFNS/7mPalD10z4rhAaUKUvd4OiAXwhN+0rCRuklZuKIe9QDLaLQCF4Vt9uHAykLMZzwevBkaltN6eoimEyJW1uMAhSsUhDwBcFjMVw12ImBFVFs2jcZXoPg7Tp92z+OHXkU0+iRqB+LcJx9OoePW72wA8k5N97nMiQZ2XgAgqNNAcBEKwZ/pEKnDYdg2gGgd6h3Shvd11DAVkOuEuTIoWL/CnPrbc2UQmqvQbCfb2ASYQM4aYkAK8fk+0OUFNX8NdQCKRX0VbOrDA3IJo1g+kIPtHEeM0M2e48vQ5JaPN6jIXbBPTtAh+LPRBF0dbV4EoBYDUJVPIGEj3jpassaOfgT9AnS9A+e30ivQ+xJ8s4A+Ivyg789COHZh/o/C0DcE5ArBXRE2CsgZ6jIBObMcIyBnlj/EGnMUyAfI/RxPV4/Qc/RazU5aUVxFO1D4+/nqafTizJm0gwt1r0dEbQAXj3uCNi0po4eXEB1rwvnL7QLey16hqsXjqQQJ+C1rDh1Df/0YAAYvpZ37utJXALkxNshd2T6E956xKtDPT+x+aAVs2E8PwAbV/+kQXfYtLPdbXEXL0P9iVQx8AG0IXQzAWKFsmbIE4zQdhC0t82HrADmGiGnQ8F6PWE5UqQ8gpkqBloYGHFcTtTnG5RQ0yPByMc7KdwNeOpIHoGnEAzk/bHvPc7QJUT31zO72gfdfvUBWmz6esYvcKNg1OPsRf7L7Bnp75L4YIBeOjrntXdhKMiIHSPr+L5xlevVUARAqw327G5AxUt2/HNnyAFtPBjZnmWl0NG0+NHnGC3IKYIain4oYN6SnD1ujrmh5WrVmUKlwI1XhOf6WqkN3BvjkhG5rgq6ITq4DgM9woqhKh3YA5HMa6Ozz+t6Czj0BdQG6fgJNHnSWndoRRA3dP9JztX5rf6nQst/3bF8tIJdthbPXv4Bc9rRtUc8Cci2SL+MXC8hlXFLp8AJRgH836uq2Uyd8G+8/vvjiNB3EyYGZ+JbXs7SyEk9IpQrMeHkUQIvhDQkYG/C+Bx6brApeGjmVvrRqdJFwnA9h6d1R6g1gc5ZMNlMlAIv7OdqZQe4MHt4u0lNQ7e2fVfSPEwA0Y6yL8cDO14eoV2gE/cDaTZX4RIEgbDi6h/sJ93/rj/9I275+o1oS+iWAkW3RNnrGSvM+YJDbgWuDdI/VJfujoCJyHC1a6CwZtGdlR06cCBWfdR+2GWrsh+kS7MN6PPRDHVU7cjNNAGWoyEnjeE/E5VosW2Sw+RiY3RuA5ESqbHjxA4c99p384P631bSu+1b9kH8pHvIRNYvWVkf/Jq4AiKq5wFiOAN3F0JgkyDnOBNC1RWRP1fwDHKwAKJU5kSBASV9AyQnv8lJHJx+kRYFcwvvP1gLASgBWBcMWlgu60Sf+feFOEPG0uiFSN5+6fvh0oE/aYKny+SCQy6eugOClsOkxngIvhZzrjbwRvQvbRipgtSNrgbrakWOlZRXa9sW/RYjs4/c9CloTCp6XBgJyeZE9I4MKyGVExsx3IiCXeU1b0qOAXEvUk2svZAUckNtfj0QAvuOuYcPoNziXaZBTETnAIW9hUyCnomR+kMMyN2uctqgXwOxkPb1Nw1zo49MOBEYCGD+YhkGOwetaQOowzOUqACsWUSqQ40jR7631NBrNHZBbD5CbbkOlK4Ua+2oaO7a/e6pu56tkneWIYfoHgxwX9J0QoHusXgdhDgUFcljqGDrpATnnIdq39yhiP5YH5PoC5NQDunt4QU5HShyQ6wOQO+FAihPhigFykfriwf3Skpgg1xYP8xEF19MAuY8wb72jbA78V6zeacDwReTUPra7ASZ1et4BSz2TAznUGJsxj1avm4JOfCDnamKfdyOMYVUYosdCe3ePnO2TRCCXa10d6CfAbon1qE7A4kTmrO3KHH1v8dLJFTF0DUddKSLhTjlAro4anKWb6f+q5+RKAbmcyJyVQQTksiJryzsVkGu5hpnsQUAuk2pKXxeSAg7IWQFRtyGAjfyB3FS6DxE5jpi5UTDqoCJzlnUlztbRJDyk1boROU9yExfk0N4PbHFATgOhE23jB7wSRAdnRiZpAdh1+zeLPr2uZXdBq1haiShUaIANcrV4j+SVRHvgv79GiBcEcrd9RfRaWzSz95ZVwNcqguVG5CJBrhogp6Jrnqhe1BJAGyTVvjTcSfzwO5rh71JEcYIicqq9b79aFMhxMoyvx74ZnOV6/n2CEcDhhypvgpPIrpMCOe9eL2efGCJyfRCRO+Hob+/d03A2EMtcV0MTJyHIcarG3rFUQS57ugZp7FmOyhFG5/DNXSeUgY/VHjm/ruGlrnqJq/eIEdVt2a991q4WkMuatFnvWEAu6xKnN4CAXHq6ZesqAblsKSv9FroC5oIcR7yKqPvw7dSw14G6CpqJPUbrsKduFG2nXTbU6T1yHpBTUbSpdOfnJXTzZbdSabt7aOKQF+jUXiTCwMP+SWQb7BkQkbP+UAQ4rKO6Ud+igbveQ1vd5y70PxpjOrb8HoDJkbyWHGmDXMMdRP+woCVD5/DaIirGg/R8gFNb7FscGThyAmjwXRMGvEiQs7ZguaMCRc8RtSwuIIMkg+JD2A+lEok4y+rsPhwIi+gUy/QI+8rU0sqN4WQaNgyqhCXejI7uUj5vJwycc7GcMjprpQY13+HJOBm8R86/LLRcZ110u7EBBj6ISIip5otoZORJBc/VoR8lD3JuNk2P3ZnSFcsctX2+rKaBvsEeOUTi3D2Xyhw99xrMPUpXd7mpT2/PHjmOTmal1EKGfws3475Zgz4l2UmGhc1BdwJyORA5nSEE5NJRLXvXCMhlT1vpubAVyBnIpSKT2k/HSytvQjbKi6hNGyc7pdNJE3a8ddb752Id2BvXjL1x3Ib/Hv8NfTjvo/vzdxLUv51Js2UrKt2B0gG5cIS0cOrINeABs0dU1spkbwZd3+unP+MaaMuwX62X3q8WdDAwIQnO/tfn0fUP/h8NdXY0L6o59rutvaKaZs24KvwRloHeOmkPbVsVGS3kLxPcOmWoTXbrqqA2upulsOGxWGMGGq3rmk0+mGKNt4i+OHKkASby0H2v3OqvXac1PbXSm9Gznk7iC5J/rfZpkqybnHZZ0lUtl+yAqFpzCqUAYtXtS3ZOCsB9+zuTvTYP7RjwORvpo5nYz5wH+1vzkAJyhnpfQM4sxwjImeWPVKw5hK9j+bG1QEoFpzK1rLbl/VffUTXHPos7jtkgZ++Ry6pS+ek8HZCbj98F/bBWOCCn92hVAzQ80JQNyaMiX7lOHZ+nItK8D9HNxpgNYfPdpy87ZU7McZa66pIRhXCEcP/vhKGjBOQKwV0RNgrIGeoyATmzHCMgZ5Y/krFmMx5aeas+px7nGk/8ACtH8gpw6pJX8GKgeyMO0BkJcrC5Ga+4EbfkpTCyZTogR4gyhiZNsjOJFhLMJdhHljEPFSHaRHYEr33GepWOWpsC+OtZ21fVuiyEgyPBb/PfeYG4QnBXlI0Ccoa6TUDOLMcIyJnlj0TWcOSB/8f04pgr6fq3Pk7UXD6Po4BK9Y/PY5URMBXkLnSnpgVyEMX5gmMT3k8uqMjche5RmZ8okHsFnD2VVhKrL3JvnYyYjAICcsmolIc2AnJ5ED3OkAJyZvkjnjWcUn4yGpySbxcz5jR++Of0GJ8EaJp7kKuiW388GHuRhkfO7/4rqOaXn1GxuwetDu0uoZfQrsWROfTdjCWmLe4nYx4hShfk2ARebvxd/IvEjiqByLAM2iVdiQKigNkKbIF5vEKFY/JcHe/lLTijamXKUYgKCMgZ6jUBObMcIyBnlj/iWdMDD6ko4ZxgrX8zHbhpAL07++eqq9l108la60+Ikdk5nx48mDp++GEOYKCKuv2xpMXp7f2znwBdp+HkZB/M5Rbk7CLeqt5XnwgTN8C+cA03JzulJxNl2u5spp+jELhTty7tbjJ8YUtAzjHlNCoWv9mgo61yiAKiQOtRINk90K1HkcKdqYCcob4TkDPLMQJyZvkjnjUhoP+hZwAAIABJREFUPNAH1TSLvAbp5pGS+tjgTbTlH7fS4YoNtBjpwAlp4bnIdOaPSqRRL6WNdhHrzPfv6fEIMjZed7bFBaf9NvISyz/i5NO5BDlEwtaOeIo6FM/QkTbMrd818Fu76PmFQS4I4uoA7nfTwiEv2RE6XwbJP0+g5n94mTpiD9n5CRPoYFEfGtTvhA33Nsghc+KWx5+kSU0oCW5D/5GGJuqPWnGhh2vVOQajf1le7ftioArZEnfQmnMLIqOI9tx+OnxGWtCdCZDL6n0onYsCooAoIApkXQEBuaxLnN4AAnLp6ZatqwTksqVsZvvlJWP/hC4/SLisErDjqQPGVuii0fWAwKHaqBgP2vywPm3KHrpnxXB7GV8V1ZwroX/src8HL+WLB3J+yLA1wfi1F42LAAdOVsEb6EOzxihwcECi9heXeNppexh8gj/n/qto7bq2pCDiEPeZeFnNgZt60y1v/5+o5ZXZisjp2m7LacvCD2gFQHtXBaJrSOjdbyFAbsN+su66PuLmUSCH9PEzFo9HnTinKDc30bXdavFZFT4riaoDZ0f5UBh8fWf0QQOJlj1Jy9B2sbofBuiIHOrAPV89jd6aORP9c6TP/jIANeZo+vP0dlVbJNV5jl6r2UkriqtoB9v7kxD1Co2gobMW0LfXFtv9DbXvteVoe5AeR1un3lwqvw0CcqmoJW1FAVFAFLgwFRCQM9SvAnJmOUZAzix/xLKmJSBHhwF3A6bSl4jK/UVBnf9Bu5k24IF+Oq2gTUvKaMoSPPA3HSQLD/8huppo8BNU9eEUgMJUii74HAvkoiHjS2sOdcT4XDD4+epx9GeAw2IFJuepEuOXAiio3auIuLXXUUXY81rNfnoAQHAMMGJdz8Wsufht7+DPT+PzawbS7bMes+ECtltHE0YieWnokP37cwRyGrTvs9ZTJTtbFejmunAdENksCoxsKpCDHyYOP0a1e9fAB3N00W2lpQN2tg8BWesXoj3D1u3sdy6wPAf+5T6c5Zh19li/pdWhO6lUgZlji9aXIe0H1m5to4JsBuJmegd+AmqT9Sd9T3U9UKOibjqTZgWu24Si4ru15qrmnR4/lUNALhW1pK0oIAqIAhemAgJyhvpVQM4sxwjImeWPrIAcHvcZHnZas2lyaHH0g3bFXPXArUALBugIHgCBOuDKcCSPk62MuREP8X/wWhkD5GJAhvWTKjz0l6hxzqFNezsypEDOAQqM6gUJFcHicT8Jg1zQ50f3cKTLgZUi9HHGnau38LVf45yCHC8PvWYZtH5Y7ylUkM2wc20CkNPz0tE8hq0r7fe30Nix4Rntf3YbfcrAC11PIdVHD1sPBXKuvgRwRsZOLKl8vMs3w3vkFFRqkAuFwjby/XBtp640bNgwuqpuux21gy0PhujuVYSoG68N/QjX9VWA/Z+jvkU3tL9CGVX32b1k7eMUPckfAnLJayUtRQFRQBS4UBUQkDPUswJyZjlGQM4sf2QF5OzIyElrLn076EEb0TaOvI0dGy7wWrcTkbFz7T0RHwci/Ek2gkFOA0cAZPxjiC77a1f62qA+tGjXe5FL/Nx9dpHLQ4NAzrt81Pl8PUAuDCtO1MmiT2DL43fPo8qNKwP31+UU5BC1Kg6V0eWYq4p2KeBlWP48Psi5AF2H5ZRFVMs/Y77hiJzO2PgZ+h2NJZf9sOTyGC+ltBBZxTCRETkNubcCJvuFfpgA5AJ8wXD4kXe/ogZv7u8M+nPnluaeRgG5wvibJFaKAqKAKJBNBQTksqluC/oWkGuBeFm4VEAuC6Jmocv0l1bWYR9UEfZBMYBp6Ip60N4PYLOX4CnTEZnp9m+WHdnhZX/j1Gl/VEdPM5mInIaMRut39EHoZirlZZKX63FCJz17tVoIcpEROQ0X7jK/OD7JLcg5kciBWCp5CEslB2J54kEsTwyDpz8pTWTWSkzEXipbYv2TBjEA8yjajshYOHqqwc3nO4Bdl1EXUxsA9GmVHbNbZNbKwIicvc8O++UmDnmBTu3lCNwa6Kq/FDiG86POveCOraOs4bmpJbrs6xQOAbkUxJKmooAoIApcoAoIyBnqWAE5sxwjIGeWP2JZkwrIfQMP2IfcjpxlbzqlfawH7V14AB8NIOg+fDs17LX3wqloEV9fZINCGAzCdlZSGeCwIsLw5wAJ/WyAjIQMJ1I3EePsxDUNNsgswHLAcBr89CJy1h+KUIOsjt7H0j4+Gnd96Uak4nk5HZCbDm3uQKf+kgXJ303NdP78RdSmTSZKQzRhuWrniPIP/mWwYQiPbpuMzd6lqfzetRv755qxfy6yDl0zktH8nfp375xM11FtuMzG/kGDqCtKWsghCogCooAo0DoVEJAz1O8CcmY5RkDOLH+0HOSSmU+sB21f6np3n9t5gELHNOvEBYGD91wTDE7vgT9qpki1X9P5Zfqntgwa38WqxV7hpCJxZEkH5GKVLEhG/ey2aaYnsN9wMaJmzp5HHi84mppdS9LtPbkyG+n2LteJAqKAKCAKFIICAnKGeklAzizHCMiZ5Y8D778faNB7SDSxAp8kLj+QwfkokMtE4ekM2hSvK+zJuuxbXWnaHZPpg19XYrmfN1V/7AsZ5Loha+U87KPzHpW/fg4/nguu3YcSCqHVjfSpkZGjIDjOIDBn0Z3zcc+xpesTltnIohHStSggCogCokDeFRCQy7sLgg0QkDPLMQJyZvmDoxGdkCHQf3zxxWm6Idcghzhc+pG4/OkaL0NlkFUOyMWyOFYRdo7K/TP7ZMuWpOrV5U+Rwhh5M/RE6Xr6SiCuMBwmVooCooAokEUFBOSyKG5LuhaQa4l6mb9WQC7zmrakRwa5r776KmrvVPJ75Foyeuu8Np2llY5SP4e/HsEP38XrGbwGCtSldhMhsvkOIpscbd6D1w7WUEAuNQ2ltSggCogCF6ACAnKGOlVAzizHCMiZ5Q8Budz7oyUgx9ae7hGi8gait/F+X+7NL+gROdVLEV5j8HpUAK6gfSnGiwKigCiQSQUE5DKpZgb7EpDLoJgZ6EpALgMiZrCLjIIcoh07n/0M2SizfNhJRoo5waXnYMDpdttXZK31ZmZspgM3DaB9b3xM/vbBVqL9+3+i64cOjTGJRJ8nnntLQS7xCNJCFBAFRAFRQBQQBVJRQEAuFbVy2FZALodiJzGUgFwSIuWwSSZBjvccTXFqtmVxDg0Yp0dAUhRdy+xqZI48qotf86GKk/ObZJOoFKnsk7+31scAUi5VsAwZGh9OM6smImpIdjIEyU4+8UWE+Hejrm57cLKTLOopXYsCooAoIAqIAq1dAQE5Q+8AATmzHCMgZ5Y/Mg5yjf9O+yd8nwb1OxERGeNo2b8sr6bZddM956uotmwHrTm3gLatGh4WBpG9tSOeop8On4HC1c5pHVnjfk9VtY0JcqVI3PLFgE/J+oO+juvIjcC/p12Qq6LXN75Dt21H7Tlv5M4ec9yMmdQzNC0MclG2eEFO27RwyEv0KOxPNhIpIGfW74BYIwqIAqKAKCAKCMgZeg8IyJnlGAE5s/yRSZDTEbGBdPusx+jba4tRW6we0aWhpIpF03P0Ws1OWlFcRTsqEB37SYh6hUbQ0FkLItrqaNtytD1Ij6PtLgVgFTQpVEa1gzdR1YdTqERJGB1hU+OvxkelelxC2fBQqJ6W0QbYwu1D1A/Fy48te4WqFo9HP2twbg6hEcoeTKXnq8fRWzNn0jq8/71VQ/0DbdEgZ1kjqTJURKWuTXZR8yTcKyCXhEjSRBQQBUQBUUAUyKECAnI5FDuVoQTkUlEr+20F5LKvcSojZB7kHMCqo2KAzkYsH7Rqa+10+c2AuosBdTj3JwDRgKnU9UCNiro1w+iOAK9eoU100tqNFjjUssg1dJbmUnsbCvm0BsMYIIeI4NQu36TLMW5lL1x/8mM6Sr2pH9ofBa7xv3pFYzNA7GIqRfuJaF/LdvLpw9qunQC8yaHFUbZY1lwX5CZhfrXtzpJ11rdZL4EDBORSuUOlrSggCogCooAokH0FBOSyr3FaIwjIpSVb1i4SkMuatGl1HAvkCEsK2yJNeyo1tlRETEXbtClc96wUe+ZOdQ7RtVjyOAxFxq/CHrB1NkwdezBEd68iRN0YhD4CYPVVEbP/HPUtuqH9FaqPus/upVOIwvXwFNvm5ZJhIAtP2xn/6EL9+dsAtzGwJ+LnG2GfvexSAeGG/dRz2mz6AeBR76vjiNs0ANwG+naALda+KeE9cki6Mun2rVS7l+2vxL652Untm+Nxy3HFG7JHLq17Vi4SBUQBUUAUEAUyrYCAXKYVzVB/AnIZEjJD3QjIZUjIDHUTE+QYaQAcVgp1yvTSSifiVYTo2hk6Zb1L5z17zlwI+wjAdJ0TzdLLLG9FApEzoR/qaBrP74jdplt7RNZeA+iNU7OOHCca5KzbOap2Cz7opva6/RcH/BjS6GP0cyUjIpZrIqKGiNxqROQYOK3LcVpFAXVE7unQzdG2nIUtWFq50xpB5T++1N3bp6DVA7Hx3LMUbfnwp79PNtkJ1/h7nEEQL1QhkCNFBbjQPZcfeDpD5Qc4yc8a9PcmXudTtEWaiwKiQGEr0BPmc0mTxWOupOvf+riwJ9PKrReQM/QGEJAzyzECcmb5Ix7ITccDaucUHngZsDjZyNcG9aE2u96zE4zYSxjb3UMTh7xAp/ZyBG4NIl5zVcTrGM6POvcCzul9befQR3vss5s4/BAiXQOJmg4CsJoBbxcDEm+hUbSdDsOmcPKSAJD7SR0tBaQ9ZkNbOIJXQTOx126d3c8uB+oUvLWjLqNuoP9v/wn64ovvqT1y/zXQFt8eOfQ1cfh22LoG18xJIuFJE0CwCx2E2f5C1MmAXBlsqsC10/D65aBB1PXDD826oYy3pokOQf9nYedmvOoC/JD0FLBkeMKkSfQfuICLtE8u7UL07JakL5eGooAoUPgKnOS90pjGVrx4pYXUpyxcnwrIGeo7ATmzHCMgZ5Y/4oEcW9oW4MAPu99JKXrRhB1onSOWGfLv4d/atFHn+H0bvFcHHoabJ070LUlspiMNf6f+3RkjvUd0v+mpGdxPhF1ux7FscRo0Uc25zknWqCOaoKKDRCsC9EwEchz1Y0x4w2rEf/3apKdEa75K77VE2pwUos5evdiXDHEfWF/iv/Z63dYsqMxdFGjNCtw/iYZgO8J90GBeSv+/bM2imTV3ATmz/OFaIyBnlmME5MzyRyKQ42V8Y2HyZLzux8sfRTJrNoZaA1hdisgNJ9RkHWMt6YsHcpwgpRtqz1kq6vOZoRMtPLN4mWs9zH45xQcvXk7Jy1sF4grP52KxKJAtBTg616sFXw5lyy7pNzkFBOSS0ynnrQTkci553AEF5MzyRyKQc6ydjwfXt/HDPrPMLwhrOPbIeygewyteZDMeyHE07o9xIDApIZDApvaicbT2P79P0/55atJRxLh9o89mgCVHWmMeaLMTbZKts5fUXIIaIflMTeeXU56X2guaIsh9D9fMhQ2TLd4Zl8+jng68X0TXDx1GP8dS5UeQvMe669OwQU8V0WVLUFvx83/G7lWdQCjyqKddWG482vptjM/zOTfP2JhHqGoTWfu6pWBQEWpGltC4qTMirzlSRAf+Ug/NPvf1VQ4tK3zny+nYg3V0auXvsKxb721NeOBhPoQl1zux5zfuNdzO76+EncdrEMuXRViaTrTAvvQslr/f8vEG2typfYtGo7R8EunTld+ppAeHYwm99wj0D75u6VVGB171+60e/imjq1fm+/cwPIEJ8CsvfZ+c4t+UljlDrs6EAgJymVAxC30IyGVB1BZ0KSDXAvGycGmyIJeFoaVLnwLxQI73K96R9sNBeI/h7bNKaOZVxfTwEuxPDCjhkJpTmgEPF9MjTumGGBdz9GqKk0wmtQFSaq1rEEaXpUjUSS9c90F3oq6nVAGKpA5ecvyVCXviXBgYxOUQcfQBlL7gzmEdPp/JP72IJD/FRwLmBpjg62J+7rvkIbR/EstRWwqwqfaj4GgqxmV8Tny8g/a8bNY9RqGkyc6dtA7QqvRQRzvA1rYwbKkxRmCMJ/THnfDzX7yd7MFnf00weBH1hZ4nVKvjaM+Lb4OPCoxXpvbpBvkl8RyjW5RTj1AdNUT50vaxfQEvym7i92tg35zY9iW0wK9XwgucBuU0H3Y+422PpFNW5x0x/HOzfW/7/FaL85M8nSgfn0naimw1/Dl0OYXOM5VMKVt2Sr/RCgjIGXpXCMiZ5RgBObP8ISBnjj/igdwQPG3/BqamtbQV14YonPVTzZgzgl6zDCUTHkY0rQr7FmdS45Ah1BHJUzoislX7i0tozbkF9NKq4TrahuWh5ydMoINFfWhQvxNkreU4ow1yeAjb8viTNKkJhSXU+chDgRza7J/wfc+1us3pHiH6l+XVNLsO+U7da6uotmyHGn8bxncPRPbWjniKfjp8hqo9qI9mOnDTANXvqaq2aYEcR9eWoqdRKXyDrqN4+Y4CFNGkG4nK9nC0yPOw+9ULZLXpgxl5HuDVw/0mFX3jLwROI8mQdZaRxm6z+wb67sh9tMM9j48OAwIHEJIDobzGhvcR6XsANRzrNCBdhPvpTAckJyoi9tA+JCi68/OVMaI8RfQE4GYZIkFfHH8DD+wLovqJuGOixkWEMSWQ88Gpuhbwia2lyHODN2uA+1wPkkdl2OqLvcBOxtEwyGnQegWfX2KPTwA/aP0UtI4VHbQBVcOSBzztOb3siYbFBjmt12I2b7AThUSG3bJpNL5iA3GWxNPuefzQq4hGn0QSKV67zVk3YoGce1/UY69uGZJzAHysM4E+ZL+u3lNJXW+chyRTiJhZj9sRWx3d48RTh5F46loHfIN8FuFUzw8OIFu/Qp/9AW/8ZQN80gifBPmH+sJ/zhcUzj19nKpxXl1nXev6R/1OtjRSGMvuJM/vwnweRVt/eZkkL5dmeVRAQC6P4scbWkDOLMcIyJnlDwE5c/yRLZBT5Ro89fP8M9ZZPfGwNngpWSWok7cQ75c9SVWLx1OJelCaY5d80OeX4fxilWV0gI7I4aHu+epp9NbMmW6NQO8YulzEQLp91mP07bXF9rVD7cLuz9FrNTtpRXEV7VDlG3QpiqGzFkS01dG25Wh7kB5H210q8laBEhJlVIuH2irUGixRg6YekStYkOMH1oXPQQdOn6MfcDVA6Ad0DT/2gYf7T+7qrfbvdAd5NSB7LNFCpaEGGu95hpfx7vlr8NlHSto19HZobhjk/nab7v9qjHtMR3kU6EQsQQxHqNx+AI1vAxq9QBi+X8Lw6R3XwrjJR+TKAQd1NMMBbaVDO9wZ5zTQ2eddgGAQ4MMfYbL127SE6G28nnHATJ0fqrTzH+/is5Hc7tKNOpqnYOVHAVr+llaE7gyIyDmQRcRlMvRSdsBmI2CGIQeHe/4awPlHvV21+SsUVf4iZkRuOW1a8hAdxVwUJHJEbi5DUrQPj6D0iopcur5lkDrhRhtd3yjAOhF4r1jAvMAD0Pf9X9TQq8/3wMf1VIHf4TL+O8NwHeSfnjj/pLNk2L4/EH2jXSO1Nhz1bMJ5BYHQOwS9Y/gn2KDMnhWQy6yeuexNQC6XaqcwloBcCmLloKmAXA5ETmEIAbkUxMpy0+yAnF3+wa1xV0Tfw0PuDjUXPKVZR+moArkzeCC6COeakYWzo95npsoyTFO1+I4rGHMgqY6K8cC6EfuqVuNh1K2f1wvtT+o6ffx3lw/OThpZ98+5Fn0hykfIWMpjvgMgHMP9/wl9DJhKXQ/UqKhbMz7tiIILvUKbULICgMKdKrvW0Fk8+LW3y1bwaZ2FshWBHAOFHRlzI2uvQIjxGlY0qFThBBCXH+7/e2+afHAbombL7IiY9yHcfiB2I18bVQRo4op7dYRjIbrhPuYCHAAoCobwQL7yC97jBC/hYVwBgX+vnQ1Dd36Ocf+2mtZ136qjKJfi4dzpJ+L3SkeeosYFhCYPck6HRShDovemhqElvPRUQxfDLATjIwbIhc2rUtG72Ec4WsTtNCDzcswb7feIrlndEE2bj7IhTwNggpZW1tNJaHmcgfjIzTQBxLSVo4KNAGs3WnUtliYWASw/pgeoN/61wd2JriZYWunazyA3tm+gD6vxe+1Gu+wo4we4cAjfTdZLtJYuh52c2EPfQ4E+C1zK61EP909bRHzVXwq+bzBmOPJGFOwfbjwUfwvep56sL8PsYV6aamuvoq0xADKO5zL5kYBcJtXMbV8CcrnVO+nRBOSSlionDQXkciJz0oMIyCUtVdYbZgfkYgFOeH+bBjkHgEKIcqG+2qhv0diz76E+3lRVU0+BnKfguSqAjuWSj6OYurtHzgE5RAlKl86jyl+PpBfPzqDz7QOuxZ65U51DdC2Wmg0bNoyuqtvuRvOOPRiiu1dxvUGmyY/Uw3M/2PSfsOmG9jphR91n99IpROF6uACKPX8R80jeXYUakWvAg3QPdx+W8yCLefMD7nG8+vIDsv0zHu4PA4YiH3E9IOc8/HtALrzc0NbSD3L2A36E0jFALtIbAKJLS2KCXOC4qYKca9tQgMejCjw0qCEyZ21X5mjQtZdO8okIkPNCmTfiEwcUvBFQd8I2OPo+YxgaFPphQESuHPBZp+HTPbwgp5PSOCDXByB3wnMPKO0SLq105grbFiGahj2Pfh9qkLMBMQLkwvqF9XrXszTVc6/EAbmPoIe+F+fAH8X6opj+WRHWxP3iohzRwbqIuStwtpdr+maU0x8F5HIqd0YHE5DLqJyZ60xALnNaZqInAblMqJi5PgTkMqdlS3vKFsghnIVI2VS6D0BW6RipznkjchrkImEIbUJBETl8Ex86Q7dif10/PIxGgRwict4jMiKnrz1lvUvn7b45m6U77kcY87qz2L/FEKeXWfI4ZzDO5TBQ2c/7+7hNt/aYQ3jvX+Q4yXujUEFOPfj6I3J4kN2NpWW86IzU/qV3dTQIyxkJyxndCIZ6aI4DcoSlgf59ST6Qi9hD5i5t82W/tAHGWXLJD7mjGTwuRcQqKCLn2vUCjLZhiseNADlO0PH1OA72QZjT0rVRL+PTSUk8CUnigVwt+uTEGnEiPhoMPRE+ByYVTA/EstPVnr2Mx2kFSDsq2Yl3iSD2j7kauxG5SJCrBsi5kTPHxiRATke7RsCGd8P7AD0+DAK5274ieq1tWAPdB+4hqBh4r8QCOUcXleBEpV3RRyz/qD1yvsQ0aB6xNNYHgcn/9me+pYBc5jXNVY8CcrlSOsVxBORSFCzLzQXksixwit0LyKUoWBabZw3kYLPeY0bUBVGtgbveQ7TrOdRBu1dBWERETgHeQJp3dxH95ugfqHEXHv7bfUnrz7VX+9y6jLqY2uD60+oBuFtk1krP0kqvTAxYpYi8fW1QH/tahkZ7ySeSa0wc8gKdwp6tXVhydxJZCb+NB+xjOD/q3As4x3vxhiIhQwjLKAfSxOGHECXEXr2mg2RdHs7GOQqJFw5j0NOtaWllwB45FZF4CHuEVJTFs6wPD/crAENl/vv3OE70xcsfkVsEkPNHahhSFmFPnTqPqBqWbLp78Nx+9fLB8BGQoTDCRt9yxaAoH4+L5bV6aSXsUoOGYTAKrgL70JEkN4unMjBB1sqoCNtytUzS2XsYmezGA50uwDj7A5djrIcilYcGKwDc0VkrHQiNbB6GqEiQs7Zgyak3cyNfluzSSgYpRNSDfFhNU6IichxFHIsvVMJZP3kwfFmwCF8WBN0rl8Jnap+gL4oZGLnkvbh/DcxaWYP9ehEZLnlYXlL5hG/uTtZKu/98JSMSkMvi/ySz3LWAXJYFTrd7Abl0lcvOdQJy2dE13V4F5NJVLvPXZRPkHGv57+HfsG8tbt037z45vG9G65fcpZVN+LlzgutjaRN9rdcefs976tSB/XPN2D8XaWczHWn4O/Xvzik9vEdLbCLsGSzUrJXltBnLy1639ywlviN1La6VW/W+Nq6/Fb8+mqcOG2p73bpqD7KIIv0+siTeOsl+D5hce0U1zZpxldpLN3k278ELqE/mbecY6u0nwvgY4wZMcCke2h9LdTkdbAmsXxYooN6zV/PYDM+8GLY8SwwTC48Weu/bv1bbWsW9Rteu++nP9H7G2rJees9gzCONWnfevpL1oXNNoH7BPsu+f4Lmno5/knJiUo0E5JKSychGAnJGugXrxfFw0LZtW3zbk3yNIEOnckGYJSBnlhsF5MzxRy5ALt3ZqmWLnj1y6fZj4nWFC3JQEzAUmo89VA8jRX6rO5D9cLaT/TCHk2fN3SyKORy34IZqnf4RkCu4G9U1WEDOUN8JyJnlGAE5s/whIGeOPxyQGzv2liijGpEMJO06chmZIu9l8UfCMtJx3jthkOMywkPunpe0LZW/rnTT2Cd9UdYaJtozlrWBpWNRQBTwKSAgV7i3hICcob4TkDPLMQJyZvlDQM4cf3x/9kZ657fz6amnV0QZtRI12vILcubolGlLCh/kMq2I9CcKiALpKiAgl65y+b9OQC7/Pgi0QEDOLMcIyJnlDwE5c/yxdt06+nXVBnrzzW1RRg1B1Cg3IFdFa9dxajp9/GbvdXTPiuG6rlyqx/1X0M5nP0OWQu9RRd3+WKJqxJlyFPTSygARj2HfWD9/RkBkgCydMY9Wr5tiiuy2HTHswhy8KVO48WkUni+x5ulSAv6DE1xscIpGOx8mO2e9z+r8/2jE/kuuluYc5XTg/Qq6fujnkaPF22N3PzKPPLslgcZFSBJEdNS/t5GXbF6BZDH7/DM3yGWBOsezT+/LPPBqfaCOR+6K1jzYFxjDqy0n+unu97cZOgnImeGHdKwQkEtHtRxcIyCXA5FTGEJALgWxctBUQC4HIic5hBEgZ5cquH3WHTTr8lfpi4oNyE0IimtCuv+A5+d4U1MFuv376pzSAaq8gBnHhQVy9TQBSTW2oli0ZXGhZPtQGS6vRgr855ACPzpPYf7SNDhoAAAgAElEQVQ84dS/Cy5bEGVXjMQmujg1Zz70VMpLZs6dMD5nVnSPyMyU7mkFxgtQv60uMoOiF5idvvy19KImYc/5qxfIatMn/KnKtpio6HiGPaXGtOecRNfBRcxjXejPwOlkCb3ZLv3gXGePH8sXqpk/K6j+2SlOnoTpOWsiIJczqTM+kIBcxiXNTIcCcpnRMVO9CMhlSsnM9CMglxkdM9GLOSAXrs3G89I13s7gIfki/IQsiRvX0f89O5Y6FM+wI3XNVHOuIxUvuILWjnjKPR8Bcn+eQDWdX0b7KrQtUdcdaWii/qESqv3FJTSpaR1Za+2MlXiY5ajgT4fPoE8P1RIhe2U2j1YBcngQ5uyLOvthPe0C7N2Bd6dR5sE6ywnl6+kQzrX/MUo0oxj7Dvc8PjqM+mgDULcLVcfOImH+XZ8HZKZ028CxG95H3bdP1XVrd1fTWCwL7sdfBjjnMVYDxuJi8F9sOE00HmPEgx+3nIBd8y1grAiQcxPAjPfMOfgOmgCQ2eoUBXfrmKGtU+LA+o9wvbJL59rp9FHiATXewnXM/oqC1WXhIt7uXMrpHYDfqii9YoAcg+ff7cQ1KenJ5UVQYBt6Lt3xM+pd8/vgLJdun05k84cAU9JgGhXBJZT8KKLh+Ggfyn7c+flKlbUzJZALqgnIZSNUXTjClwq/o1FNN1OoC/t/Dd0RmhvgC8A5zrtfPXhKK2ifc4kNZFI16BCQM8gZKZoiIJeiYLlqLiCXK6WTG0dALjmdctVKQC5XSicex0yQq6LK0CwqVZG1SpoUKqXawZto06QptGDJCPqBtZsq7dpzNHipOj9lyVT6PYqPn7cjcmcXcg24NTg3h0a7teZ6o5g4IBFw8FrNfnqguIqONWGM06hjd81Aun3WY/TttcW0mHTR8mzmHG4VIGdDCkcwHkctsF64HbvjKb0B9ftIFbFGzS/7aTl8HlBhjXfPc6obXb7ZF+1zoiX45Bq8PuImXDvM8wAePv8r+gT103j8iCMmyDlRHSdqFI7yeMf6BGOpiBwKfatprAEwTAYwABLiRW0YBh50QCuigLc9B0KEzwGSihP0/f1Olsx6QE0ZsNYTBXSvd6KLRTQExuzrAFuaOSGNc8SLyHlr5SWnpwU9/THWqDk7xcJhguPHNvilGo8Lt7JZ/mWpTq03/Pp1Pqb9zuC1GzXdomvfxfjbFpHd054z6r/t/qg3Cok7uoWLt38CwIv2hYbm6IgcTkUUcE/89zVXLQTkcqV05scRkMu8phnpUUAuIzJmrBMBuYxJmZGOBOQyImNGOjEH5Hg6ztLHc/xUTF8CwrimW7jWWxWgbhbVMnxdz0XEnSheMxWHLqaNKPfyNshgAgqQN+66hu4D2FVytx6Q6xWyQRCnVdTvRhQn38PRPy4Yzo3xjXvoDIqE7xaQS/oOi7G00gNya3v9kCYf1DXKOGI0hvpA7xPhQtuIQumHZEAFoQA3F322noAF5VgSV0cnAkDOjfap5YxoypETFCBnwNCFme0H9uN429f+nAtnO8AQCHLlWCZaB9Bwxtf3RNBYn2CsMBzakTvvnIP21bma6gil3suJpY2NJXaUyIYIf4FpRLbaIkJ5npt77Y4CuVhOSwxyLdXTD3LvYg4jFbAj/ImagCGmYDc6Zp/3mos5rvxC1xskaKNAEXNdEbozeZBz+nMLgA9VXxjoqB5/ScAlM/z3lM8XFt8s2u/qi4aIYudmLq8UkEv6j5VxDQXkjHOJNkhAzizHCMiZ5Q8BOXP8YQ7IRS6trMQTlI7I1aEAdRHdiyVcw4YNo/+NkggqiqZArh4PZkMhZjMSOVxMj4DE1nPtOey/mUEPYVmeDWcekAuFpiFKt149QDsgtx4gF65XVwcoLFJQKBG5ZO/TxCC3GBE5z04ydOwBOedB2Qa5TwBy3r1n83H+mQCQa4uHbAU2zuGCnANhzl44NFB0Z0OSu5zRt0cOTfTSOW7r/QwQFTCWA3K8OPe8A35JgZxnH5cblXJs5QifJyJnvUAf8RJGNcc5uN+LI52SQZBLXU/bVnufmR/kNDz5Do4UnuFljgEg5y5n9VyTMsiVY8lpnV5yehH+ppzpoDrTUOmLyCFSZx0G+DuhxYDENbFALu6y3GR/bTLYTkAug2LmuCsBuRwLnuxwAnLJKpWbdgJyudE52VEE5JJVKvvtTAU5tdeNQaxnZOStEsBWGgfkOCKnkp1g/Vava7zLMHlpHj+0RYNcZEQO1yFqJxG5VO69+CDHy+nO88OyenB2ImKxQU5H5NrBX9txkQM9vqWVQXuhYoHccXTT1z8+fvZH5JwoDi+RnONZlhhjLA1yDAdYWunsb2v0Lq3E+kAa5hMyYHmkahFe7mchOumCxyL0/SQ+DthPpi4LBLmgGn8JInJKc/bJC2FbEunJ0TU3khq9nFRDsQNsgDpoVMEwrZZlRoNcRNTMA9spReSUr5wEJ57Fn/b5iHsKS3FXYHlsxFLVCG8FRORsu9ReO4MS+AjIpfL3yqy2AnJm+cO1RkDOLMcIyJnlDwE5c/xhKsjpZCcavnhf21UoWN7lr9vpbeyvOs0PkD3xwBwQkXNB7iecjCFEPZDkwuo5DG1jg5z1hyL6Hr7Ffx9LMvlo3PUlHvIPSkQu6dvUATnfBa/gZ6yq40jNIETkoqIzDmD5InKWtdGXYZD79YFcUPSG4YCw785dFumBl7b3RD92R4Ccs9wuYNL2PCI/WUhvY6wxTpTHgUDPnC/GnJ+JAhZPNM7boQs4npMMb12+GYAL8ffIuVDJkOUeQeMClumcXs66CCDHwBhxpKZn9L5A/5h2pNRd9miDoDOme95rxCbsaJ2il1Zeii9iONunZy+kXkIbPnT01nfYkbe++Dtywv2I9z8+FI7G+X0Rd48c7ymcm/RvRy4aCsjlQuXsjCEglx1dW9yrgFyLJcxoBwJyGZWzxZ0JyLVYwox1EA/kpuOJkJcgztObx/J6hPfJ2dkqM1lJwM5u+U9tz1ObNt/Fw10v7K9br/fXZenoAW33DxpEXT/8MOkR2uKaj5Dh8eqVkQ+vSXeQ14a6ttfKrXoP1LEHy+jUyhhRDeyVCu1AzbNDCOKtJOqtHsB9D/1qLkXIZlpC46bOUHuwbl21h7atipdN0NM+ZS1SHQsDqOiNrzxBwnFbYqPdOQNRVLKThAOnoKfeU/Z5TYnqdBySBoUjqP5x6rFctYw272G/D7Q/1OfcJCPeS7Dfce0V1TRrxlVEeD95dkC2Utv3oZATtU1mbtxG34N6r2b7ZC+KaKeihk5kOa0esnPRUtiFnK30tAF/q7Mzwwu3VwE5Q30rIGeWYwTkzPKHgJw5/ogHcrxPbSdMXX+hPxygztxl3+pK0+6YTB/8upJ2uWUPsuWnJsBiF3yrnxogT4A/psGkyb4oRLaszF+/0dEjE2t3JdKH0/M/EFQ2IdGFLfq8HCUK6mhGlu+RdzC3MRF25jglf0R2yhYJlvzFdhZOfxQw+Q6y1/J78AfHCCen+DclexZJz8kqICCXrFI5bicgl2PBEwwnIGeWPwTkzPFHPJCj2loKTZpEn3Yn6noqNegwZ4bJW8J/t//Wpo3KlJnNY76dXSHVb8953+BkGHYqyw/p2Zx78n3Xq6jdK3d7IznJXy0tc6AAoqCv77UjojkYLv9DlMMElUbFqOMQIO4bsMiyGvFfLvQgRyEpICBnqLcE5MxyjICcWf4QkDPHH3FBDmZuBjw8jn8/KEVxrGc/M8fwArWE9ZwK279K85tzXu7KCys/sVbgv/5EGgUqipgtCogCaSnACWX4r8DTeEk0Li0J836RgFzeXRBsgICcWY4RkDPLHwJy5vgjEcixpaoUAP79Ll6cSGDgli1EEyeaMwnTLbn/CnpndSOSNhBx+okdLYxwckRvM/rh2MAdePVs4P/KIQqIAq1CgfJ31N8Tjg9iKymtxsuEfcytQvssTFJALguiZqJLAblMqJi5PgTkMqdlJnoSkMuEipnpIxmQ45FO9whReQMhUx/RvswM3Wp64TpjRfbrf6YZifOLxcss1+DkG3jBLXKIAqJAK1LgBsyV9yg+lmLCpFYkUcFMVUDOUFcJyJnlGAE5s/whIGeOP5IFOXMsFktEAVFAFBAFRIELQwEBOUP9KCBnlmME5Mzyh4CcOf4QkDPHF2KJKCAKiAKiQOtSQEDOUH8LyJnlGAE5s/whIGeOPwTkzPGFWCIKiAKigCjQuhQQkDPU3wJyZjlGQM4sfwjImeMPATlzfCGWiAKigCggCrQuBQTkDPW3gJxZjhGQM8sfAnLm+ENAzhxfiCWigCggCogCrUsBATlD/S0gZ5ZjBOTM8oeAnDn+EJAzxxdiiSggCogCokDrUkBAzlB/C8iZ5RgBObP8ISBnjj9SATkuZs3lB/glR/IKdENTThX+PbxGZaj8wOnBg2nz/v20E31+mLwp0lIUEAUuAAX47wm/pAh44TtTQM5QHwrImeUYATmz/CEgZ44/kgE5rlk2FiYX4zXaNp3rosmRnAKfotmbeHHdN9ZtvdWI/3ZO7uKAVk6B9gfsh7nBafckF4oCokChKcB/S/jYhtduvGrxytQXRIWmxYVgr4CcoV4UkDPLMQJyZvlDQM4cfyQCOYY4/uaXIz/ysNByv5VBz43o5pM0I3N8/Qe4/o3SLkTPbmm5QdKDKCAKFKwCu0JF9B1YfwCvgWn+TSnYyV8ghgvIGepIATmzHCMgZ5Y/BOTM8UcikGsLcHhHIC6jDpsATYehx0dTfPA6hOu+geushjuI/mFBRm2SzkQBUaAwFdgMmJsP00+l+PekMGd74VktIGeoTwXkzHKMgJxZ/hCQM8cf8UCO98Rthanrc/WAcP8VtHbEU644Px0+gz69zv4RnzU/+xl1NEe6tC3h/W3dsL/NSlHX6fAHH+stZ3FV2ibk98IjWGDaH3PoVUTdToZNOd3uHtp5dgaNIj3P7BxFVDpjHq1eNyU73Wey16eKKFS1iax9vMsyH0eQVkU0E+55zWfOaboF9/PifBipxzwMrQasgA38FUnrO74HmHsM0/5Oin9TWp9S5s1YQM48nyiLBOTMcoyAnFn+EJAzxx/xQG4+wIE5al6OHg6OYbx+tJxun9WbZl5VTGuWEO2gM3g4O08/D11Mj8AOyxzpWmQJRzq/UssjP0u6nx64ph6texY0yHngAA+fQchWYr1Ea+nypHVJqSHD0cKraaf1XJaBMSWrghsrfabi/p+bgc7S6QLjs4Os3+L37gq7gyL6Hs7tiOpuKjSdkz9NlVbtoNX2dCZa8Ncsxfw/xyxW5OhvdcELZtAEBOQMcobXFAE5sxwjIGeWPwTkzPFHPJAbgqe4+3IOcoA1h9YOh/AtOz/I1gDkQvRI47/TlsefpElN68ha20aJeKShifqHSij0cK0+h8hd7UXjItoQNdOBmwbQwiEv0aOrhrsJW7gtRwAjIn85cs33MJ+lGCuVfYf8e2MVNMRhwuqB+zjm8R/2+z54/4ILCQocXvyYrG8B5gcQrcPDOW14n6y7kDIGEbyVWyup643zaDoiQARw0IBRT7tCZYQFp8RRPevsTLu/ctoQqlNtj/54O76Q2EPbVt1ItWXTaOKKe2NcV0+H0Ff7HxPNWQVgcfsrUteNr9hAPXmcwZ5IGeBwyEKifZ6I4knM82/ooxx9rPPZ9A5sGuOdF1LgfH92Db36fA9l9zlce9fn22jzZbd6QE5HwtbRQLrz85W0uVN7IobSv79C1sOX4KpyaFAHTX4XDVOIVkVpiXNrd1fT2Jkz8eWJR2No2YD5X9upK32x4TTReHQdAXLhX5AK2FlGGN/i8e0DPhqCKOs+aL7Teti2JQXbD9+s7BoIu0bbc/0FdFA2Nu4hq3MTBiqiJ6CFiv85fogAuSJah89nqN+VgLZ8XaCdOfrlz8IwDHKcTfgNAbksqJvdLgXksqtv2r0LyKUtXVYuFJDLiqxpdyogl7Z0Gb8wEcj9BiPmahO9jsiFQa4BP/dArkcLD+wK5PBw+Hz1NHoLD3lAOZxHezywHcODMk1/nqyqturB9/nqcfRntFlsR/MqEc0rxQNf1YdTqASf/x5g2F/1vZxeqzlIjxdX0S7PuBkXOaDD1gly9bQZkDAFQK4eyNXDtwfknAgdg7wdqrsGbz9i/aw1tDs0l0baWnLOT36kZ8j4JHQn9cLb7sOJGvbyyYW4N+ppAsCGlwa7fXB0q3EjhRAI5ajf46EfBlxXoaNQEf0BVhrHq+v4uAGvffzmGgDnhN4UelKfd2w6Cfv/G/o4wSevxusYvxkBm56g+ZjjM94+GGoX9VV9OJHICWizlc8TzquIHGwO0MOCHuGInRM9w+8LXWurxP/Y5706QEt9rT7CGv8KWv5IaRJxJAtyD2Es1gJzboM5n1dzfjc12z128Vc1521DHG1Zo0b4jf3q+sHVChG5inOIuPJFVRi7EfdAWXRbW+9IO5/wz7qgfuakJ4/CYgG5gnKbMjYuyHG2sZfZsYU3L2Mt5jTPnH578qBB1PXD2NV7BOTMcqGAnFn+EJAzxx/mgZxXm1uo64Ft2CfXTArGKgBvP8HnvRCpO4mHaKs33o6gH1i7qVJdVoXYW4naR3cO//9rj+iChc8mhUqptt1ZRGrwrb46KnDdJjqJz1Tw7yn0t1ADI//t5qNNGx3xy9bROkGuiIpBDx2cpZOBSysR6bKmhKNmaikkvIAo3e67egPkNBBxBEqDGu6Dnr1p8kFEsDotIx3tAhw2ntDgZUPIuxhrpA/k1vb6YfR1Fq5ThOONGoYBkIGSQUkD2cdUTYgcqi8bGJ5saBq1m/rsGgmQw/1lnQmffwVvVYTLhi0HZBdhzHgghzynXuBdh+tmciQMnSUDcm4E0qOlBS3Vqkk7aqXmfByvvlprq/iIDdphDf2/C1EROcefy2DbrOfowCeP0fXDhqVmuwI5G+7t/jTg/tBe5qlh8zhHHo/cTBNAoVtdLRwLHX/U00mAXMy2XjuH8sLEwj0E5ArXd4Egxxupv4uN1PsxL978yEVI7S+SCnemhljO6Mbha/5GbTVesfaOCMgZ4jDbDAE5s/whIGeOP8wDOc/SSlem5sg9ch6QC4WW0ZdYwqWSoOD8ZX/tSl8b1IcW7XoPETkGuaFEf55Ak27fSrV7GeQqAXD30rfx4Pqfo75FN7TXe3/qPruXrDc2UOl/70mVvx5J91kzbDjMjq9aK8gxeG+2lukld/6InCt1EbXFx040Rp12Qc55SMcyQwU0u+kwEM0bgyIGAWBUGFRwvbPfzBORW4zITtR1DshFwIwX5PR+MQfk7gDIKZi0AD6433QEaA8suBEW2DAIwFPzsaNz7h5AG1Ru+wrJQ9rGicgpkAvvleNlm73454jzsSNyQVpqkHOg2LmWdcLL+hX67o+QJ857YNj/mxC9tFIvcXVqTRIi3hY9lJrtCuRsu2x9ImATtpUD5PjZNnw4UOs5pQD+GVoKsI9qax2OttO6MTu/6DnqVUAuR0JnYZhokKutpdCkSXEhIwt2tLouHViehJkHpZAWkDPrlhCQM8sfAnLm+OPCATk7atcEEOQ8GQr2GOQ+p1t/fAn2RmHdHWMcQg+liIhMxQPj5dhPoiJ5R9D2Om/ELvv+aa0gFx2R8+6Rs3WPADwbMlyQc9o7SwY34SJkoORljoedKJI3IqejXxo6wkDWBqHY8wwt/utSBLndADkV6VMJSWybdt9AfUbuA8jZ0FmL8/yw4CwZ/eoFstr0seES0LIIyw/diJwdeWI4RN8K4BSwoZaj2v/2vg2LHE0eGYYkF7p8SytjaBkIcscxSF+/Jmy3N9lJ+HcjOCKHfYtWcRgC7Shk0rYnBDmM74FN1wYVndTJTjRkY3ltI5bJKhDVYBrZ1menipL+FY0LM+ulgFz2/2Zna4QokOP/OXDx1lTr02TLwAu6XxuaD2KS/j0kAnJmeV5Azix/CMiZ448LB+SwFUntsbuFJg7frgqYN+zViSFuRrKEUvt87d412CM3h/6rWno5EG0PIVI3EA+eBzUA5uhonSBXj6WPZTQm1h45R3tnr1WELxZiGWMFInDeox3gZhv2zt0MSPMda45T9dy+vvaRe+QGISIXdZ0DM0lG5KwKwJbak+UcDHWnqC8iQWqPnHtoqHsHkMHPaOHTiNrNwV64qPSdkXvkJuBz3hfmHCqq1wnQ9xffvJ1lmwm0tKBlVESOAbPtPdGZRJMFuSi/jUD0+12al4rtyYKcb9of4OchTtZKB5wB1ASg9h9OBDR83rt/kfdX8vrXwjoE5ArLX15rI0EOGbjarm6kr3KUtebATb1pbOXH4To/edbxwPvv09eHDs1pnaFwXZ/IpNgCcnm+GXzDC8iZ5Q8BOXP8YRLIZUaVJuyT62z/f4DTYXCaBD6aqOZcZyp2tsmpc83Ievl36t/daZMZC5LppXWCHJRBtsBQ42tknemQQKYien1jCY2bOgMR0yK6ddUeWvr0jYhBAYgq5tLK71TSg8MB4OpAUYZeZSqj5YPDm+nYg2XUYSXRvwEgvo3Mka/cXUkjkelSXav2sjlH9HWnVgZkfUzo0Ho15k9/xvv0kE0S+/c0yB1Htsy+nvN2R5jP63vtubl9l2M/Vx09yNkqVR8BB/a4Rc4bbdBXbeU06rFidpzU/9FablvF0adYh6d9wrn7G+h5bN7j9Q/apG17kAHl0LvO1nUZ9lP2srOQptI2wE4V1fTfIykLkJcLBOTyIntGBo0AOU5uUo5uc5K1Rm0O5zngD7I1Lu5kDsGubzjLXTIybU8nyg69p2Idxvl/naUymR4nRn+ne4RoUAPRKR88C8jlyAFJDiMgl6RQOWomIJcjoZMY5sIDuSQmbUCTVgtyeEpZhwf9/kFp8hP4RScsSfZBuxxL7OrUfnb3QJTOmoOyB1k/wiCnyizIURAKNOD+eiAeSBs8CwE5g52TwLQIkFtqx+ZzsaxSLWG56DXq+Td8q+Fk/sKG8p3/8LK90dX5pvNl1D6ZhVTRx7EhvY/+ltSu3dOheIb77ahTC2jtv04kdb5pAtX+4hKaO3t9OOKH/vncmnML6CXsd+iIb1OPIZMZF5B98ewiKn6llmjiRC0Z2nJfuagPpGv7SETO5F8jATmzvCMgZ44/BOTy44vWC3KsN5c1T2MvEqI6k2fHiVgFudKuPReO3uXI3xh31yfpRPdyZJ8Mc0EpICBXuO7ME8hVIIVwGW0EvLyt9uTpiJiCuxvx/g8QlDePX8PfnLXTIAfo+/LMODql9jAspy0LP6AVKKy5S6WTtmsBoc7PpklTaMoSdsgK2rSkjBYs4TXW2NSr+sMyimVPUtXi8UgwrVNFcxRyDPr76NS99JseXegRGGLhXMiuN/Q8aglluz6QgJz5v0ACcmb5SEDOHH8IyOXHF60b5PKjuYwqClyoCgjIFa5n8wNyKhuYvaRSvddQFQxyNmzZwBYKTUNa5/U6U5jbz23Y6DsNG9DXI5pXCUgsVZDIMS6VYUwty2zG/oaOOoKnllPa7RW0ncH45+301L+l1SgOqq/hQaooNGsmWWuzVxNIQM78XyABObN8JCBnjj/yAXK8JP1fllcrEX6z9zp7hYU5muTCEgE5r8ox9mRh/9eBv9TT9VE1vsrpwPsVvvN631RSe9ywhK6bPfzZTl3piz6rydrnnMmF971jlKNIeh297tTWixi+3K6Lxyd14p6Y++d8ZvMywR5OUplcTynmeHZ5ghjJU4Iv0/sYD7zqvw/0vsSrV74Zfdn9SBH67JbI84jmHhgbdC8ZI06LDBGQa5F8eb04LyC3AfA0HdPuhD+AfHzxRSfsIz9KRzsHReQ8IDeeo2qemj+H8fOANYi4zaWePpBz0kKHQS6Eoq6o9YO6P2PPvocsY1MBfjU0OgDkpgLk3LTSOXCPgFwORG7hEAJyLRQww5cLyGVY0BZ0l3uQs2vCYdXFloX19AVWZpQg2xxVIP0/F/s28MjGPm8BOe3oqCyOKKZt7dyJfXRlnoyTOjulqj3Hh0qp79RA44cR/ByRvXEPvtyNncxD12HzH+E6bbm9BYvoG5jWIX+2SZQycDJVTkTljA/3En3EhiW5z48f7Ed3wJ7A5uzu0VuKcR5Lehy7PINTfiGh0E6JCaehfR/U3qzLOTiHume48Dof4XIVqqg59mRG7ZVMCSQTGmlEAwE5I9yQlhF5ALkQAmkj6AdY7qiiajh0yuczdJQ64F+7mKsnUqeWP6qInF6S6UKWgjCu8zMsKiLnBzkFiU7fuMqN4MWKyKnxYJyK3nFRTtRsydIhIJclYTPYrYBcBsXMQFcCchkQMUNd5APkKrG3Obxqwvk7PRX7qGv0Pmp7j/PsuumRqymwv/rWttvonhXD9eqMwH3ZyECJ0jA0sQuyHq6j27Y/hz7e9rx3VmfU0YGb7qaFQ17yRASr6Pz5mXSwqI/nfFX0Pu8MaC8gF/DQ7RSAbgSrqfpfXNsLBaIVv/H/x/t6CoWHQS6inpndh6pb9hQe+Ks2RUXb3ILaqvYbDvsab6HuITi9D1828PMJ7+k7hGeX9siAOWcV0Y5295B1lgshIGNk2TQajy8jeuKn09ge4kT2zqFPrly4zxNJ43Orkc2xKzJoTsd5sh5Xhcu578ao5C/RBb51AXRA6p9upLW7q2kgto6Mtvv/BUps9OMvRBrxeecm4rHu4sQdp25Vbceibb8N+8m6axs1YLxBbO8yFNJ++BKtAfb0DTnJ9t4CaH44OAMm+ozQBVEunfRuKJVYj9Ja8tbv0NG3O3gcj17Kl8mCXFANPNwH1Sh2N9NJeuMtGm6/V/Nxyke49fW4ltwGO5soF3C/W0U7VxVochP/nyABuQz8Uc5TF7kHORe+hoanrGBpKp1F0UquyzN27FW07+xn1LiLCy7aSy6xj+331qKo2j1dDxxEMhMPmNlLK6MictfzEs6BNO/uIvrN0T+gb+ppZPUAACAASURBVNQGafclWd3a4/xULDkooW/iD5naIwd7LlvSlb42qI9u14RverNYH0hALk93fwrDCsilIFYOmgrI5UDkJIcwAuTwd38SltTXunucp9Lz1ePoLTx8rlNL5y+yvzB8Dnun78U+al33LdYqkJ/j/1OP0HP0Ws1OWlFcRTvsPdMvor8dah93Ecaro1o8yDp7rr/E/6v0Hu5bsBd7Pu3EXuzRKivzqYh93go0M3AIyLGIOoPlDMteHqcexFHUmc7pms/2eQ0wnmyV/oic/QC/aQnR23g94xToVueHop+KCI9pkGuHe+mcOj8V15znAtJcP8yBgavxwTH1Kc6jILcdDOwOOmtAdAxFDVBwGkWoGThxoGIZIAgHFxj/iAt540AfndEHF8FgsDyCeneqDp57noubn9B9R8GNJxoFENp5doYvIqnH5a8lztuz4yIaPBYDqa6R5xQVtxu0O0vV59orG1x7sf3EWlSiCpKzXW1g73lvtNO+NFCXntAF8McgR9b/hN+ucFqjBIGOeob1Yn1Ruy4VkONSFU8yfH6Knmw9EH2jXSPxM4M9oo0RoNY/3M4BOec6mkMf0P9SIKqjmn1pCGzZl3Q00Z2akW8E5Ix0S1JG5R7kEprl2cvmaauyUrq1eprxredF1KZNqvvWvH03I2dlR/3tLb59bUa2Sv//YLkEQOpjJJxgVAMBudQ1y/UVAnK5Vjz+eAJy5viDQe4n88to6Y6fRRm1FpGD3+DswIzWJm3G3mdfRI7qAFaIbmBPz+ou36RSZ0WFvfripIWIh7v8HgYhMlfzy89oRPvg5fzhJfm8dA8rQuwkXA1434NXdnC/NiByLbkNsGc6xjy6UK8uYXDEEz0eOvVWgPfcVSWZ8xuDXBG6m1DPGRyTOwYNG+bCTXJXFEqrIlqKh+rHnIdsFPIOEUPOC2oCuuyAp1BzDJALzxZwguhdrCN4aeVQbPN4n/4b7DhBiKzx0szaWXoJH2/Yd6OCgAc1fri4uI4cXoslfEWASMDTn3rTyi90TTtCVEpdiuV81dj24QKpXTy7Dfo+78DNynvo2HGiM/c4e7kAsPhsnXcivO8NvyOuPhHRRBQIVwT8K1oR+lEEyGkotmFIgczvYBvm550eR+hmPUcHPnksav+hrovn12UN3YEC3lsdqPLaCQibfJAzjC6z9/nFg9YE96kbadM+6slGMzAf5qWT/silf2llEfzCcO85ZGllofxhaBV2GghyrUL3iEkKyJnvcwE5s3wkIGeOPxjkFq3BerGA48pd7+UI5PDtfegMHtIWEe9xdpJdId3V/8/eu4BJVZ3pwl/RBx4viRfAgQFRInIZBRkc+OXAiLRx8GhkJKAMCHI1KESjoR+8TDxqE30geLoVb/wmSNNEgoHQkeiYgyOxo4GDwTQRIRgEgsfAD6HtjiQ2Bgb3/37rsu9Vtat6V/UuWMunpHvX2uvyrlXV693vdxHBr1aLw64MquUu6QJsCUVOBcxyTPuhpCgitwfHV1beRo50Wtv+7Hp6B5YfXhP+whK5Dehe+5pH2RFHjjSefEROERqPeZ5W5qzXBSxSkQPJsJQZoIfIaeXKr9BIchVWAqaVmgxshk41VOhq3qKJnFZ5AkTuJ0KNsoncPChyrHD5yIMkcvDnsuDPFULkni6bRneJe2DN9PvvU+omt1mo9vWCSSm94/gIuk0LbVLjJ3LKDNXG2jc0kDzhU2dfXoQxDnFV8vuqqbdAGG8EYQwjch+iPS/6+RC5ShD8eknwEflcJpGvVOaRar1dc7YoRJFzm9oCtYC6G+WDVwJ1jCJXAouUZoiGyCVg7QyRS8AiZBmCIXLJWiND5JK1HulGMxDEpxiKnPSzlpGQRTAtTxqbSSB4K2mwyzdbEDJbQQv6ZWcjcl5FDoEm0N4nIH5/L8ah2iuCIjcfwA/LQe2Uf2tCovSVxnYKGaWPhOkatrmc9JHrKVQyfXBHpUxErg5tChUtByKn7wGRuxFEbh37obEiJ3zALsL+2ytVoIhErop6QA1TxNOei1bk0hM5q53Ll18HcHHNQxLQVhA5TXq0GafAUfkhMnm0JrpMFd34VSLwSn0Al43WUloEc9EgkVPrqlUz29ctnRlpuhOuNLX1BLpBVQ8Z85H+QLATD9HV92p1lwPBfKVkPz3ugRsiV7rLaIhcAtbOELkELIIhcslfBNcIDZErjeUqFJF7DKaMD3ogWAof6plSEUDO0F69if6MCMXtoAg2wq/HOoYgDsI/ux+NHfyBiFp8BwKjsAklX/P7ZWclclY90tWUYwyj4Hf0OnKNctCtQcoPL0jkdP5T9vN2VIvWraHxkQN+oQoRfOSgxMnDui5Zola6g1yIW5Si5DvE69bCTSvVPYEImHz9XmmyGJHIWSByyqXOtUlWI0jH+IyKnIfIYU/Oh1mmUKPchc0ihempUtlyUeTQTiBKKPuI3Yn2PAqiKyKo7jsUlyEkA82geFIdNOB6hbzuLvvwS0+8mEieM01GGmWiCvNMt0+kvkUqnL7C5HAh8I0ctbJcPQhwtRMIolPYyJ7+KRTid0PkCoFqcdosLpFDhLDzGl9GcBJnco0DBtB/NrwvI4i1qhQ+31urhpfhZkPkCoVsfO0aRS4+LONoyRC5OFAsfBuFIXLRxh3u4xzmXx3ulx2tl2Z4yJ0b8K8Ou9fr5x2t9Uy1DJGLgCEUscVXsq8ZgttkLTKC5KqHp7hyrbEyJIlhbkXmpLvvu+zj1SG3W3VtjH1Zp1qaMeUCoezdPDPPtpBLb81KogNfi4pDhOGizbolk6hr1UxXdMpKBCippzWIqpke7zBcJO5jq27zdSzzvy1eJ30FOedb+hx/+axTDnkDeWTw2Vu2QK2HHimTYBPsJMKGMVUKiUBxiZx4+slhW88XcxK+B+pJZqsnKdIVyKeipVYMkUv+ihkil6w1MkQuWeuRbjRtSeRKA6H8R2mIXP7YRb7TE/Uw8l2mYrERaJN18kVMLfacY+7PKHIxA1rE5tqMyIWSOEQSW3bFE3Tf4ClStfNFk5RPNN+jVcdH0r/0SNGk8Vuc/D2ayM25RrRx+sQpSuWTeX2aBg6kM95/n86AKlj3vS/R88fvceX+QZ6Srin62aJap2+xCGF5guJfHUPk4sc07hYNkYsb0da1Z4hc6/Ar1t2GyBUOaUPkCoetadkgcKohYIhc6a54GxC5BnqLLocSJx3TdZHRwBYhb89OehR5ezbBRVlGBnM7ojfQQdzblZOVDFhINe+Pp+kI4fsr+DoMF0QueF06n8OsYsB8sqaPh+Mxfl7wuJ37x8lTJ3MG3Ym+9zajz3PC8wTFlQPIvWX4UDr71tmBXbTkh0uAEYe7MqWtETBErq1XwNu/IXLJWo90ozFErnDrZIhc4bA1LRsETjUEDJEr3RVvAyIHsJCcstvxnXSgGdGXRKLtaoSOXo3ITvidfxUJwuHAWg0HVv4XIaPtXD5b2DzTMaG0r+9nIqfJYQtCTp8pQlDvEURO5/Vx+UKIPiaBBL5I+zjKmYhoxRGfkLeFPR6EGahzn84TZH07/sXmQ2m6Yohc/Hjn06IhcvmgVrh7DJErHLZxtmyIXJxoetsyRK5w2JqWDQKnGgKGyJXuircBkVMkTBCl55EsdRZoE8gWuAxHGbusQyeBZv0nt5G17WZEBkvRl+A8e8+QXwnSNdxDsMiJEobYvo6PXAvuQ1Qzm8g5UcTGoZ969DPy2G9E5DKh5lENLUdiy3notxFRyO6w1tM8QQCDeYLcgVriWnZjWhkXkoVrxxC5wmGbT8uGyOWDWvHvKQ6Ra6EdV/Wl+y5+nP7DGk/WsnZyoirpd6RAWnbdHINm5dJHzPCfGkTOldAaD4CtY04cypjhzLG5BuRNq6DhOSWGlsE7dryqk3XrLhtEII+LFvvTQpTTz1+aTtdNmOIdGwKN7PiLv42w4ZfjHES0x/opLSPxxFwW9ifr5M4vl+PUw6pz0I+V28m65bDn3UO43l9dOXZWZzqypD5QJ4beY5iXDHzyxb83Cfcdp1TSjq3VvuTmeDdtEB13/QakJamgfiWS7sMQudh2YtEbagMi5w92wqpXjUjaeg6I1xKGAOGjU5fIkNFsctmHvwCObJVBUgSRc8wyRc4g5AOy/ld2IidzDblDQ0tFrhOuL1Z9yzoYE53uUuScPEFxhY52r7QhckXf9zl3aIhczpAV9AZD5AoKb2yNF57IVdM1OCxtQLLfJ9/+iI4OmU0PqAeEf8Z3eXdhJp99Ogd0XST0Th1w/kZlu9O+7xzcl6rF3yjfoTtbA614/+QncjpHHCFlBNGb7yJFGfCa7icmrcDQfet8kI6HI0cgVGPT+dSyjsGZi6yq0iHUXR0aBj8Q4n8YrJU2bkRKhYr0KRUCY0gzRpFuoAZ7tWfWUUet8A7aHKoTlbtuCg3/TzoHW9TWM9VTc0RicQuJxfOaV5q0CDLXoKuI9Aj3IGl7vTelgTttgic/oU7VoHIKxjHdArZhiFwBwS1w021K5Nikchy+mOpAxI7NTVEHO8cP/Niad8o/wLvwB7IvchM0g9jx74LIca6CcpW/R5E6T9TKNIqcqNMP/mjl9OM9v6amTdvwffoZ7TneQfjRyfxCuu/wPEGFWA9D5AqBarxtGiIXL56tbc0QudYiWJz7C07ktBk+LDtkaYEZ/pk0Ag/mLAS22vh3L8PiQpnU39OJri1bL4NcqcBadlAsXVf8jdBErh6KyAr6/46NdAXPqhfBtiairVVPfkITm8dQC/poj79LHeCv3XnHKjr8QR21jB1rpySIO+2AXrmTnsipg/RG6xcqxH05SDvRBuRBO4Y8aLd8qsPxl9MNM1fRqy8cEApIh28RzXoK9TIpeGh7IIDcRlUgNJerxN2M7CAQxYe8ChZcOVh9uxHvNtpt5kjk7ITWy8XZRXpT7ENeuJ4gZuw+0kclKUdaNPiXBHPO4XoTrnfEbYEcZtOw5+vpKRsPvUPSjJGTlP8Nycbv/5LvSyBsnlJVCsV0F9TSvkiQDUxqjy938tu5WpVETiU25+s6cbrKp3cc74OjYx360U2fLnZSNeD6eYz3AK0cynE06b3Ac+gCBXBSf0W2kIy82/cpdZeaF1THgQe43VFIBn6/K0VC8HtvDPpaF0i+zmdNuUaW9QcngfiX4e4jcteBONLFrsTit1MZ6n8hmnfn0JNrUKiHD3F+ixsiFyeaxW2ruEQu69xaaPehv0HaPtepKYicNsHkD5f2XfsCf57PiJS/x9utO2dQi6uNZvRN3r7FjdHzBGWdXpoKhsjli1zx7jNErnhYR+nJELkoKLV9nYITOZy2xOEeB3Kafo9jVompC+uKISB0wn9aBrla8MBoKHbuoFjyb4tI2G3XZSL3Ch4yzqE6HCRXjxtP9zxyBf0rfLiXCKLHDxIX0o+OzaUrOkgrj2MYBxM5mr6S9tSUBYJ0FSItzklP5NzJvu0DvdzTkiDwOu0mUorKARAgeFiI0gXs4BAUPHKTCP1x0EoLtgHt5YsTQAJewrryz0hfZH0HKypdPLjo5N9Om6woVUuyFVWR84THVwQLKhttGopGJFmgZlwXRO0HVAt1aYo2yRPjRS47Ou5Jei0TnjMJvJ0GYizbAmpiJkUOc8Z97pJxngFMRysySsiiKJXSMKwDRA6keAwI2TpW76DhieXCOpyLdeA2BGlPQaXEz53xahTthuAtMJlL70EMYEIO6o72QOR4LedhLTk5Odpth3a/8BArz5Tt9b1bk2C95zhYg8gwDnxJk+wLEbfhI7phOz806Io3ddJyRcS5NZ8ix3UGYr7bdCL4YPeJuWKIXGKWIueBJIzI+caPP5rn4cu10TaH5A8KEzltHpnzfBN5gyFyiVwWz6AMkUvWGhkil6z1SDeawhM57rmG1lTOoCcfwblYDGQpyNlMHzlTlhviweACvH8/HgLyQbe7MK8X0Y09RO58pK35gtq1Y3+7GpC6GVTHZprC9FIG4OJik8Uf4XpvdV09fPQE6fp1/Ot10hM5hgzKS5+5RB/a8EnF7MzU1zMQOUWMxKHaT1gqqSfUq48ISo/1VyhEM6RpIw7sN6ZuB8FQ97qXCyTs5p2s/i0QytcIwoHe+ig3Iqfbs831BiG421ZJPHuDkO4CIdVKnSYP+H0+3n+Y74UKaUGFTIm+l4vWpDljJjPF3Igc+86lnafGRWNKIEs2QdLkzKW8qfkGiZwm4aj7+9G0+IhM9k0gOwxFOxCoL1xKmENu8aabOCsiZxNqxgzrJ9ZbjA1lAfqYsZR27H846OMW+Dgqn0dxHWanTdNtUs3KmzaztDS5hhpZBjVSKHBuP8kAkYNiKQi3eugQ/9dAbC0aIhcblEVvKNlEDnpZUHULu1Z03GLt0BC5WOEsSGOGyBUE1rwbNUQub+iKemPhiVwNTB2nq5yhPDVtEq/S19jkTAXZcpEseXBOR+R20xocwG6Df/bll19O/7f+dZmWRhA5J2pyKJHDXy0OtuUJ0lUA1E96IucPoIHDcwqHZ4KacycoTFpFTqsfoUROmzX6FgQq2I1QwcKI3IdoB5qMq+RD5CpByuolKYM/p3X0dPygSaUmj2psbLZ3L/y9WFVym3pqZc56XYxFEoQgeXIGmhuRyzhPH6abQZaGapPQDGMJErlyEGkCkQaxmddDzdEZsU3kbKVTY4I6UYmcNUQGorGbXQTyOyTDJ9C1J+yALbpfnyIHEu3gBBXQmuhtN4TIpfMfLMBXQquaNESuVfC16c0JJ3Jtik3ROjdErmhQ592RIXJ5Q1eQGw2RKwissTdacCLnC37FExABsHQe0nyJXDccMl3pbJaAmM2JTORg1ucP0hU7sgST0hTNR7vDcsg1Kv/W+KMjFmBwcTTp8SvjBjXx2QxD2qFUoVUOpXLZppUZiVwlTPvqQdhUAAr2tZp7EUz6ltIimPQFiZw60GvVzB5TjoqcImEbERF7mCuEhmMeqc332kOpO65MRH3qoG16yeTidkWIdB2YZtJXfKjnQuSyzNOPqVC9YO4pSKUmZxEUOa1IgqxWgThX+HzTmMj1EERPrY8ym/UTvGq0U+E2uQwocopkeTCDAos8xN4SYh4pKmhyJ/GVZAy4z4PqxwTbHeDE3aBR5OL45Js2ckTAELkcAStEdUPkCoFqvG0aIhcvnq1tzRC51iJYnPvHgDhUoKsrcyAbuY2sBcTtTBC3fjRy5AV0DMrZJloE08l5PtPKXBW5HiIlzgUjR1HHv75Ob8HfqpHNy7rBvC1Mkfu1TKGzt72MthwI0pXbpCLVzocki781hxC24+/uidRH21bSBME7ChE4AqaV/uyr0Ygc2koTpVCSA/8hXR/0fUjsw+898WLlqGya47umiIqfLIdGb2RyuBAPDNi0UxeOTjkcvmNCjXMXSZok8dNFRb4k+JS5zRHt98PUR+1r5zc5zTLPADkGkfMvQNSoldqXzzYzdc8TJq803re2HGGzCX6RFd5okW4iB+XSoq1eHzm7WRl8RK6B3xQ1vUIro2C6CpO3jv8Y2Hewe5XBargEiFw5ciTDzzKqL2UbfuA4Uio8jenlgn1Xt+HkTvKu24TINXZN0c8W1XqgvW/wFCpEjraw9duxdSt9ZdCgPAKlFGY3GCJXGFzjbNUQuTjRbH1bhsi1HsNitMB5QBFsj6oKfjiQgbK6IVDWGTFOzPGTcwfJStdBM8w8z5Vmnv4gXTGOSTcV9ncjWzcO+SsRVY4nBNWs7o+TqO/kCq+vE64v61RLM6ZckG3aIe/LvGH3fVdHvuQq6KdiEo2tus1XX+Z/W7xO+nNxzreDi3UkTX/TTAy0UhV1WHIs6dv0tROWw4wJROTUCenGlcs8uY10efGizluurb2G+PnmmXo9wjBpQOCZClqDvMJ3D0bwIl1gcrtss38fVKJuvbeuUOdcpCvSMNPk8ot0Lyqp4CmloIIz0eUQLt8p+Hd1VPBMvagItAGRU6kBwP1fqOW4RLJkInIf4DDwDxHzAaWbuLuNFWjv/+icdVGRKmA9Q+QKCG5MTRsiFxOQMTVjiFxMQBa4Gf7evRR9nDiVDgdhQbpixnkNcH0Ubb6XI6534T4O6/5QqZhXxoxbwZvzRKcseG+qg0oodfVOlMtidVti/XBy8jsDKRoKO4ln0OddrSbYhR2jbr07xroBv/TL8TulOKMzvWRCoE2InO1vEEjU6nVcl/l33qOp2GArRNSkC/HUFddSiCh0f50INa3VvZn18IrA73ZBniDOGTStajCekNagjRmijc/Qxhl1dcgwOlZWRf6gZf97LHnuF+93xNO5pTSueYW33QLsJ0PkCgBqzE0aIhczoK1szhC5VgJYxNuZPHB5+pQ5IBQ2IJd4KAk8t484ny795cc5rmQzFKOOtFMc2EpIlctxlqa6QSARCNTBHgFnyaSX+ThjQ181ZpVJX6g042sTIscRvR6EL8GHH7PzqSwyd5xMEP7WDosOc3Qw4cz8n5KEIdLTgaPX0z8LP4RpRJNfoLeQr2cEQk2/tmojVU2soQ1ILG59W4WExvXVj9xG4x/pR09uuZsahswWbWw8ehq9CafmBzlhrHCUnwBl8Dr65dSpIHpH0d8XIuLYg+jjhaXl6nph0x0YIpf8T48hcslaI0PkkrUe2UbDgTm4PCMIBCdpMiUfBFiJG48bn8Nrdp44etswZC6fdTD3GARODgT+AN/BGeL75MTatY7AcXJM7pSZRdsROYIT+bBPBNCXdehE259dL33knkjR2Y90piNHKlSuH0LulhSNECQtBcdRlZiVb7SVtRbUOROkjgkXyFlqksgNJMLPQplb9eQndD4St8o2lGkncn88l7qJ5ijyx7Ft+b6NyD/0HoiefV0kgGVCeX7BNoUhcgWDNraGDZGLDcpYGjJELhYYi9rIEnyP34keOffSZUXtufQ748TInK+acdvQBcmSD7aODLMly1cPQdVDe+V4scJnikHAIHBqILAG08TXCG3Di7+Tn7Y+w//j9C4+NXBMyiw9RI7/0P5OLGrr/khknlwLpTet5DvrEVaZbXVZHTtNNOUmcqmUTubqhHjmPD8XIFoZjCCRZBLEq6+TsFWPxWnDIXITQOReYmVOVFpCE1Nz8PtP6FFcF4odXy40kQMZTY0bh7l6MWcn+7KyssD1pGycU20chsgla8UNkUvWeuQ2mmb6AOZ9pkRHoHMM5C20N/z9eRt/f5jQmWIQMAicOgjwA5x+iAZKxNZwppQyAh4it+OqHjTqrT/S/jYkcpx/pytMIMd+fj3VqQAn4UTOq7yJxKxKkXOrdqI9qG5vzfUrcha9yPmGOM/Qr7GEu9Feb6nI2aaXRSBymzCGh9DPG4bIJfpzZIhcspbHELlkrYcZjUHAIGAQMAgYBAwCxUfAQ+S4ez4gSUfoQqlyOmqlf7IIZlKNHD1zn4dJ5Sw6AyaWqblSfTsoSNoiJMq8F4kytSKnlD34so0duJwOIs/PJuTzEPcK37d+NHbwB1T37gS6w1pF81QbG63BDlEDeevVm+jPw/6J2m36DTWKHEDHpY9ckRQ59h0ZASgeMkSu+Ls/hx4NkcsBrCJUNUSuCCCbLgwCBgGDgEHAIGAQSDQCASLHjtCcKnR/wiRXGcEyKAGzCeLn7doJ614n5w9j3oLfT6N2eE+XTG246xVrxdiU9f9FZ2EhpI1pZbFWIVo/hshFw6lYtQyRKxbSph+DgEHAIGAQMAgYBJKKQIDI8UArQDCexL/1eF1ZMGUuqZAUflyNAwbQbdu30xYmcf37U+f33w90aohc4dchlx4MkcsFrcLXNUSu8BibHgwCBgGDgEHAIGAQSDYCoUSOh8y5av4N/3JUG45uU5bseZTM6DjyGOM5Ca+qDCTZELlkLakhcslaD0PkkrUeZjQGAYOAQcAgYBAwCBQfgbREzj0UVpBMiQeBzu+/hYayRwkyRC4evONqxRC5uJCMpx1D5OLB0bRiEDAIJAsBfohuikHAIHDqINA5jWVeVAQiEbmojZl68SFgiFx8WMbRkiFycaAYXxuGyMWHpWnJIGAQaFsEODL3zRgCUvuZHIttuxSmd4NA0RHgzz2/vorXG3OQmudZmWM7ajFELipSRa5niFyRAc/SnSFyyVoPQ+SStR5mNAYBg0B+CNwFEscJmuvwGma9mV8j5i6DgEGgtBH405P0WJd19CBmsRqvm3OIT2KIXEKX3hC5ZC2MIXLJWg9D5JK1HmY0BgGDQO4IcJTwR3Hbe4bA5Q6eucMgcBIi8HaqXKQks9auJRo7NtIMDZGLBFPxKxkiV3zMM/VoiFyy1sMQuWSthxmNQcAgkDsC/D22H7d1M0Qud/DMHQaBkxSB+SBzHE3jjYiqnCFyCd0Ihsgla2EMkUvWehgil6z1MKMxCBgEckNARwaPV40rp92HmujiH3Wksx/pTKM+XklrzurgDAwHxFT7aXTg2HL6FWKq/Nz6KS174uuUqllN1rbzIkyggTalKmi49ROyqFOE+kWqwvNauZ2sWw47HT5RTufNDfbfeNprZB09vUgD427K6ecvTafrJkzx9rm7nHb8pYEuHfSp9zrGvfsWrGGX9wJjbOxaTp0PZjK/LafHsK4P2utTTgvx+wNNvyXr3Ga010BvY/1G+LEqGhrlNGfKbHpuxXhXjw20F2Pq5RmTnMdvP11Pz5x9LXW1xx/XQCtp79319MW/+3GupB1bq4NrErpWDdTYtYJm71rv/YzFMcRvjqPUc01kGSIXB5pt14Yhcm2HfVjPhsglaz0MkUvWepjRGAQMArkhsARq3O9wy9OxqXGSZD2Bw+8aHH5l7MvncRjsowYGsqMCYraziPrg5w8svJ+6HXWvQL2FESag2jixnKx2F0aoX5wq74DIDaXNmMNRp8PuIHLI98Qxwj/0DGMp6vUqysC0mZzd2TCMceNGWoF1mmpfbE8brfU0jK6mnliTj+zrizDOIc44mazynU27ggAAIABJREFUbxmx12v8Me7dTXQWfv+Lex+o93vj/V14v+hF9e9/EKDnxvuR+tAB/N4dY9to/YIodTUNP30fWS1/iGe0Nia6OYWzHoO+LMjjhrRr5Q0uOxd4j45nfKqVMoznRETzSqPIxQp9fI0ZIhcflnG0ZIhcHCjG14YhcvFhaVoyCBgEio/AfHUSfCguIrcLh+S+VThQXo7Drzr0Y1rTWXWjc1yHelzEQXpn6iZqwkF5GA7KTOT20DvUi9oTrdyqlC1JDG9E9UaoeNYxph5eIncI/fTn9we4FD2MY2pfohU0Cn3Pln1DCQq25cc8rE4DchpXUIdvEc16imiDPQ7cq/vBtdrjy0GMfETObt5PXpRKxe/b4y6nuopJNLp6JXUQ1z4OGa8ci8CMKRWUs1QXnwromZLq90cgTRNBmtSaWE34EYEJSZAWkGjBzkBUqKcgakxehjVjTew6TMQdEm4TOe4/REmtRj8VpIiFax+IdsVac98/AJH7hlon15oD02Wba2nk1Km+veBdq+NodzAubaN+dNOni4Uixdee27KEOg+ZTZNxnaxHlWrbQIeAW5+zOtORlY1EzHcCim4DVaNOBT9Q+PI7knw+D0xm/UG0ews/nFB9+PsVI0Md1pM9+zDNR3oM6q6jV/A5+RJRMzAUOHMbah2sP4C8YQ/zQ5AmrE/atboQbSx31kat5wq0c7HeI2nGEOVyV4xhO5JOdz7Ig8tcDJHLhlAbvW+IXBsBn6bbqESOzWXYef0NvDicrCm5IXAZqrOj79NZTAoMkcsNV1PbIGAQSBYCsRM5PrSrw6+byJEiElK1koUVuS/44MrqTtk0pd4R9cYloV7hoL8/9Q2hinTByfnQu3yRyUG1JB6u+zrjVxzPUUCk1g6l1DjZBythbMzHRPLR1NdD2vIqGFqFCe3PMw4+hI+21UXdD+nDeWCZ3URuNY0BYViHOvy3ZpuoC8LQBBLFB3YuML3c//n1mefOaqQgSZmUmEoQgnqaoom6qN8enOG4wNtS1zVp2AxSN9RWUDVxw9isaXQX2nmGZuGu7zuKnGhvkFgTT1HkjYnbIhC3de77ynitmYB8ZOPnrLlWZ2Vr7r1g0cVOF5ocXoQ13ivXmPvajb6Eymhfl0RHr6tnjKGmuS6ySltw71/FLZKYggxTD7lPff1qcursw8zqGI/nbkUM6V70+TgvBl5iUaQiKNcW44c+GrZWgoCL0VXR0xjdXfhJPDCpg5ky738mym7MvCsU6TdD5CLBlOxKhsgla32iELkK/IXjr9RJeD3ZygSPyZp9sUbTjCeeHelZdMfhuOvx6peG0BkiV6w1Mf0YBAwChUAgXiKnfJ+0L5E6bHPAhBGCHCjl5xVcAH8KI3KSWLgUtx7T6OadrIQsgF9VPdpxEYB9qNoTL602wYwx1fQabQYBGqrJDfyKUswGmCh16xnS1nIvrGgjbX/cBpQSecCegEPySy5z0AZFzpTKElgsL5E7ACK3jxWT3VfTGIxPqDNNIIZuBSzTWLRpY1YipwdSTvNx6n+Yf2WifTsrb1rNIZIEey4oQTUogZ5DJcws60EjNIHBnC3MWZPoTGatfpUJ5OROmM8+A6J9J3rify1rqFAgx1bdJpVF9iXktbxFkqXAXnD3B9Vu8ZEldPfgFqxHhVL4fkK1UHiFisWmvIog2fvMp0oGFTkGpwGEtQLjUzhBjeNiE7nf9wj0a7ev94c992xESvl6ih5qsP7T1fqr+7R6infD1sqqxgMNj/9lCKFu5ZeGIXKtBDAJtxsil4RVcMaQjcixvwOCxSLKEOwmxLNIU1qDACfIzRSC1xC51qBr7jUIGATaGoG4idwSHILn+IicNuPjsBkDWQ1qghoEwhIkctpHziFyu8qmsTbhKiFETisYqpY8dPsK/Jt2He0Z0tZyT8UPcW/a/jxEYAKoyEsu9QpmnMIULgqRuxWkql6SKrs4RE6boWYcSy5ETis+UM6mWw9JM1OtzFmvixHosW8Gww4ocpuhGw6VuqGnZAz+4Va2sObcj8vEUpLvHlQGxvaFu1GbyAX3gscf0p6T62YobJLIKfNWVef6E0SvlaGeVqhsohUSLEeNsRLVeX2EKSholE3k5oFksnrmKp59LMim9sFTyloQOacOv2cHWPHd51HkFIautarFWtmk1TZ7VQ8bQvvM/aIhcrljlrg7DJFL1pJkInKNAwbQedthKz8HfyGf/SRZAy/h0fBBpwHjfzlElTNEroQX1gzdIGAQAKGQxllx+ciJwBp+ImeNVMoO94RDdhNMH6MQuX2o3hMvHRRDH2y1SZ5+36OUzUUqhWqYJGrTNpA6TLFam60F2lru2gU+PzZ/fz4iJxU5fcAuxxw5SEgEIvcOyIBQ3qTyIkmCn8jBPI6XJt3cFZHz+KIRq0df8e1qt3mkK1CHTWakj5wcu/aRc+YkxgCi/BbUtFW3zqYLfriEHhA9zAIpvE75HoZ/kBwzWp8vGFdns0aQLkdpcvnyCUUuM5GzMfP4mIUTOZtoebBUY3BHPa3DGNgkUQSDGaowkeqeJnJVMK20FUuFIbffQ+CnTDF1IBNhuslhY+Av6inaF88dBIgreNdK4hf0kdNrVYUPR0XADFYFmInpu80QuZiAbMtmDJFrS/SDfWcick70sexOqU7LNZSaMZWsZe2cS38aQ+c1vkyHL0nW3PVodmzdSl8ZNIjOyHt4LQjt+3uE9h0UuQUmbGEheA2RiwyhqWgQMAgkEIG4iZxUXdwmiMpETqsxTEA+hY9UFCKHulVl04Lq2j4A2RMvn2+dgFcdwr3R/CQpCFXqtD+fuFkfsH0LpfvzEzltZuipHiXYCYiK5M+eopUjqcjtVYE3fJUw3jthFilM/+zi8htkM0iOFKlLmHKlyKdU4XSJGLXSF2jGDp4SFixHr7nGzSYqiqSFjg1zARHPRuQ86p49h9VUS+MDipzAE/6RAcg9PnKaiLt82/T4oOZWQc31+Mh58EdgGvTrbR+mklZPmGmWY638/nJutdLVEBN7+IR62skUtbIOQWOUL6hsRa3hWbjOgVp8SnVwx2W/YohcdowSX8MQuWQtUSYiNxl/GTiy180Rc36ImeEe1pssyyE1e3GtF76WcmmmmCitwPj+Dwa3JO9O+Uu0O/3KepGGR2yjO/p8LyRykyFyEQE01QwCBoFEIhA7kePDegcdXTKOKcMeonsFLV4n/aH23l1BBxeriI128zJH2tkTbpWRHEVpQICLClqDCIZ3D0b0QnUte1tR+nPPS9bf8WpILraM05c5xO77rvT/q6voLn3FPCXdWLaGzI3/ngP7XEPkwzdt8ZVujCR2PCfpK+jK/xc6H/576pj95b7irvx28Ge89qkttP4pGWAka8HYl3WqpRlTLhA+djfPzDbeNLn0snbkq5C2X7mmnv0pVDu/8patwzTjTLNWwX1OUNrL6WET7CQb0KfG+4bIJWudMxG5gSAbP8Zw0wXmCJ1JFiK3+1AzXZyaTnXf+xKNa17hKHff7ER1p13nutaCBLB/Q/JQ5ZcHVa/l716GalZDq45Pp3+B3cGk8Vvop08NdilpNfjjtcHbbl0d0diOUAlHkHXDy9QydqxTH++J30WdsWI6jV1T9LNFtXTf4CkuBbGedlx1K80d+FNvfxjzsiueoOumTKVuqUk5EblrgNN89DfMx24NkUvW58OMpvQQWIPP1vMYNoe48PjKlN5Uij5itqMox4sfys/O88lb/EQO0SVxiIw/eXLR4S2xDn3RKYs1eg4w83im9AfFGkgy++HPwp06OmXRhlhON8xcRa++0LXVPRpFrtUQtn0Dhsi1/Rq4R1BcIgdlDg839yKO1WurttOdE2tobzOUukuh4h0YRS/UTqJfIs8L6B3UO1xLLaDPrPsF8RJBQuCUYM1lxQ9xegcspJr3x9N0RPr6lbWKhj+B63NlG39CGw8Ic5COtCR1Js1B3h9q/yodO96BOthqIRJzpo7StWi/F0wkHsShZY9QDpdibBudsZ1TTuPgRF634BWqeWA0+nseY5pFZwjCOgH9XafGrMYRcXkNkYsIlKlmEIiKAB7IjBk3Tnj1sJnYlca3NypyTj1g+DYwvBNXOH/VG3lgWAgiJxSdgF9Q7tMzdxgEDAJti4Ahcm2Lfyy9GyIXC4yxNVJsItc9dQX9q7VZmDEKk8shIGdbmBQtAkGaB9LWgv/OwH+ZiJxjuikIHtp4EW1MZqL3bYbGIWlDQNLmuK6zCeQdMIFk/7+UInuPgewxkXsR1yYLXwyOEoUQxEwhRb2juHaauLYSdSfDxnxsx3+kOtwjvAd3oU5fQ+Ri25SmIYNAHgiMwWeVSdx7eSpJeXR5Ut/CD5u4vJEjnoUhcic11GZyBoFTBgFD5E6CpTZELlmLWGwil3KZINpE7tctyLN2Js0ENJsIvgfVO0HIMhE5TawUGYSz9qNw1n4QytvIkRLf+vpJCPPbg95EMk8maTpciyB+7Y/Raqhz4wXBayFN5CyYbS5PzaB5uL8Rbd1hrad5QqVz2uW2O6+roE1nP2QTUs7I4p5XlBU2ilwUlEwdg0A0BNic8lFD4qKBlUMt/p7K1cwyPZFDIAxww9dU/zcjYuHkFTe7fNByGFguVTmfWA2CR2xjjbHAJa++0vgvwb9rx1/C/OQqEVyrGsG1PlWTqaQ1lfX2xA58ze+f5pszTBfPO+C91ggrGasaudOKhVOBl0E0n3Et5F5cwfXax+l/WeiJtXKvYO3XcP51VcqOqJx7GYfdgIfuFTgHCbCQ2mAr8vIdznCHymUXmhydyBC5Qu+RIrRviFwRQM6hi9iJnDBxVOaHahysfs1h5e3XXsKjidye/454Urdb0idN3P8aFLDrXaaVimzZppX8/nWi9ZWsouH6WzC5ZGXO+jVfrYY9dzfYc08ASUt5iBzsKYUZJ6t20mzTIXI7UXexCnoiA7SAMNLpLkWOQDhT1IQ8MO+BIM5hs1Ckz5FjNopcDtvOVDUIxIoAEw7O0XRljupRLIOA/y77/C778w30TsWE8Oi8qLPq3JdpIs5BpVT4++7fMOBcVM60RC40oiAa90R5LAA6ItKhDj2fY/tqzDKRdISiE3sjUXmUIlIruCuKCJkbkYOtIiT6owq64p+PO5eaaCtLEudAfb5nEf7W3SuTkkcce5T5tWmddOuuUwJgcMPw2qQGqXPttemYM3Te+r1SGZJrMNvnT0feRD14tPTeS/ShGKOMoBleVARNnZfQV8kQuaTusBzGZYhcDmAVoWrsRA7E6G2oayOgrHUcdia12/QbqFtLQZpmKnNJJyiIrcjtZ3LVHmpaOR2rfx1frOwjVw8SVk4P4mnZ2IHL6eC7+MK1iRyfhsrxJcx1FanbDeLVm+jPw/6JzkGfe0UbbrVNg1mNHEAVoHo6iqZTR/rI9aOxgz+gunehDDZDGTxHjQOqnOxPmXUK8tYec7yM/mv7R3TkyDXSVy/imhlFLiJQpppBIAICZfjsnsjDnytC0xmryAc++K5Y8DitPfwSVVWvdL4jhFJfi++hKdKMPMGRe9NPshlz6BiaKiXdPVmJnOtJvcxr5eT3WgiuInKKDdAKWjkCWE2i0cC1Gy432tfxyy6oKn1ZVRmF/GOzVf6xSjzcq6d7uC78mq37v6SSRl9Be+gdrEEmRaGcuP8FZ3WmI/veIOvce/C3rF4SrdPwd+bo6d4p2/272syJyKkDrycFASK8N2HIIieczMcmLVzZ5L+nK9m1i5im6zOdImXnslvunY+nHa1Y9aObPl2sIk06a9FBrMPHCEJTQf3dWHOLUH0GQvHbhnXZiIelMupnpcDyBsZ2Sb1QdI6jv1vsoB3pgmlIdYejZzfaylkDHqhWUIdvIfPcU0QbPIpaOdaf4CIxinbh73WfAIFvoDG4d52dK40HXC5xVTnheFyDcXUbPtd67nztOUQr/euQ2Xgw/BM6hnx1/joCTMx9OOa+Cfjshw//PpX8m6N/DhRtQvm0dA44ud+8+z3dpyqmveJuXqy3in6ZZq8cQJ3uuEcnMRe3qwcBNvHF76x1O59NQ+TSreJJc90QuWQtZfxETs9PRp3shqiT0fKzpamvI0vqZm2ftS+UL50XT95fn7drF7HPsLVoxrjJiZZpV2lGf8G5cH/t0F+uxRC5XBEz9Q0C6RFIl5exoJiFKvHqwRCO4MdwTOoAhaPzjlX0DgI6MZHbPqJH2ui37ki5Orpv6v46Edk3PJpuQWdnN54rtrkQOfehsAn+zOvQ62XiwMsF5KWppyQ17ut84F6IvGkq3xXHNW7Giw+W/dFGhbsukySRDFoWPOuTikIgjLqjPNh1Nl9Gbw3dlobIqcOqp00cipHkOrqq5YsKKQ7ICLtPx8V4tQooc7O5ws37lCZv7jbc6EmeHqLOqYP46kckJmxe17VqJg2DlYkcO5KSK8AcvNB/M+am1oKJbe3n1wvV0FkvqDTzpiPiJC5CvWkH9eYLRaRk7jMX/nbuOpWjTiW89iufmkh0AWs6hIe5JPKnISecGp9znROEjyaZ2NrVD12I68vV6vM/mUmGnUsO4z8X4+d9xSRmM7DhfcXlPbyYlPEc3XUkfu6542d3XkLUxxNmFKl6jgEmgf1uuRKsu0bNRHgFiPAUrQznuVfsJrUqqR+qiPb8e6USeNYDzwwJwdVe6oyGG0XjrvUxipxnBU+qXwyRS9ZyMpGrhwp2Fp6U+UvPI425px8o9PQEkUtuTrqo02cityFN5RdqOY/NlKhNmXoGgVMCgbPPTu/jdATfVVaRzSpt82sRCMlVxHdUA4jc5YLI0fSVtKemDEQOPy+YRAsQ/fYBZUlwCHW7wqzttVU76VFE8ZXWCCq6L5QGmvyCutcfTbd4S85ELuzvQ7oRdMNaTMSbD/nNEbVppdt3xr72A9qPxMVCwdh9NY0Bg1hHOJw3jXapU31UMuSPaTP1gJKnkiLDlyzFjINW49g+HgfPuTh830DDnriaNn0b7akDtiQJaQ7y6kB6EytEnz9HK7qsk+TpyyAvSIQcNK2U6pTI08Zqxlw0bZPGXM0Ty2HyRsI0WJiZwt875SIgUrV0JYD2ETmR3wu37oFC9SIUKv45o5lgmGml3S/GTiByrv4lUfSvhVIKhVnsL6DSzJDkEy9BZlgNnbGUdux/mC5ddbkkd2rd96K9XvBTvxN+6s9okpCGyLHCJXPPLVDqKBOzj1wqJYiPVhK/jHFjrfTcJQlMQ+TSJbaGyrr4iMwvSFDuxFww7ioocBV6DTLW0cnbnX12Ydk07EkomBZy2dUBJ34Agf73g/QH9rsFBTljad1ekU3rJPVb5JjSFv2wgtVg4OwySRW37MOrp/xBvC/y27k2ARO5xdNoL+odneb4ehrTyixLXApvGyKXrFXiJ79/O8CfyGC55fLLk0fk7KiWycIx19EwkeNnbxeMZH89pzCp3t7AX3pOQvVc2zb1DQInIwJMKPghxxUDBgSm1x/fVW1D5EIeKgk/XJjifQg/396spMzymVayyeUCXB8Kl9376QCi+IpgTMq/mJ/Wu6P7Cj9gfzTdIi4w4/4kzMquKbsiUq9rsRZcIhE5RSoOAIAfaDJj9+ImDz8BRp1sIlcFIqcVErs6J65+rCd1BKliJUUUVqcQYdjxkctM5LwThML0ZShMaYicMMdz35APkbP9BgeBgDwkzUO12mK9Llq3iZQ+5PuInHfMWRQnrizu9xMcfV0TOYeMSkKE35tAlHBQF0Tp3q9LcuYrTHg3ob7jYqB973zmebhPqnSZFbkPUaePpw8XkfOYpOpxuxKJh+LkM1FUbUv/M5CteeOD87KJnCJpYb6eqHMhyN5HmtToBwb70EHPkI8NFOFKPLgQ5N293zMRubj2ik245GcqfdFmqJqc6poKQyjWBMVaqI7tONK3uq7ZPK4/XTaN7hK3zcL3HT/eMcFOMgBeOm8ZIlc6a5VXQvDSmV6bjjSTaaUhcm26NKbzhCLAhOLEiROhpsy5mv/FMkWhvPFB9Hxvc/r6hzDpy0DkDlgP0D+DDLBf72Ud5IGq/pPb4HuEw6QrhyYHFvBH0+X0LcUquWIb3bRSP/F3E7Yf4HB5MVXjYF3hUYG8RG4/iFx3W6VCXeAIF2pCzCuqVqaFtkki+5m5/PCEWZ7f7EsRSu0LJMkIiOGXoY6FETkPGXKRA2HGqUkQP6r7ilom98++A7F9+FfX7YO29JGT5oJK9eAqHoJSTtfg/Q06YIxL4WQcQ0skIqeJ11blU4bDfNNQh8gRiJwbR9Gm8unTh3a/QqNUMKkgboG32BCssSJyCn+v8qlwVb5rDgFVipyfyCmiKX0L+5BUMoOEVe6LK6DaLlD+e47yVAXWJfYdEyoX4ZGKnByrvTd9dWpRxzaB1euAfXZj2TSoy0r9EurtRXT9ib30WhlWR5n4etoUj3j1volzr8i2bGIeJaiNVm+1ua69//ADiNyFIHIf6bkpVbUdPodfhH3G1FSMIlesb+4C9mOIXAHBjbnp4hO5Grr2WwPooacGe4OGIOLbtY8+SOtxPVLJGiGuBpYgU4XvSVsVQ+TaCnnTb6kikInIFf+7SpxohHJ2oBmHXI5eK4oyi+SIto0gelkUuYk4KJ2jIuUSAjalLjlG1rEOHiLHkSMD0XT95pwFWtRGqJ/9t2+ngzmYrWYlcp6xDsKBugoHavgXaUc21/vXn0C6AnHg9RI5C6llvPVl8I+AvxirdEfZVNEJqBJK5OCDdBf8gdiPyy58yL73G0qh8UXpC43ACfNHhNHy+pnJICVyrD5fo9A2pKLknUd7YLTeSdPgV5oCppJqrKHkiLdoFkUOPnJjMF7239JFqHDNIG9akYNyGIiiyFjfibl6lLo068JkS/gTeouXyGkTQF+lffi9J15+ImcN8UX75PvCopWq4CaeZpXpagBLrrQapHN8gHR6RwU1by0ewCi/Tfs9fmBwzjTxMMApUCktRAgN2e82CSrUXsE+D/V7S7dXYIbpjaDqmobP/1S+w3sPKrYhcr5Ne5L9aohc6Sxo0Q9HwrSI8fGaK4kUAnjKGTUqpPQ7yeBHJ0yfQp6kF3FpDJErItimq5MCgUxE7i585jtgllU5EI5YQMF3Cefk4ryTXQa/joAMiGDY/jOQMY6sq33djtEe+AM5USulaSWnP2kvxu2PlOu8z4GidGRMbzTdWEaftRH+7t2JWi/mgGv+CcErae/d9XTfd6VPVF1Fd+mDlrY0QF2ooDUw+7x7MCKH6gLVo+6PUfJjhTSMe5d1Yh/lC5w34ad17bgteJDo9ydy5fSCn961T4XVUc3wQZmJTku6YBbhY1l8ZZaccPZt5cCO6OBi+ATa9IiVJpepYdbV9lUAFln7x7zrlqhgKXa/lViX+uC6oO7P351O101w+X+H4e0ZRgMiQVbQ4nXSb23v3RW+ObYCN7VPLrv3aQQ34xAmqrjHhJ9vnsn7kb9dXCWsztnXUgq+gdt/PpsuvfuPyhdOKswcrMTZ27qtNPu94HslbCNk2yth49ftyPe8ey/9ZjOKXK4fxATWN0QugYuSZkhtQ+T4APQMDjmzZORJPKU++58Qstgd3v+bnWjZFU/Q6ROnuPIytdCOq/pS/14f0UEEFnATOY74Nmn8FppWNVjW9xC5GhwYNtDzx++JrvjFsISGyMUAomnilEIgE5FjrygOk8+ko18OpCM+AJvpiy/ODjH7bKZVx8/Nkj9ORuy9GBF+05d00XTjm4G/Jf7ePA8RfK21a4nGjo3cUf5ELnIXJVbRF3GwWKMHAU09vj1L8uZiDeYU6Ceg5rkC1ESe/sm/VwyRi7wZklvRELnkro1/ZG1D5BbRo0hM+qBOts3+Jgh1TJ+vhCL3Iv09fu+FKG9r574nczZxbrlvV9M4PJmtQ+6WGuRumS4mIvPIrUROu8kwjFj9SAWNf0TlhkMocKnIwc8CplGDZtxD/7xsIiLJqRxxRVgiQ+SKALLp4qRCIDORI1qD74bxmPFzeM1uEzJ38sCtsVyNKd2cI5aGyJ08+8DMJFcEpDIqVWWfipdrUydpfUPkToKFNUSudBaxbYjcawjbfT3MjY6CaH2BpOBn0m8REvonZ69AdDckhU1NojtA6ISzv44Oh/oc7tuyZKTHt3GgG8FErppNNZ+31T1pcol2u50uidzv4WfRV+Z5OnwJIR4mtSL/XG7raohcbngluTb7MD2KAb6BFwQMU3JEgPNQcdLlp7MQhmxEjrtlFemrWITt+Lkcr3/IcSynenVWNDlIf1e8OD1KPuqmIXKn+i4y8zcIpEfAELmTYHcYIlc6i8hEjgnTsByfyOY9Q+Ejh7DdFogZh+eufgC/L8Xvt+H3SYrISd8SYXa5C/X7Pk8HEdlLEDQVAED6lIDIdWPl7SIaOdKJ3lW/8VWyzkMwAeUjt/fuFN2K3DubkIiVU8VaFofRLXwxRK7wGBejhwrstWp0NAmvJ/v3p87vv1+Mbk+iPprpA5hEPosZrcGrPgN5iELkbGDq6ujtceMEoTMlOgL9UfXKOYho8ewn0W/y1YxE5Dh6Xw0CRGxLnxsw+gAaEPK+goZzQBREDkytZHPC/jRnymx6bgVrtDGVjGNGJEQEeFjBXSH/n3WMU2WXQnH5+bmHC3+2HX9xcn85b1XSjq3VSI/zaWByjV3LqfNBfgyQrlTSQvjO/YZz9bnUKpFXTqzZ4QIAVo4+CdY2cl2mH7tRpnjgwqaQ3O+8/pTqFNdeLMAUsjbp2v8Z0wm4G5K+hzte9a9xg/BDvGhxyDp+E5FcnoWZdYZ9chyYdnDniQwZuyFyWRc0+RUMkUv+GukR8iH1bPzyUNGJ3HXCTOouBKk89K5MkMtEbqM1k55Gclc7ypsI8w0lrhsSjnLeJus6MXSZdwn3/V4SPc7jJAoHJvhPiw7/izKt5PDgIkqcDEzgzt1U6FUSIb1DfE/4ukk/UGj042l/Cdaq7BndAAAgAElEQVSK/6y9YTXh/5n8m+Lp72RvRSrp6X2yciJyJztYCZ5fJCIn/IlyTZydbtIqfDwiBFaVTZPRBavx3Y4w7xutpa7gH60ELTQvGdp0JUoehl83qW4yJuVu5VDiuD0QdXIYoq9u3OiLUpglYqYeiPYP86d18AxU5yXjv8k6O5xaOx2BMo6J6TZcUUE74xoCoMr8girojAz5j72CVBYpEW2xZ5y9t6otkaIhcnAcZ//LfG7Zik63oOupNa5D5Fh31E2xH46qSv51KkeUV45m4GsD57MUXF8sRBBNVwyRy7Y+JfC+IXIlsEhqiHywGslfgG1A5Dh+bYouwqluD75oJZFjH7n/xxflrfOOnTCL1L5wo/BH+3XahTE3qqiVm1B/uB1RTkW+tIOd9KBe+DLaiyd1w44vxx/g4vjI7biqB1321h9DcTVErjQ+HxyW/TyEZbdaqV6UxmyLN0omAXhWTC+HfOcYIle8dWhNTzkTuV1Qs/qymoUHaiu3SmUGgTo4UmHnIbPxUG4U/g4gobBQG6T6cCN/x9vKVwiRg/9zXUVY5Mqw+xugCldQh28hbTGsMzZ4FLVyPBgkMYZd+NvSJxDOPpyclHGycJX/jFUKTpyzDdFJb/p0sVCj+NpziLb5V8zvQSgYx6Ak+uuINQAOwxEVdRP8v/fD/3ufpaJS4v6Bos0qHJplAnY2JrbVJ9TPrHb6DuY6/DyeSXGKAZmLDekBRIh8mUJBzEn04w/p7yIGmsilUy9VPzbJVb+L/H0gAcE5VQL/eoH/nm+9Dt9XFRk0bM94Nm05yfx7Kiecfs/Vf//U1x3S/7dX6NgDo+kWWy2Ue+J/it+vFbguOAtB1/a9Qda5oIPof9nmWho5dapSE/srRdZZY71+A7F+2zD+jbAkciKKugbrX0uRa47fdyWJt6tn3v+RiJwn/YReu31Ui5wOdh48dzoCdxAXT8oHnWtwPrCuV/nkhtBAYLUtA6E3RK41364JudcQuYQsRMRhsHnlHaibrOABLYgQd1pohLgWKCPC7NJTWhA57oz0keNghtWCqGzB+yKClGM1xvRB3BMWRMAQuRzBbKPqrMb9Dn1n8+uKNDzkPaz73pdo2Z9voP+wxseU3zBKrkQZ6fWdmY+JYf743Uvop8jVWKzPQTps0iWgNkQu0m5q80q5EbmX7HxavTHyD3n0IBGbkWNsqJoJa91CSQHh2Q/C0x0/dhHWGnyRIwMid5vKW2Urck1QWVw5zzQoMhlymvs915kAjFZkgMgeWyDBdBY1RB+C8Uzy3L1yHkxaNoO0VKhBceB7JjD83NJdh4mN4FG43g73ChLFB+Qy5CVT1wnXSSmbY9AX535jn9Ntom1XEvHArvBFRxTjRKoCOi7a1vnc7KTqWkELqJI6/x5bvXzfSbQu6g0Sa+MtXgJpJ8Km0SFzOoh8dvViTg7+rOKG7xlOAm4XT1J113WQXbFXQEiqkLzdUeTQLqFdf75BJLe+UBBC1xg4+frtnJtQFY6uNEf+7N7D1r0gwpxTz16/kJx2rv1hr2U3jAPkj4kcWd9RDzBk+xn3b0Y11LUKnmimCg+ob7SJP3Fqz9j46fQJYcTfSbYu11EqrXKMUPMsreZ5d4AhcoEPY+ldMESutNZMh6A2keBiWDekTbjmuSb6EpoKUxy4B0PkYsC5CE1MxmmAVYFcI/r5hyYD8CCa6oLHae3hl2gdIrGuiEMZFqpzNoVZ5TnD0/u1/7KOdqHvB3DquAMquAgm1EalOzB5rwvB3wanKFcxRK6NFiTHbnMlcrZyppUIHLI345A91D5UV6oDPczguvWgm3fKPHNv45A/QhCrjyITOVa40t6vD7Ha7PPLOFAjkbNWj+QB1Tm8SljUAVcoWG7CoECDcrP4iMyBRlB4xOEfhLQKhLRCkNDRQt1JX0cfiB3CeGHZNBALKG4W8trVzVD5yp4Hyb1dKna7r6YxYBTr/GpU6DqW03wM6mF+zyYozhzfwZyH6nGKP1BM0FyExDaRVeQqApmQ5NBLwEPn9Ar6Azw6GbwciyRyYXvGGtKD9j5NdHQa/L5Wwd2CSVTAX0vhCLW0Cq4VHiK3FnNg00I7WbkmdwQlFXvu8+doRZd1UrVitZKrWvAl8yhcUJbF/PAgQJNT5JazZiylHfsf9vkWViolK7iWN2It14UR8Uz7NwL23i9UXksugxB/YCsCyeFHpSIH97WPyLnMiR2S7U6qnt5s2hC5HL9Qk1jdELkkrkqWMSkCwoEDrsFreAlOoS2HzC7cb+HFUeCyEWJD5NpypaL3HUtEV+RI7N77CvpXa7OLONXTRBwEXoJpoYXQH6uOj6SJ93SiVU9+IhRlfrDys0W1NLMeXqDL2mHASm1GHU9uRU3k5lwTknNRz9MxWdafadu/1Ar2TYH8jWn6jg5jaM1MgYBOnDgRosS3skNze6wI5ErkHJM9NQybyDm+VPJwvBnmjUN9dCk3Ivch2vHSLdf9HrMxfYh3JdQOqFE83nAfL+l/hgP6vPGSULiLTeQUSXP5ctnVUOdCkL2P7MO86mcfavQMWS7rB1SZ+oYkZHbxmRX6b7P7dZnwaWXOel3UtkmJxY8fUTwY+H2tVAdNv5Xmh+mKUqHYBaIPVMAD1nFJInxFK5VaHZR9SyIXtmcskH/dzPVwiHutDA0GyE2IGa7wkeN2h+CBQQUI1GrQ9fESe4AdHBr86Wi6Q2jtcd0uZiAJv2xPBOGx5+X3HUuDH9byRqxlGJHLuH8jE7lKkPd6uVeQ2sk6ejp+0KRSq7j6AUUaRY7vxYOXgTABZZPhO+kD+Mupz2vo58RZXEPk0n80SuYdQ+RKZqkCA+VD5JsI7c2kxJToCHBcNibAwyIk1jVELjqubVkzFiIn/EA5n+H54VMRZIwD8SykHx2bS+d34GAgS+m1VRupamINbeAcil9Dnb6yDudKvP8R+HxyDkaRKxE2PQMWqtyKyj/U05OfyNXQNakZst3/5e37CvQdyN+Yrm8VFC7f9TFELl/kknFfTkROmLNpBcghRVKR813HAZs4U6BWDWwlJKoi56gx1q7dLiVF3e8nck0Ym+0v1oekIuRX5DTZuQImkwuUD5Q+oO+DB1tPqD6KUNnmalqR48/+brLNC5ksuerUgsjZPkuadOGwfmPZNBzyt0hFTqiYF9H1J/ZK4gISYNHF3jbpD3jjK77N4YzRsvh9VTwmibdDMWKzQpeJpueQXilU0VW3zqYLfrhERoakWVAwr3MiQ4ZuSTeBYTJ7v1Jc081Jqp0SJ02wg3vGmog1tUsD6legvntdtBmovNcb7EQpSNrUEe0IJRZ+dEzkhA8fftqE94fbBE8pk+oeWWerIoOYF3ZLCnhY1kTXurqVW600e+fNAXoWwaw2SOSy7N+oRE6R9Y3Weo/PnseM1kfoAw8s1L6TwYRgAmz7UmIv+YitfwsYIpeM7+lWjcIQuVbBZ24+yREwRK40FjgOImenyRAWhDpgj5r/EJCp/UymXFFX4ctJ8OXkum8jv6KTK3ECUnKskr5tmhzCBM2J5NoCle9MpfK58U3RP+AP8Af2JVcKDkEidd+S8AXyN1YjTcjckL6tjsKH9fN27fLytzNErjQ+A+lGmRORmwey5FesYHZXi6Qe3gD+MrKe27fM7n8ffuqJlztqZaiPnD7c+0au7/cTOSgqK0AGvOMI8XOCKhdQiLQ5oosYOL2uBsEbL836QOTkwddfoOathZrnjiLIVfiwfg585GDy6RRWeu61fQ3d77TDd8sXonHVl34zTAVkHzkocfJAr0vEqJVamdRkQs3JVtN809O+XjKoCjTSs4BBYE5lIfiDcKXZM8JM1VPC1gUVlLllKJHT87DNUjX5czXMZBmKmdufbgwwZl8+XQQJvBck0LO3Q/ZO6LyHKJKJ1jzqZpb96/KfdEw+HX9HPba7sDZOtEl1lR+OLMTfjByiVkqSr4tjSin3j2+/ubAxRC7wYS+9C4bIld6amREXDwFD5IqHdWt6ioPISdIV9GPz5kF03md/uj6InHb55ZfTBfU4cNlJ753UG5xiQ/jGiZQc+t4WegxE7kFhrukuQdNK+123jx1MQFO9g/kbrWr4iYi8jzLth7vvOV+dTUt+OBQEc0rOZM4QudbszLa/l1PH8KH2RfYfilRcucyQv+zap7bQ/KeHQM/AIR97bPGV7GMGP1JRZP4rjmjJfmec8+rgYhXJMVJfedwP9cE7hjQdoV7dHyfRZfc+TRd3YcNAVXB9WadamjHlAqGg3TzTm0dN1Aqrc/a1lIJ/1fafz6ZL7/6j8t/Spm6VmHs93fddd1vuawvgR9adxlbdJoli5FD2zpgjzTkt5qweucxSI62Nf07lIHJE/4xooq/cuoSGIsKn2BMi8Epwz6x/CgplaJF1l10/wZO/LtKQwtYw3Y2h+6QSppb1tAYRSp097G8gbC2xl9JEXY2+//Nfg2ifKZlzzrsH/SaZQbBS2I9hqZfCYE1ZKDktlKlcFAQMkSsKzKaTEkXAELnSWLhYiBxoXC8cVIQppG2OqFUyndBekzEv6bLJXjWuQxW7A4ocByiRwVOOgsidHh+RgzoyEcpEIH9jNchiWN/Waa1aREPkWgVfm9/MJvgDYYK/PzKRCw5ZmjG68421+bSKP4CAUqeCSeQ0El90ypzubUVlT2TEfNsJUcM4IMsslylovk2fCvfFsgY5AiX2bPqcfJw0vgu+G6KmtDJELkf8i1XdELliIW36KUUEDJErjVWLh8hhrpykHqGmG+1ch6PwZ/B1uNL7iVwLLYGqNgc5rsYOXE4HEXp9k1IsUnPZJBJ/IAe/jpDsitR5ola2UpFD68fD8jeuZxIZ0ncrl9AQuVYCmIDbu2K/wBCYhuVL5tIpVwmYW3GHUA7Vg3yqR3FH0Oa9qZyC6RWtNh+hGYBG4E9PEv3dPWnxYLNOLlHT9hgil9CtZYhcQhfGDCsRCBgil4hlyDqI2Iic3VMzPN/CciB6h8Lfn9r3jH9ut7hMmTdelSa3Ytap5FDBl7/xCSZybFoZb9+GyOWwJAmtuglE7kqM7UOYxV20OKqJZUInY4ZlEDAItBoBJnEctfuE9Rn+Hy1bqSFyrYa9MA0YIlcYXE2rJwcChsiVxjrGT+TynLdNppSfWp7N5HVbgfo2RC6v1UjcTUtA5jhP8qN4TcerW77qXOJmZgZkEDAIREIACt0HyL13Pyoj5TgS6hD1y8HrzRC5SCgXv5IhcsXH3PRYOggYIpectdp9qJmq530ndEAbEW77xzn+USrUzJBqOOLzzfhHUIi+mchxzsWzENjFXY4caSSTRy7+NSxki40DBtBt27eLQxxcY0wxCBgETjEELsN8R+AV1ZzSDY8hcgndLIbIJXRhzLASgYAhcolYBjGIZStW0Mypt9HsWxH5zVeSROSSg1g8IzFELh4ck9lKhkTRyRywGZVBwCCQNwLn5n0n32iIXKvgK9zNhsgVDlvTcukjYIhcctaQidwPa1bSm2+uDwwqMaaVecNVQ+f9bjodviTvBgp2ozGtLBi0pmGDgEHAIFAyCBgil9ClMkQuoQtjhpUIBAyRS8QyiEGcfESuBXmZzqRe8FEYzrnhLjlG1jGOOpmsYohcstbDjMYgYBAwCLQFAobItQXqEfo0RC4CSKbKKYuAIXLJWfrEEblvdqK6066jcc1IBb6snQMUrl9btp6mVQ2mIU3NSEYszVk4n9fPFtXSzPrJsj7IW6/eyFvXngncRlp1fCRNFDyuhXZc1ZfmDvwpPfTUYBou7m7B+2fQxHs60bIrnqDTJ05RdQu/PobIFR5j04NBwCBgEEg6AobIJXSFDJFL6MKYYSUCAUPkErEMYhCJInIIAJKiCfRC7XX0p6lT6QFO+s2Jt8X1Ubg+iV7Adc4t95k1i36D6yNoKb22aiNVTayhDdXIS8cJyOcqIndeByQM/xht7KbHEBb6Qaqi1Y9U0PhH+iG5+E5aIvLQ9SMaMJ9WjxuP6xPoV0g6LkleYYshcoXF17RuEDAIGARKAQFD5BK6SobIJXRhzLASgYAhcolYhuQROaQJb0EQd86+I5NzN4CE9QUJO5MehKmkxSMW6QAmgMitojPqkI557FhcbKG3UWcEJxi36mkiSNs5qC+JGohctx74l3PByfQFe9F2LzsZub7egvvOpJd0PwVeIkPkCgywad4gYBAwCJQAAobIJXSRDJFL6MKYYSUCAUPkErEMySNyIF5n/7Uz/bf+F9K8Tb+BIsdEbjMI1hxJzHjE7PfWewGI3P30FxCyPgjff/nll9MF9a8TjDHDiRyByBErc+dL4IXCpwke9zFIkEEPYSzwEhkiV2CAi9z829hTL6PPN4rcr+nOIGAQaFsEvoLuh+A1Dq9c8sfpURsi17brl7Z3Q+QSujBmWIlAwBC5RCxDwohcCy2BIjanGWTsHAxNqGlSkRPX2Wzy2/r6BDpgvUTdUpNgCvmiMIW0VbYwRa4aRG7u82hrlpgzH7qFetdN92GIXHJ2ZGmNhHPIfRU55LZj2A/jdQ1eHUtrCma0BgGDQCsQeB/3voXXc3jNwSvXXHKGyLUC/ELeaohcIdE1bZc6AobIJWcFk+QjJ8nYKBo7+HXaCIgOvduPOu/YSYfXszlle+o47DJqf+w3uM6krA8IXjnNaT+Nxg5cTgffJeE7x9eFP9xpMJn8/HpbiZPkbRR1Qdt8P/vYnWGTRUPkkrMjS2gkMO1NjRsnDnCzrTdLaOBmqAYBg0DsCPzpSZrcZR0dRMNvwIIkajFELipSRa5niFyRATfdlRQChsglZ7kyEbnJID+sds3O4Y9S62fWDCPHc4WfHBEnVkZ0SkSs/OLpw+JKu8VlIHWOvxt/137erp2ozz+3w892NMpA1gF3260faWta6Apst/fvT53f5+e5TuHPxokTJ9Q8WtODubfQCLB57Ah08pAhcYWG2rRvECgZBAbiQeIdOfzdNEQuoUtriFxCF8YMKxEIGCKXiGUQg8hE5JbgoMrK2ItFJXJBbGTgk1E0+9ZetP6HS2ivNrNMDow5jqQZbnodoR4Gn9oaIpcjlG1VHQ8Xyp5rohPWZxjBr2MYRQPt2FpOlw66HIoy0R7rp7SM2MZYle7llOq0mqxt58XQV9QmoHhPmU3PrRgf9QbUK6efvzSdrpswxXdPJeZXjfl9Gmzrm/Auenat9/oT5bT7liakGXkvQt/lNBWYreCaUOitY1Mj3BOxCg7lqZXbybpFPkgqbmmgTakKGm79BIbgnSJ23QCz9Ara8WqDD+sG2nt3BV20OEQ59uOPvbZGWqFT2ZFJ1LVqJg2DbUNoAT5hO7KxzTCLCFNotXzwDjb0NjC5GZcPRvy7aYhca9asgPcaIldAcE3TJY+AIXLJWcJMRI6U6djhLkSdD0Y3FSnM7FqguJ12UihVd4GYcgnzpTBErjC7J+5W2VS3Eo2+EZcaZxOG/hyLh+jEcrLaXegMm99HVFfL6tmKqaANbtv6AYjBxdnbaUZ9OPxN95PKNHfyAZYVSrsM20zWxqMILsRjd5Wm35J1LqvtKGfhvb/wmDRZKaeeqPyRXX0R5syhJNIVNSe8PXYw0ZswseaWxZhTX0e/2e7PDMMBjL27MtnODlj2GvPR3sOn7yOr5Q/ZK4MUh+6FCFjIKu1po7WehtVdDRPgkHURl1QfP0Lwp4m78Xsl8K934Y9Lz2O8s8LHewjz6YoqnNVTrajsqCSJXCV1xdwP2VhEWKI0VVLAJexBXVh1Q+Tyx7mgdxoiV1B4TeMljoAhcslZwIxEDsNcg5PEo/j3vTk40T37SXIGXqIjYTwnYOwn0jytzYXIcaCNNxFoY2eJYtFWw/4HPr628uHEfEXG4zGrLKdx4CoVW34B5QOH7jAiB4Uq9bdXyLp/NN0wcxW9+gIfnzlNRznd8ul6WnNWBx+cDXQIak5/XG1cwPd9yUWoZuGQOdFXv5wWot8H+OoApfzlROR8hECRtwN4/oOYQiggA9YfaAWuTxXE6K80H+PjADGiaCKn7ttoAYtmYMGRYyzUp9txL9HFfN1NC931xfVyugb/bNhHdGdPome4bU0cUXcgft2GfJKWdTl+aqAPMIYO3yKauW0UvfkmZg+cByIPpa7jIXKsit71Ch17YLSD+a5yuuF7znp4QPX3x2uItokGgWg+5FVcMRZW327k9bJVxRyJnMDiQsxtucBBbtF9VEs9FeZ97D1g8QMIN8G2yYsm+4w56tulEkGi6ump0L2GSmqvOA8J5H5agKjCR/a9IYk7sFq2uZZGIhdoL5BMWrnVUTp9WHn3tVyn/8l9H7yWpvZl9dV3vxt49BOsU051FZNodPVK6sYY6z3O92Fdhx+Aj7WOVhIDkeuK+WyP+B1jiJznU5OcXwyRS85amJEkDwFD5JKzJtmIHI+UTSw5GtdX8eKDUb+1MIMS+dtMiYQAzPDehhleFSrzc+0NGf7ARyFyH2A9eC1O4MVREt3HrUjjOcUr7cL82cCM8UMmQhoW0QTKDVusRE4c8JfiAN4LXaQ5vItD9wSy5r1EqccdlWwMrq9TJMk9PkmYiC7Da5t4o4beQ45GJjJEfiLXQGNwUF7nqQ/i1dQzB0WuEkSrnqZohVKMtz3mdFypgIoYeMgGOrwX9TAfTeTewftDbQXMISPWWoyFVSW/mqjv52m5D+fAcQyIBM9JqEOToHTyzxfhtZd/AJaIfKv4uMTky9+X6qBd5wraT+9IRQ5EUtzP6tTtGAt+bAeS2kOoh1sEMfUUTZLc/XVDfyAMTOTI+o7HXFISRkIwJg7yxHXmos3q3BQ5JpqPazNQhR1UUdo0FO1JIh1GuAQGfiJnT0YrmiC4qLctnZroIXLfsFXV3mjnQx9u/Kt9ndcz9Y3g2hCwoisw5oWorcklflTSrnO/n3A6Cq2nTjPWT4WTtT8TvaFCfsipaWRh7+ov+AdD5Lx7+VT9zRC5U3XlzbyjIJArkWPloRHKgynREYhKtqIQOe61sStMyQ7JMMvyYGhKVAT4gFCuXt/JQhqyETlW9NhjaTVeN+dBQKKO+VSox+aRIzFRfjiRa0CfWIkcH/o5yurR08UuSW9aGZXIqTaESdwvcPidIQ6rvF2kaaX/8NtAB0Dk9rHatftqGoMT8DqCitc0Ogcip3dMOZQ2mYpBkJ6bJRm0CZgiOEIR4uIjctV4v4L7tqAg2mZ+nAOSzf7SFBDhPlC6BGEQRSlewrSSCVGDMheE0siEqw54CFKIl0st9PZdTuXlo2g+8lM65qKKDOE2STi5MCG83TcwbZ7o7+95ujF1eyjxZlXo5p2srC4QytcIoax9lBuR06OwlbZBSNOyVSqiTFp2MYZ+xc2npNbhd8bGjvrLjYYQVf9SuImcImY3sYL2+XO0ApEchQqryLBce2efX1g2DWQ4zdrwXgVm4iEGiDeramOrbhPKqVA3A6RLKm+BOv8DhM1Wd/vQXcDoGeQSvRM5Rp8hmABbMAEOmJmm33LZ3jGKXDaESuB9Q+RKYJHMENsMgShETudnYtIAAUO8TImOAOPGBIIPVA9lOPBHJXLRezY1W4NARiKnfBa3jzifLv3lx63pxtyrEODvmfPwkOhwSATRTCDFSeSkn5EmCTEQObdK5ZpEeiJXCfJV75g5invyIHJ2v27TQR9xyEeRs0lIyIpwe25/LJjVpWB6R3w4B9WSRE4pW/7bNZETZGC1UiW9pFErZVKt0QoRftG+fSFqqGPW6OsQ6tONIDlhCuqHmIdXWc+HyLnW0X4woEmlb3/ZyqaPyPmGLOcfRlZ9FUOInLcG/DuhCAdUtn2o1TNkXW2sVoPSjgfR4/H3pDKQUqGa6RJC5ELr2ERO+mJqInchiJxsm20lymX7RpEzfx8YAUPkzD4wCKRHIBuR06Z8Mj9TWwfZKN2VZBO8+zF8/hP1XhpzSEPkkrW+mYgcB0nhCHEOMW+hHVf1pXdmPuaZxI/fvYTWPwUbrUilBYLNaWQt46NqhAIz0VVPfkITA6kdnHtZvf2HX1h0+JII7cVSpYbO+930vPvj75v1GMfLOXzXxEnkhK9SXoocFCehKPkVKx8ZFOSJ/dKgbIQpcj7/JluZ8ihybI/IfmVc+BvlK76Vc5lBikOxLt7rXtNJ1PEpctJvi00yX8ebfvUoZLP4iaGt4rmJHJuO1oNAKWVJqDkXQa3aK9UqdXB3/PdAqZQyVYu3pU+fwk4RCmxxOqTNJgPBYypD+9toLaVFqatDiJyapyas9pxyVOQUdiLAicuP0DMvD76Mp4/IifcHCfLLPoTVUGorbFPXsHVXaxJC5ISfI1rbhDaHM25gbAEih6A+N5ZNC6wNYzUMWGmzRyd4jc8H0E+6PPvBNbc0RK4WRE6ur7PmxrQyli/l0m/EELnSX0Mzg8IhkInI6SfkHMChXw4Hq8KNtvRb5kMnglKHHlQNkUvW+mYicgOxjj/2fC4kkfv94KtoHZz4VyBC39dm9KDjZ16cA5GrRvCMbgiewSFYspeVGMPkIRZZ6SLuiyTrE+hHx1ZlJHvZe8pWowU+WWdSL3xHDN+NPi85hrDzGdhlhub4O6c/VLmo4cK5qViJXJiPnGe8IDYEX7OAX5eu5Jj86SuBCJLCtwkHaXEyHoRohlWuw77jV+Tu9no4Eb5WJv3xzoSZ4jMeQuMjj6EqoCJktqmfat0dtdJP5EAsQqNW2tEtgz5R3vqyD+fgz79h7l/G3Nn/zS7s+3WvxEOTAW1W6Kqzn+51olaqecgIjaz0jVbBW0IUK1ux041JXzNJklHcGNiEybdJ9+H3nnhxBNOyaco81glSYpunqtukyuQrTA4XwqwwctTKkL0gAtHcZAdPkeqVr3geBqyE4lXvHYvtC+fze+O5nYO5BdaGI5XqsShT29A9JtfBLunqNEGVFaaVXkXOWuvDhhsyilxwfU/FK4bInYqrbuYcFYFMRI4Pq7kk0/7yn4YAACAASURBVIza56lej3F9ECD4/aoMkUvWzshE5Pi9dCGt9+K9Xjhu2c8+/jSGlv3vsTSzfrKttu0+1Czyci1b8X9DrvPxFAWK27Vl62la1eBQIuYQuRZadfwMmnhPJ1p2xRN0+sQpqN9Ce5lcgVD+6Ng8eT/ac96XXYhxpGBmdX8dxlYLC5aptLP8Qpo78KeCgLKiN2n8FvopfpaJ4aWP5s8W1TrjBnnrBV+uve2ZwG3EWEY6483QZ933vkTjmlcEFMhM2IbtkFiJHFSkNTj4/jximH/2HTuA+neniyCoB7wb/kJLfHnAVOTAGVMu8E2rEnnG6um+70o/rbqK7tLPKKwwoYkcQl83kC6/XFgHMhea9BlzonGK0P3pUieADNf9cRL1nVzhyp8mff8cnNxz9Ef51OOQ+dYkDunqRP3OCOvP5cPlaUbOefG6JXT3YHyOMIaDi30ROu36THC0apnbWNK36WsHPntyLP2cN3Jdd6zJsk61FNxrYWOOsjZ8n2sfYX9f+9QWfGf4As1EquMeg+w7MjYRIDc+chFASnoVQ+SSvkJmfG2JQCYil+uBKjAPHGD5sLbszzfQf1jjo5uMZQSkBuZnU7O0VY86I2LqL9NgoMJs/T0OK4h8lkN5DAf9JtSv8qmchsjlAGIRqsZC5LDWrN68UHsd/RKhvlfQURC8GoRln0MbkFj9hdpJ9AKubxLED3VTC+gz6346KMjgUlr9yG00/hEc4Jp34mm5d9I2kdvPyhvqDJhPq8eNR/0JUHlm0QmYQ41QRO6KDtzeIlo79z2qgmK4SSRyxzWoIHsRYp0mv0B7aspQR45JjhVtLnicFiDE+wPCZPB8BH9Ioc2l9NqqjVQ1sYY2cDuYYS8EOxBE7rwOGIusKwltmj4RN/S1VdvpTrSxtxltuOaW6/dOvEQOGKvQ9iJNQKKLLzpl0caKMP+utAtF6zaJHXmiUxZrgG217sWaX7z9GCIXL55t0pohcm0Cu+m0RBBIR+TyMXFyT/kQDnFd1UFw7eGXlLlZAw54uZGeAIzCXCxLO0+gzlxEnrOuK/Aq8NPY7vQr60X4HUQv7C/3b6j+niFy0UFrg5r82Xihtpb+cklLoPd7hsyOoMi1IF3EmTRHkCZugonaJJCsmVQFklWH9Rdep7twve/z8BO6HX5CC/DvA/h3krOv0vjCeYmc3u8tNBF9vsRtCxLJpAomS2jvDuzTJdyf+Axx/evx4xX0r9Zmcd2jJNr3no+odK7PE4K8yHQXLSB1Z4LUMQGtR5/ldA76XCLazrFPn3ko4/7kliV0TdkVkVZ97eXSXyyePHLcEhs/syrq9z2LNBxTySBgEEgQAobIJWgx8h2KIXL5ImfuOxUQSEfk0pGNSJjA1Kp7b+eAKO+Rhz1xwMRvXpOudkFzLRwUg+Zi+hAKIjfnmoCZmD02ffCcMzlYR6mEzx+/J9Rc7L7BU1yBGurh93SrMDNzm5ZpE7Xrpkz1HrgjgcMJUAfQQPgB7TdELiJibVOt0/D0QUqaNv0mApHz7nlkAcRnYA6dDrO99amFNoHSBO+AhQS5IHJW9QN4EMFO/7MyTtxL5PTDjRZ6DATrQTeR4/xMvaXSJ8wjfcRRXw8SOVYPT/MQOX5A0weJhS8HeboA4eBhGBlO5DL26ZBU0WcIkTsLfUQt3Y40EqfUjo/IRe3Z1DMIGASSjoAhcklfoQjjM0QuAkimyimLQEGInPtpfiiyXpOut2DSFTDX+hqrFOzYsxDmZRV0/yNQDNgE61J+4o8QZQMWUs374xFEeQKUi1VeRUwQOe64yntvI673luZiNTAXmy4CBsxSSoQ0F3NMvcppHHxf6ha8Ytf9DHXPCJjKhfSfZTcZIlf6H7eoPnKegCQcCKS3VOQegiK3QZsUiv3qVeQGu5QyoW7bqp6DXWQiZ60GgayQihnfLvYwE7/LbVNOJnjZidz1QtnTCrRTP0yRy9RndiKXzv8wbOfEblpZ+tvTzMAgYBBQCBgidxJsBUPkToJFNFMoGAKFIHLeYA8ttBIKwWQ9A/H0HYqd66BKYeZa1Xy4nQAVYZVUETQ57AZ1QZiFsdmky4wMv/Fn/fN27egMcTAOudfqKFU+5oeijjxQ7uPofyKU9YWiTeIeRX9KkcA1MQdENxvb8R99JnGGyBVscya44ahEjlQgkD8P+ydqBxWvUQQEWSp85LZAdfpv/S+kpk3INFiN6/BZ0z5y8oFBPxo7+AOqe3cCzCJXSRLmKtGJ3Pl0HO11sNvrR5137ITy7OovEpG7SpqKwqdu7MDldPBdgm+fDBf+GNT2B+3ExdJHLn2fCSRy8HUaeICIcz6KBMwiITh/78B82p0brWh7Ugbc2PFqgytgCHcuA4BctFgl8XaP55sIh/jsWnWlnNZUegd74Gu+gBm+uezFXLUx6zHszSMPIN9YW/kJsu9ZJySm3sZJPopVymnOlNn03IrxOXQog3N88e9NIniRUyrhP13tWzv1rmednDWNFNQFAXKGIzffLtVUIz6LG49N8aQ4yGHwTlWO1lrDeI/PAwN3j/Hg0di1gmbv0kFuGugDPIjqpxPX5zhBQ+RyBCyJ1Q2RS+KqmDElBYFCEDnnib/XH84heN4DZKi5liByLj837RvXDSqC7SPnmJHtx0H10Vtn05KXFpP1PQRcCLsXCsQ4BHeox6F65LHfiAOyVPNqaHlqBs3DojQi2MMdyP0zTwRqGEUjRzor1XldBW06+6GASVyuPnJGkUvK7s9/HF2xP7bnkLia/w61w0MGWZbgI7JR+Kw967nuH08LHk6c5rov//HKO+Npz35gghadeSlT6EDWgRz7VInWi6rIuULyX4Y5CTLnCWnvzw3X2nXIdj/73rrrtIeKi3xkdcjlFTV0vT/NgGguUzLpBuqJw/JHqlsEIaUPxc8q31u2Icf9vhg/iCQST+dfFI7pomv6G1Zh+0W6BPJFFgobRJq0BjL/nqu40xvYqRtk6H2dI8+p7Qvh7+83dF1ViocoY04HpmgX6Qiq3xF5/UTuOO8ssi9DHHjYaQ50dxIPmcIjv71oiFz2pUt8DUPkEr9EZoBtiEBBiBxHseNoeJ5odEhMjGsf+KLznaECQATMtZQip5UIGTwFClm300OJnCdVuVLktMmlvncPne4KCy8DT3C/ndD2YmV2Jskm+kFdR5HDuDnSJJKqvgeTuDkekzijyLXh9m2zrsdgP0xC7/4UEtEG5BA5v8oW7f6Tt9Ym4PoQpvdGDnkrW2daqQ77OgE0Q6tzmFnPU23qdiQpXkQvIofZZA7eZD0qD+BQxg6B+PTHT40wv5bKlQxnPxpRQbvx9QEuRQkK03AofptwbT9MwvepBM2hKxmWSBkWA7VIZGYnTFYHepG/zH24D827pebIecLaXQiltJw6BFRGTeRcpFUf7q2FYm5T8f3NkUxv+nSxTAfAKs7f9NwrkWy6HvjIMP2HcC/7Us7f8F3qsepXKn1CJQ7k9TiQg+2v3ErWLYdFu+4ImDy2WziVwwvXqrZ3CTWmw7eIZj1FtAEKlHVsaghsIeth4zILZIC9KN2lnBZiPg/wJb1OORK5MWh/Ham8anbuNrQnWJzMJ+gkAP8r8h1W0MN6CCqH2gG00V09NPAmXb8d9xJd7N8nak4O2fSuLa/JQLgVbHMpdTamIoWDG+9yWJogYC0eWO6i16kPEznrHbGHOd3FB7xPsuLuYBoHHnIv+xKN43NokUwCH5lku5baELmT4O+FIXInwSKaKRQMgcIQOQwXCtp5OLiwwtVl8Ot06N1ReL76OvzSvGHWz4BKEGquVY0v7rn8eL9c3a/MyzxRK12BHdwIiWAO6e7tR7NvLacf7/m1NGlr/xntOd4B5E2bselQ7/XSXAzjH4ZxbxI+RVAYBUlsTx2HXUb/tf0jOnLkmqCPXpbVMopcwbZz0RrmMPw3o7dcEle7B+dV6Io27MR31J0jVmKUuRDkVhG5wMHYC5E8iKPALbfdXiiQ6pCprzsKHtSjpuky0TGKfZ0JIgd+8bSBXxSpCl0QT0h7dVAfthkscKhNEMiT9Pli8T0pVLwQIifHuhnfX0dFd/J3v9qlidxc+BVX02eP4NAsarMKMsRWCG2ljg/XILkyMfrtTv/2de/MnETmLmyY7MxDcvDHnQO6JAO4DtLqT7reBbGHDsGclzR5cnURth7vYQYDRR0/kWugMSBV69zrxH02oU+sX1SywCTMzotnJ1NHo7wOgnz0USRbExNcD0m6TsRmspX0IUgu7pD9131dqq9+NVGT0+eIVv+JaCfWicmhuOde3AMsuchE6QRl7Re0Cg8fnxHRa3cTKdXsAJ58/neMkxVYR33FOJs+Ehi0w/tfKFkxE+7uVY4FD5t8V9HTSNd+l54b7aWBWLNteSQIN0TO+1ksyd8MkSvJZTODLhICBSNy9vibQdXOtZMJp5tWwFxrcZkyj7yqFeZlYWZdbhOwFoztDDW2ZkTSxBPQLioZc5bxt+YgbohckTZ3gbu5CydnPiy9mIN6VOAhlXTzjOfHmMHLOeIZB5ETylZIcRQVHLHVIfz6E0SvlaHy8zj8z/oFDusz5NkdySEFkVOH+LtwKOUDdBX1wJFUEymfgpJpxexD7SCkpNiKiKZ86saBfBcO5Jq4acKQjsipMWcnJ17TSmdYIHwgRI5KookglCgaHULkcKebUKo52Jj5Cc48EIdIRE4qXFKx8ZuIKkz96wEyIsitjZGelUxOLlTR3VfTGDAZoaw1YT45EDnZWgOUyAoVbMtF5jUBcyunXD1A5GQbjlqXn2klQeGrTd3kKLZ6P2C/3IkHCX4iZ30Z2PzFIa1SGQwjcplwD9u8rcSDVV4RqEyXQVj3avGL/CzmbuZsiFxJ/1mQgzdE7iRYRDOFgiHARC5d4afK/lxnBRuIv+Gi5YIr2ozsjpjInYf0A+GlPf5wHSv+oEyPeSHA5AMPx3FQ4qM1Ub+1OthEXs2dcjd9MG6c0iOgwmH2T+dI4hiwVhE5v8+SWIFyBKOBGR+IQe3tbM6oDo9+IudbLYfISf8nTeQuBJH7SJna2QQskyIHdWY+1BlhhmcHXqmED1t9sB1bsQlX5PxqXPoNFmJaqbDhmCkPu8iTPPSDTNFL6YmcJk+qDQ4DwuqYTSh9BE9fT6vIaSUmjMhpcuRfj7REzoWvfU8+RM7ly2ibqmq/vKiKnERXlhAzX/+CBRRkrS6+QjeCWK+ziY6+DiKH/Rcgcmg3BRNXy3pd9iDahWllE3zk3IpcJtwDm6n1eHgenNj+cpJMvoMxDnUpy1G/LA2Ri4pUgusZIpfgxTFDa3MEmMh9eJAjbnmVqFblkYtpVip+ZEytJacZJnJfBZG7G8mm3eWHNStp27FP6JONwn7IlBJBgP26VmGsb+GVjp6XyFSKPkz2MRuBF8cJvDIPEscDbhWRsw+Li4QJoXOoxU+2j1waIqfJmDgE4+DeBFNDoch5iVwtDtK2b5smHZmInGhPBThxBZzwHHJVHfsgHqrIpVP/OOG5TKLulHQ+cjJCIpv8sZneMNqqzBKhMOJYbatjaXzEtP+erch5MANxmAfiYCtyMA0UzxWBNzDzmFZmJBS+eer1gMlnqCLnM0utRv2KjIpcOF7VUOIqVNRWB0dNZtzkQ0Z2FcWnyNl9W9LHUozX7a/p/0QGiFw5CD6bSG7Gf0Pxn8/UFbhV3cKKsNrDWiH0qceSJIUocqG4QxmlrwT2T3x4aLw0lnLsRpEr+tdzcjo0RC45a2FGkjwEmMidOHEiEBkvCUQueWjFMyJjWhkPjqYVgwAjsATfYRvx74t5hicPRg7kVhGoxDrPe3h0mSlOT31dEFC7nI6D+37pY+UnctZakBJ3tEm+iQlN2TRpkukbt1TyfIUP9wt97cBvztoo/d5CfeTUoV0SMMfyQqpeLnIh7k9jWin6GAryxuaHThEK2lkgXjDP85QMPnIBzIQpJDALGIWE+MhlUYZkVEPferTotgeBhFa5MHApR65bNNkUc8P66rWR6+E3eQxvQ/i0pb6RPmql37QyEOmRA44guIytFCtlT4/TNrd1T7Y9lM7VtOwJjNljlqhIXcg9vOds/0+7qSiKHFRYTbbZ584uMeGhAw3Z7eoHGlez2z0dyKhk+z808vcU5m+xpcTYseEVXFdTCJfrCZyW9Q5ToSgIGCJXFJhNJyWKQJKIXGNXBEjBX1NrmQ7TzqC20I6r+tK2Nz6W+d+ilG92opZnP0nvl5ft/Sh9tKKOIXKtAM/cahDwIbDjqh406q0/0v58iZxoT/pNvbdqOl03YUo0jHcjSuWSSdS1ambmUO18kEZky+0/n02X3v1HVxALHPhTLvO2SL3KPF0HF3vJWaRbdSWhSPmJXIQW4L+0+EpfLroABtJH6lPgyOW6iTVeEz7U//m7fowrgX29EzgkwlBCq4StB/KuLdtcSzOmXOC7ReIoc7ctQKTG7iqyZkjLeeGFeb4UdS/JnH+rv63zpskxzMe+eThq6gR72DLPYCAnHdZuWacQHMLWNBv+vJ/5wUULK3NRSy54yM/imi2uvaYIcDpf1rSjQM6+suea6EREemaIXNT1LHI9Q+SKDLjprqQQSBKREwmOER7uDmuPk/xY+MoxpBztMhq0/ITeThEQuCVNpMtoTcdSyxC5WGA0jRgEbATK8Jmvx29XtorMFQjQgCKi1B1PdMoC9R3SLKcG6KrMPwvRa0AdyzP/VyHGlk+bjNednBJBhO8vVvGmZShWr9n7qYSSV09Tivw5ewZrcFfO5JGEn2ouAZQMkcu+A9qkhiFybQK76bREEEgakZuD3ENH+h4m69cSQM7rdgX+bbSJnFTo5g78KT301GAVLYxr1tCyFWX08zFd6eqzr3URuRo8bd1A45pXKKXPS+RYBfzZolq6b/AUOnxJcRbNELni4Gx6OXUQsNNBHLqR6O/uSeDEy6GUUFApSeBIYxlSqPIWS8umkVMRgTo49Y1VuT0izl8omqgrVbyRke4yRC4STMWvZIhc8TE3PZYOAkkjcpM5BOAclbONqmF61EALaCUSt7Iip3O7VSHXUQWNf6Qf1LudtETkjUP+twWP04IHRqMukj417yGrhtW8UfRC7ST609SpuM5O0x2RH+5MehDy3h6R/HspvbZqI90JEyBvAvPCraEhcoXD1rR86iLAQU/44LYar5sTS+hO3fUxMzcIFAUBmFPeBXNK9jNl39lhUU15UNcQuaKsUO6dGCKXO2bmjlMHgcQRuabf0oSO/0jn4Mt3iUj+/THtQQSzXkzkkEgpdeA1kLHrxAKxWsfX34IXxghbsVtC41JzqK7ZohfPhalmNe77NtdGyOzUUbrWup96wZGdidyLwpSTo4tdiPeLFyPTELlT5/NlZlpcBHSQpm3otktxuza9GQQMAm2MwGHV/2j8+3LEACfuIRsi18YLmK57Q+QSujBmWIlAIHFEDsRrz1wXQXP9boGwccpgyzpfYgcixr+/CKLnEDYZxW4OCOGjIIQP0igaOVJWr6+fhOhlPejN1NWCyFkwx1yOZL7z8F4j6t1hrXd88wq4Ok5wBq/T37IVK4hTELz55voC9m6aNgicGgjwAxM6bBJCnBqrbWZpECDq/Fy06JTpsDJELqG7yBC5hC6MGVYiEEhH5CRPSoE0RYwwEsNsRLATVtC+xqaSo9DiefQr60X6e6W8WdVsKsnR1maJ3tgvhpW4PaBzQrETQy2H4lYvzCTfgiI3YgiuC3+7arphZjd69YUJMK1MCSK3E/8uZuUP70p17yjaOC2GmWRugonm71DFn/zYELmCQ286MAgYBAwCBgGDQCgChsgldGMYIpfQhTHDSgQCmYhcVxCOOowyFxvz1kzKJnLfrpehl5X6pk0omahJ8jaKugx+nQ69+zx9BlJ3BsjbNSBvW4f9E/3X9o/EEI58hIApjSBnvYn+jOvnbPoN7RVkzwl2In3k+tHYwR9Q3bvwsWveSdY5rZlBtHvHoN9JqHqzjyQbIhcNP1PLIGAQMAgYBAwCcSNgiFzciMbUniFyMQFpmjkpEchE5OxIcEVU5aKB3AyPtnMDeeL4s96unTsHnWyNr3+O62eENt5Muw8RXdzl3Ghdt7LWGpA4jqm3PwRTQ+RaCa653SBgEDAIGAQMAnkiYIhcnsAV+jZD5AqNsGm/lBHIROR4XneBeLyFf3804ny69JeckcWUfBEQvnu4eSde/QyRyxdGc59BwCBgEDAIGARiR8AQudghjadBQ+TiwdG0cnIikI3I8axZRRqPfy/DawRe552cUBRsVg1o+RW8yvF6Yw5y4Tz7SWhfRpEr2BKYhg0CBgGDgEHAIJARAUPkErpBDJFL6MKYYSUCgShETg+UQ3tzak0d4jcREyiBQTCBuzIDgdNTMESuBBYzzRA5QuKb27cLtdUUg4BB4NRBQHy/5xHq/tRBqHRmaohcQtfKELmELowZViIQyIXIJWLAJ/EgDJErvcXlhxtfxbBP4HUNXn1KbwpmxAYBg0CeCCDYvbBQ4QecE/F60WrC/4vjb53nkM1tGRAwRC6h28MQuYQujBlWIhAwRC4RyyAGYYhcctYiykj+f/beBbzK8kobXhsGLg5WEaEwoEIFBQ9IoXDhBVUT6w8Xto4IyhBRIMBIobUi+a3yf/6Kjv2wOESLFX6mkAgDRqFGqX46UJmm0qRYECqHYjlVxykDCqSeQpuMvP+9nud5j/vdx+wk707W22uX5N3PYT33end87n2vZy075HgDGt9u8VZOLkFAEGirCNyDTMs/xeItUefy9hEQIhdR1wmRi6hjxKxIICBELhJuECIXHTekZ0llJcUmTTKJa4TEpQeatBIEWjcCXDaHk4O9GblMz60b91ytTohcrpDM8ThC5HIMqAzXqhAQIhcdd4oiFx1fpLKEs7lySNXDbVmJO4zTQQNtEltIT8SIFjJwHWZQcf0tVEamKCM2t7H1+8i6I99P1+6imlgJjbF+joqUF6R6RDzvP0r7d5fSlcM+8d07OeQk9dj7TGCcQrTdFWiLJk/hfkHI/URWHCykoYOI9hh/WPXTQ1uegG96n/49WefXZrAeaZoMgRgwTZSZWJCLNgJC5CLqHyFyEXWMmBUJBITIRcINygghctHxRSpLhoLIvYhGg9sskSukedPm0vK1yGf7QxC1JzViPfDi84KKFnR+n6y6P9FabGyn04dkWYdTwdrs77OC8oixM/XkWCfIKn35HFnt+qVubrdgIkujsP4n9B31u+cavZ2s6jO0Dfc5K7BzKYI1HyVgqlTInnOlIpKe8UejU43dMaRfDdqOSXv96S+5LbfkEEv9JY/VlmHIy7ULkYuo24TIRdQxYlYkEBAiFwk3KCMyInLfu4C2LT+tDtnLlT4CvMHiLHNhdfzSHwV7cezoLasMXb6WSbfW01aRBRA1qz/1Byv5AAU2LOscd32GTBRbL1NB7FYQuSW0jn5Id9JgHCJ6XCtaUI2mQzV65dweNPbD9bTx3I7KO46yN2QDWXt6UgPGuuOTzfp9r7rXFzbcg3kfvDmuTyjQ6DsUb+yhpbB1uFK5Ygu45TAqth52FUTVWatvt+Cnk1AYtaKVKZErpPbA5qwazyZyhQYvQ2wNTjeB/b7eHs0MSTyG+31pClmnX6AYKpaQ9TNgth59q4A1970LxK+Kltm4OAs2Nirf/MncfdSQwR24N5IqS6bSzaXrqSPwrd872WA7zrnfh9dssFcDGD+tpbHAaS6thD8dfwCn94DT/8t2HB+n/LmWOhCt390KFNjsPq4b4buV6Crhldnh15K9hMi1JPpJ5hYiF1HHiFmRQECIXCTcoIxIi8jhbNaNOJvFBI4Jie8b/OgsJbKWcHAfn2HhkLPleM3N8ltzTeTaKo3ehdqSJTSZFSP6uiEaK/GzN2enIRTPf0hr7rgIRA7XJUTtjjKx6QfsPtDqFq5L8TrEP0AxuiV2G23Cj1yzUoUFgpBsp/50DbbGljXH9OH+z4GccHKJ7SBb18T1cUmMeRRtlQo2EGwgJkl9QJKO8c/DMPf/8oVLaiJF1GsE0Ymd3GYB5izNgSLn4mIVQaGsxe+KqOHFeCjCNtBR7fjx1DjdTe/SvyoiSitB0u7uT0Nxf09QTTPrrLb+g0b7dT8NhD0f/9zpdVr615uohInh6Yu0HV7sL8X9J3B/kr7PuRhZaeXPz3UeYqrss+3Hj64/g8+EHqe1X6xyPoxFCpHLP08LkYuoz4TIRdQxYlYkEBAiFwk3KCNSETmuVdYTtcoeRVsJ22mc3xjLbwFL1tNeyYLMtW0iV0hF2Lx3htpW9sNbdVhlXNieISwgA2sOMZFjIgaiZ8IwHQWKoLpZPaEA3aPOizGBep9JyOEbaAIYwSZW+uhmRUncPh7iAAXrz+1nxPfxqoP4xGgli+f6nKhypiYn1koQxzmYw6temecKat/tB1gFXKyUr+u85LORoZVvY43XYBqXJOr19FPKppfEEh3D/f+N+2mHVioip4kuXzqs1b68Cp8mWaV430fkgAnf1yT5Q9Dki2Ark9ibiXAmMsYsDaSSQCoZPwv4xZgUWy8oRW/i0tmu0gkSr8hqG7uEyOWvw4XIRdR3QuQi6hgxKxIICJGLhBuUEamIHJ/L+i7aZasiRWel0bGkLzB9GubcniGZa+tErm9sFG20FkP1uSGBSuWGIa4B0XLOyBkixyGXZQjR854V43v9ce8R3+PBIZsgcmiolZ4FUOBKaZNR1pjo/AzvxffxhHnaIZHBxw7q1y2xfwolcodAZPw1AT0qYiOJHIdtboOiqdT0V/ECR9JK3D/RdKyFQxOfoQa6h2/jxRjZCpsmZoYUh32MbOUxSKztc3qn31bKm8IfyWjiiZxO5GITuaUgciXBeaAC3nKmP3DbAMo4GeRTh9i6YaSmgxC56PyhE0vSQkCIXFowNX8jIXLNj7nMmD8ICJGLjq+SEblttShjPAAAIABJREFU2MkWwNQvMyQc6a2ujvZfP4geGPgkNXQdSJuXIZ5MXeUUmzmdrLJ26Q2TZav9u3fT14YNoy5Z9m9MNy7ofWUWuLZ1IucocohTLAUpKUGoXbUidkw77DNZWhnyJTsxRK4dGMrZ2GD0We6SQTvs0YQXapKhz97pn/kCaUCopSaAIDSnoQg5Z8gGmnaB83qwZwJUtU3EZ8SgyKmzcZdg7lW0JHZDCJFz1UTrIBQlR+Uy4aBxRG4XbMGZu0SXTaJMshNfghH1Xgcobw10Axb1nkpwshWYlWjCRqx4gdCZMF6NpVHIiM/ABc9o2mfkvGTPvodzehkSuT+DyPV15oMPYEwp+wcE2CbhLim3lcBA+GhjPqB52FcUuTx0mjFZiFxEfSdELqKOEbMigYAQuUi4QRmRjMiVgHCchza5D6kspBuxyd2KBBCvV+yjd4vKkUJ+JX1h3U1d+sZwhogTK1yYAUh12IR2pQEgnGPS7LUWa/st2q9Is32umylSlmER37ZN5Iyi5KSt9yb18HjHqEKJiVzAk55zVt53fOodh/OdC3LzGVooxQdnuLyynuloK07OOOeCXHAf51qiEn84BNGXgn+XIacB+97H7/3xYiLXfoZDsLR6ZZOrkKczQOTislb6snsG8bvNJEfx3jcET607JCy0Ems159rsXlrNzJzIWVYQXzdpi8bdkGZP5lLX0iSY5PpDHKHxhMhFyBkZmiJELkPAmqu5ELnmQlrmyUcEhMhFx2vJiByHVTLRGZ1jRY6VvuvoDDa1nQwQdUhk0ZUm11pkXWkTue50+MTfaGAvTneA66MJVPfVV7SChuyZlZ3G06TatVq5OxyjAdg1Hu1Qj0x/yF5HVVD77qIFQ1+ml6H0adWtnM6enU6nhw6lLnv3UhckcKGJE537Bwr7Bdoji17vGE2dvIPeeHo4vfhlOyrioXN03QgMHssQ27ZN5AAWZ4w8/TpZZzp7vFBIb7xQTGU3TTEZKFM5aBfOxJXQv69ZQzOnXWwaP0pH762iB/5Zn0+rLOmrz10lvdLt423HGTL5KnTPdvnmgMrWt4R+smkF3TuiDjaV0PGfJEsgkiTcMcx2nDd7Y2cxjZ8yzf8u1MKfXMtzIrun9wLeZYu9OOFNJojJSgckGiuVW+Le137auCPELl9b7X+1Jqxv3LIdUPehgLaxS4hc/jpciFxEfSdELqKOEbMigYAQuUi4QRmRisjpumW5rE20Akkr5tELGDN0VEeR42/lF0Ole1ARMUX+StHnX5jojaXVa6bSr6dPx9ke3CsFkUNKd03kxtIkqH2Vi1+l8oU3U7FR+o6j/wBOQz/kMare04N+hfC2h2DDEXV/LNHie6ga7ccQiII1Xs9Hq2jDotn0+CLOZpipSpjcx0LksvkMPArltYoGJsqOmM2QedqHi2p/P64MQFMvRuM/rc1mTm1qfLMfX4hc9ti1dE8hci3tgQTzC5GLqGPErEggIEQuEm5wiNz9K5fRx9t+F2fUsPbtTQHqXBI5pFiPnaF/sLaHhzWmInILQORQH+wL634QvDr8rwv+VwVyWEjdOFQSBCzmqH11tB5K350ggEfQb4Dn/o9w3yVytjqIviCPx6yF1Cc2lX5jrVOhmicwZu8mIHJcymHCLj7rlN511fDhbbj8gI1RirNh6UEprQSBVoWAELn8dacQuYj6TohcRB0jZkUCASFykXCDQ+RmQdlKdB3AG7lW5CZBkavkMMpu7qwNIEsdWVHr2dGckUugyN1Xh2LAXWkWutawwlZ6gKz7XCJ3v1HYCgrcsfc9u5neRsjmAFbvFCetIz+Rs+9rImeVLkRiCg5b45TnuBQ5zL0itxVDn4vC1Olen356UohcumBJO0GgDSEgRC5/nS1ELqK+EyIXUceIWZFAQIhcJNyQ0gg+I5f70EqEQCqytQukBEWR1VWKcMgSqnRCJ5k0eYmcIV6srL0fo1FzLPr4CnR7CgRrAYdCdk6gyCEjH+Y6Bfb292rO9Iicrch9F4ocnxHU9uaeyMkZuZSPoDQQBASBNBAQIpcGSBFtIkQuoo4RIhdRx4hZkUBAiFwk3JDSiKYicqyIqZBHKGrdR3eldjXv0EmVCa8fkj3YyU4OQzUrpIc6zKCJQ5+j4zuhwDlErwMVFBRSfdUWqHJMzgzR66QTYah+OPc2mvh9TRg1GUuPyPG5vM9UOOVgmjjiPT23ELmUz0t+NiikedPm0vK1kzMw35Ngw9sLyTb2f7aLrhz2iX8sJAA5fMdpJO5513N/F5LplNDB4wmSmXhHOIgEI4OW4jn2lxvgc3K9fZkvM1hCtk25jEI5ipzv6Zn+CIkSoITiwl/QhOH1KAq4n1QF3PVVSN+ZVUGvre6dvh2tuKUQufx1rhC5iPpOiFxEHSNmRQIBIXKRcENKI+4EmbkFrTItXJ1yYKdBnT8zZVhHZJesQ3ZJf7033a8PMlq69+uooqGLJ7NkLeii9/30reKWXGfucmS4/Gu7dobU2SQws3ESteai4O/2IupxPP3zh20+a2Va0Jt6YqYuXMoutWjvKVadqv02kCdVVNu+Rm8nq7ra1GCzb3ZAvbjNqlZdf6TL/8BprMsP6Jpy3kHM/USTm4LbwfIGvtpwqQxP9L5J4W/XjEs5jLJlCtYxJ2VTt7afp6kinl8PxwXkLBQvu+C4D/MHdZ2+lfgC6G6ubde2LyFy+et/IXIR9Z0QuYg6RsyKBAJC5CLhhpRGcOKQP6DVMznNWply2kg0qMHaxxg1sHInzuJZOIuXQ8s0KctsRCFyQQcU0hMgSotxzvDT998EQag1hbS53d3AtyjQQbdfyHeHGFUpIyIXKDptCIZ1GtOqAuGBWmumiHg1Z9msvcFpsz02h67xFLxWtdFUwe8ZIIQUn5UzAZFrwP07OHPl6nEU+xtqqz14DgZ6lGpAcCg0s2cQr/nIzlqlialRs32AQQmcPoiQGRZ1N9bvJuuOjw2+aRI5u46eIdW6tp9bcDyIiwVcGAr/faJ+igxzaLNdKN20QebZWLJaejn8vEZ9KCFyUfdQYvuEyEXUd0LkIuoYMSsSCAiRi4QbUhpxcsgQ6rlvH1nzsEt99lTK9q2vQS1qz51H7aDK5fJ6DDt3zr34ihC5RsDqqje68DQuqDPvzulPQ9WoQSK3CwpOCW3CO1fjtUe1gZpzun8Gilwg/b4iWB1A8BucQt08qk1YthMTNrvWmyGBmHMpCF6JXdQaKpQucg1bXoItXFQ7qCYmIHK6sDgIDuE8qaOS2YokE6bLPPiG4LX9anrrmj0JiJxtF5GDLxNVRbbSJHIggt/5sR3+aBc8X0mJcNkOXOLx2oA1IOxVFWIHkTPEW2P0Txo7UwS+EQ9T3ncVIpe/LhQiF1HfCZGLqGPErEggIEQuEm5IywhW5V5CyzdZdkCoolyNQ0DXp8Pe8yWgqgqSp3+JIufBypCb21iR+utyWttrk1Z7EPKnN/dBIqMLTL/PStXhG2gC2MkmJlOnb86AyNnzF9JjmOMR/pVD+0AeY9QPcz+nGrwN21hxW4okPi5hexRhg1VaWVLEC9cl+EQdBTdRvYziFPY45ILIJcLrK8DrM8AVVxvOU7TcDgVlMnWHlzSm+eyC0LWHsneWm4N0LY3dForLUuAShtd23L8GXXuNQCkQnFdVl1E/ewPIE0rNxPnaNnwJkctf5wuRi6jvhMhF1DFiViQQECIXCTekbUQJdsalaD0Vr6evugoJB/am3VcaMgK1yJ7ZnZ7FTxvxqsIrm5IOQuQ8T1Pw3JR6qxyEpDgBkXsU5KtKky/nyoLImTNlRMOo2HqYygg1NGxlztqiRtaK3KtQnm6OV5guBRk66IYIdh/9DTqNZD9KkbMSnPXKIZHzfx6B11eAVwIi1x4kSZEv+8qCyB2C7VoXdBVSTXQDSiVw2X6ICVv8fevgBoSAlmjl8FW8bsZLKXLrqTd8esJW6/yLa1O/CZHLX3cLkYuo74TIRdQxYlYkEBAiFwk3ZGQEp/F/HD3exOtERj2lMSPA4Xw34rU0w3BKL3pC5DxoGHKjzlNB31KJPxQZgjoWpsj5QvIGkg5LDBI5yGNkZ4ZkUvW1wMPrCYP0ki5nbH3+SyfsgC3qjBxCLxXB84Q8qvBEQ2x8fb2hkPFrDSY7CQ2tTDReIry+AhvDiJxqb6uMnrOBPkUuDCOP3TbpDWbW9BHfIC7xeFUDrzGdgWcd5gvrK4qcev4f5r/Pjfj7In+pWwYBIXItg3vKWYXIpYRIGrRhBITItWHny9KzRkAROXVekYNd2/r1KN0DNeanXhi856agmFVbSxXJ05d75svb5aYviV5vT1DXXqausVsxnic8Mxju6Khx3hE08dAqnH2lyFpZCVv4LJxzsZLYH9XhcR+kKi4sNFR9XILQzR/qM3JfQbgj9/NhEQwtTYDXD3HO7EnuaGywxwhd6wKQ01JzRu4F92yfIYPp2a3xDc1OmW7WSpvUGZ8GCW5b/GSsxzPyBha+Tohc3rlfiFxEXSZELqKOEbMigYAQuUi4QYzIMwS4rh8Tl2vjzjPl2UJyaS7Ob5VdsIZmTrvYHRVnssq2B+6pdx+lo/dW0QP/jHN15y6mypK+NHHp7HBrmDw5hCFNg0PrpSGtTd8Suv0Az9nRM5C25fhP/HXkHsO8j6RbOsFrFmrYVa6YSr2XzvKQ1xC7w/DqW0jjJu2gzcs+D3Tw1MvD+OOWhbXRXTK3OxEuCe5j/jd2FtP4KdNcGxXBTVG6IU3X5XuzO5UiTTRXiFzeuVKIXERdJkQuoo4RsyKBgBC5SLhBjMgzBPisIoe1rhMi18SeC2SnbOLZ3OHztch1S9idYb3AZvNhC0z00dPUHsl+9mPqbM7etoDFMqUHASFyEX0chMhF1DFiViQQECIXCTeIEXmIQG+QuWdg9+1C5vLQe2Jy7hCAclfZH5lfuYBf275YjeN8wm2x3mdr8LwQuYh6UYhcRB0jZkUCASFykXCDGJGHCHDSmSth9zy1cSvD/wcTcuThosRkQUAQyBiB90Dgvo9eKNNO70pIZcb4RaWDELmoeCJghxC5iDpGzIoEAkLkIuEGMSJvEahFcevuqrh1L7yuytt1iOGCgCCQKQK/Mh24NMSjeD0sJC5TCCPVXohcpNzhGiNELqKOEbMigYAQuUi4QYxoBQicREXkA1IPohV4UpYgCKSPwLUqe+2p9DtIy8giIEQuoq4RIhdRx4hZkUBAiFwk3CBGCAKCgCAgCAgCgkALIiBErgXBTza1ELmIOkbMigQCQuQi4QYxQhAQBAQBQUAQEARaEAEhci0IvhC5iIIvZkUeASFykXeRGCgICAKCgCAgCAgCTYyAELkmBjjb4UWRyxY56dcWEBAi1xa8LGsUBAQBQUAQEAQEgWQICJGL6PMhRC6ijhGzIoGAELlIuEGMEAQEAUFAEBAEBIEWRECIXAuCn2xqIXIRdYyYFQkEhMhFwg2ZG/G9C2jb8tNkp7/OfADpIQgIAvmIwOUwuvCqq6jH3r35aL7YLAhEFgEhchF1jRC5iDpGzIoEAkLkIuGG9I2orKQbJ01SBK4Qr+vS7yktBQFBoBUgsAtr2I4X1y18/roL6cpff9gKViVLEARaHgEhci3vg1ALhMhF1DFiViQQECIXCTekZcTJIUOo5759pvDsF+jzu7T6SSNBQBBofQisjxXSnVjWW3hdK4WoW5+DZUXNjoAQuWaHPL0Jhcilh5O0apsICJHLH78PjcXouzB3riUBlfnjNbFUEGg6BLaBzBVg+C+t0/j/85tuIhlZEGgDCAiRi6iThchF1DFiViQQECIXCTekNGIbSJzesLUyJe4wAkQHgpj2LaSex/wwnKSxVG09SKNjN1Bs/T6y7vjY1+AoNrGjzJ36c3vQpwvLyXrwnCRYFtK8aXNp+drJKfFumQa7qCZWQmOsn5NFF3hMKKTpMaLXM1orGgPTC/p/g16tfpJGEwbIyfUoHb23is7+P6dpYK93PSM+Svt3l9KVwz7xzwL/7v9sV+D+LjrZu4QOHv+PtO06AV/3ViN3IFq/O+5ZyMnS8nSQe4BNR9i+VFS5PPWgmB0VBITIRcUTATuEyEXUMWJWJBAQIhcJN6Q0ogRE7jy0erhVqXEeYoXNaDzVmAIidzdtB5EroQ/Jsg57cNpF/UF6PjB3LsW/h9TPO9Du83A8azFHd6Ji62X0vZUe6fw+WXV/Sol98zV4lHrHqujE81hrkWetxm7bDnetS7DWkQnMw1oVoMnaZLiyczHmZ94+Zuyg707/nqzzt9Ja+Ge607wDfLmZRj8FUr4gZIyEpuxyx7mE6NKjafg5w2Xle/Ma4D8Xi3hXiFy+u1Lsb2EEhMi1sAMSTS9ELqKOEbMigYAQuUi4IaURHFb5U7S6tjUROUUAQKYskCn1cz/8/FwcFqV4LzGR8xA8NcYojPEExthFJ0AkrsJPJxe/qpU6Q4iO/IBowDKeZhhI3cNUdvBWmj6IaG1Q7YGiNQYqYc2QDfTnvZMpZhH9EuRomu2Dg5iv0ozts7qQnkC7hXwPfa09PfFDIVWWTKWbS9dTH7bJuY9f7HmW4+d5eCUictbPoNQN1DMZ8mQpW0Lmc8jV3cCjiAi26jWOxZrnUhl1UxixAngL29NhBln1Lu0KeyAnYMxNhPVaLpYwCLZwa+3HtWgznVaSdXqOIs1k4WfCz6bNdupP19ACtL1Z2a3uf/kcWe1moC/EWSug0tnkUY1zmWftHTDGlvC1G6zHAGvlf1Zzp15F7AUf7mGLzMd735tEMWSwtYTI5aP3xOYIISBELkLO8JoiRC6ijhGzIoFAJkTuPey6eNvoD3CLxDIibQRnl7x2Hna1z57K2k4mci+i9+BWQ+R20UaQiMlKval1iMmGRS5Ex769gu4dMZiSE7kFtGFRKX2BfsWqq1bkNKEguhqvPeo+wi5PFytywXNMVvMMo3bWbjprpEBH6WLSEAP54CZQgdpBBTrLP7+Pn/vj50tBHg8eNnMYYuOYvYsmYF2bfHOD5Jzur4mN9z6Pc+giR4lsh/fUPAmJnE1mCukeGPdTRYj6hs73LgjTUDXb3XTTl/9Kr7fXc/MpKqCtVMnHoUr2xc+9RhCd2Mnv2gTLWYzvh2PA9N5PNtPGcxHI90OQsCfxtk3kbKJlE3JopYyfJpogkIbgLQWpK7HJoE3kmAS+BHwmcQcPWcWvPGdfh5wH7UqNtateQs1Dd6XaKuLYL3yR+Xj3o6cp1muTELl89J3YHCkEhMhFyh2uMULkIuoYMSsSCKRD5DaCRPCpIt4Uc7p7/mZbrvQR4HThr+LFhO7NLAld6yNyhVSEnX5nEAqlDoWGVmoi4BA5kJ6jzxCdmaHPXPVHHzu00vUGCJsFwsYsYiUIwt3/gbFnalKBfBB2aOVpkJhNSkXqr5SyiUtnEz0FcsJhfyBSS++4CIRjO94/ozxnK0d/bj8DxIIJT6lHTfKSgl0gHyX0PitLh2+gCWAPSsU6fbNHoboMRKwQROxD+j5dhH8D86QIrXTWqtb3Uvh8ULxsm7fDZkcFw5m1GDMaXnuf/nT7ASZmi2kbQjqvS6CI+p90c45P3XTJsUPAbKUQ73oV1rdxX9lAwI27giCfD4LMpJLiwmbdGZ1+SsELXqmwZlL4Tz7VT2HCBPp1/7OU/qc5gi2FyEXQKWJSPiIgRC6iXhMiF1HHiFmRQCAVkbsHOx9Oby31ihrvrhXAkiPnDuA1OMMwqNZI5PrGRtFGa7FOeJFOaCVIj32OjhWl/wAZ+8BLAuwwPGbNIfv+RESuPQZVSph9gUj1A5H7wA779IYAPjhDKVEH0fayUKXoUXoMpOgR3+PiJXI6kYlN5PphTd55lC1phFa6BGdX+HweIre0/QyQ0sCF84EHz/S3gxXNm+GhrW5P+9wd7jjJZ8y9UEXODn+0FTmjXhqy1330N+h0zTsYzITXhn3Ewp6LSswJ9c4565gU69s0kVP2VegziAEllMfRoaZ5egmRy1PHidlRQ0CIXNQ8YuwRIhdRx4hZkUAgGZHjTIm3w8rjGZKOSCwsokawujkftv05Q0xbI5GLV+RycUaOEEqIDI8cSmiH0Cky4J7b4o27o8ghBNFVjgwpAZFaAyKnznpZOJdlhxGas1z6vBdfIYlV7MQkJkRQq4mJidwaEDlnHkNQ0j8jB7xOI4RRnUXTIYnOfB4i56qI+lxaCewvtUMiTZion0izhjw88AnahbFLsBaDifOuTe40GdMEM/6MXH/MqQirwtuc23Ow8px/C35u7TaexDQ63DLJ2h31k0lzAiKH0NhWcwmRazWulIW0LAJC5FoW/4SzC5GLqGPErEggkIzI9caOtRJWjg6QjpO9YzTj2xXU0HUgvbxsBHXJeCV1iHbrRFYZnwpKfu3fvZu+NmxYZnN87wKqePoUFSFTuXvV0f7rB1HBig/p4yu898tp3A+GZLCOctg+PYnt5dTzD8WBOfxrnABcp+LW7RmQudZH5HYhnK+ErguckYt7GhA+uHRO/5RZK51+oxGmWH0GYxeqMGDnYiLwZ31OjYncVVDzlEoVqt4hBPAlhADymS3vZYihJhK4Aue5dFOPauXp65BLU1rAVuSsl6AyBudJQ5GzQ1HbgZDZZ/y8pjr348gnt9IJYTTpC1zA+/vAW5+/88qa4etSGMQQvugdJlnWykpkrfStl0Nh+xOFJTWxxwwLu1VhpfCnb2LdwY+1ELm4z5TcEAQEgVAEhMhF9MEQIhdRx4hZkUAgGZHj94KZ0Filu45W0dM7Gui8kXORYGIKfdeqoBXYysVia9B+WsJ1cbKUy2stsrqV0ndm9aHXVk8Jb9sXYx1DO2xS16LPAPwwJgO0jnKfkej/O2+nQrocYVXvoRqXZY133lBt+cCOdUTlbUh5Kds4U+KFSWxP8j56cYjlH/DvM22ayAEAZGuMnYY/znROCXtWDXAerHLFVOq9dFZIvTKdRVKdjQP5euOFYho/Bc8u+oxbtoM2PzOSYsh2ue+NuXTlvf/lS8ShidwUPANzEpila6098M/6/FllSV8zT6JV6PbHf5J+XTX/SOnMp8+TbdyhE8joC8pb3xL6ySa+VwcbSrQNtSBb3YPKWyoPeDD0NsW5w59c652T3wxf72PA9ZFQcqz7HMPn12+/O1b6WKdaRx6+L4pcHjpNTI4iAkLkougV2CRELqKOEbMigUAiIsek6x9hob82UYz4XNM/WNtB3PR1Au16I06rfkEMRWmnUI/9FVqNgipW2Wk8Tapda9SrchQ1non05xyC1Y8On6hFQWHOoYeU4FD4frFkDT0wYhr61kFN6QqyuIS+sO6nLpXQBCdONLOVU9na9jSr6k5XEftoAlX++Bxa2TDfUdUSEbkB2AgepcEgngeM/aU0CZvbStwj3NNErhyb+m1005ZVPtWNbZw6eQe9hg1+R3UuSxM5+76jTPqIXjk28VuVbZuhXNrX/usvorFv/VdG4ZWtT5HTm/C18ElcyvkofDLiVCCtUCmywfYpRShKNehyBxoX3/6+nZ0yd8OmGKkQX+5U4MsdXfZbrgwQECKXAVjSVBBIjIAQuYg+HULkIuoYMSsSCDCRW71mDY0aMsRnzzvDh9NS3PETuTr6EUjWQyBZVFziIzqK0IHIUfF6ssrbQ58bi3Gn0kfTp6Oe1hlsgis0kev0Oh07cxP1iS0GUXuQjitFbBVSws+m+YtG0TGQt7ditykid+j4bHqxd3d6CMqVdRgk8tJRNGzmfPpmWRHGNKnbLx2MeRZSO8xTbNS2REQuFusLmrYe7bTaR09BXVuwClbPphfMHAOQ0e8olJjFC2/GHFq9Ww8b7zQ2zlsE8qaIXHfc74r7S2E70ugvMmTQIXIXKdJ7bPFDZiwP+QPW39q3j57fxWeR0rvugD9aV/kBe91h57HSw6TpWxVCpSKjrCHlPl9QmGruy1Y5a3qLZYY2iIAQuTbodFlyUyAgRK4pUM3BmELkcgCiDNFqETjvvPBiAp9+elKVG/ATOYZBnzW7G4pSjUJlCf0G5GvMQZCiQRyOdTfu1aLV+fpcG0hQDCFcljUMShvCMqHeWfdxGKYmci8rkqRVOh6buJfqw+TvrCaOIFlHFOEzBIyqcK7tHKhcV1BFQxd9Fk6RMg85DAmtZCJ35AfrUQxaE7QajDkG2femoFgwEzn/HJq0noNQtPkj/6JsddcDUlaKs00LVuL+3eq+DtGEfX1M6OUf8f4gV6E0K1OInQSR6wkid+65PdJ+rtgfOtulrssllyAgCAgCCgEhcvIgCAI5QUCIXE5gzP0gQuRyj6mM2PoRCA+trEKij+t8Spw+Mwdio4iLIXJQpc77vAf93VX96H6kF1+YhMh1gUb2HJS6+5ngQMV7vn4zFXWMJ3JvOSTQiz2IGJIdvIc05gX171DlztRErtqaRb+K3QBy+HMQxpeJf38GvzORU3N4CKBS4pZjvnmec3W24tYH6z12CRUUDHQMqqp+jayeHZ0zdEfvjdFdywiEl5nmIUNWNZEbCiKXSebK1hla2fo/R7JCQaDJERAi1+QQywRtAwEhchH1sxC5iDpGzIo2Ajib1n7SJPrSm5AD4Y2xS6dAgatwko/okEo/kVP10lRSEywxiSJnQeViwnjKJDNxVC1OnJJUkdOJVY4gcbur0rkqnwrXTKDI/cZaRwPx/hWqhtUrIFeHUZi6UIdWOkpgJxhepe5foxS53+Bc3Tp1rk7bGCCuuH8M94fut+jj/8sociheHbuinqx6JnFs21Tgtk7hxuT3Ufz7ZltPdhLlTwAXBy/fQNaecMU63PQECT+QQGX/Z7qIuf96lPbvLg3cTzfxSSEUY1JfSHBdOk7Y8gR+X2hnAcWXJyorqFPvrQXBbkEsTw45ST32ooq8ulrpOTwhci34cMvUrQkBIXIR9aYQuYg6RsyKPAIqa+U85Gt/9pRjqyZuHaj76KsgItAmAAAgAElEQVRpMNS2Gk/WygHYSB7tUE9HGjqC7IyliSO2UDV6ntipM1veb87DHbNmB87IDUbb96Co4ZxZLZKOnM9Ebgrd9kkxff28cfqMHJS7SVDuqkDAumHeo04Y42Cae1chvXjkdyBme1AgC/Mj8UoyIqfDQGGYCvPUhE0ROSrFOb4Seg1z6LVxeGcnndAFCVHYxjcP9qBPP92tkp2o0EyssxfWeWLnShC1u2mM54ycxmMGjW54DmO5Z+RK0O88TP+wELnm+wyYWnBWuqGpKtlJssyUftPjyh2oMgjVSOZSgq8b7KsDFODNbgZNNYcuBaAuOwW/0z6kTp3znl0OgJ8r1ERz+trZJs37dp24XCKdD1gGk9UofzxIE5BcZ1NrS1QjRC6XT7eM1YYRECIXUecLkYuoY8SsyCNwDwgHX/Fp8uuQdfJv1AdZJ/015Dxn47zn5PAz4cwcX/x5bNcuWD+uFuORk8VSNYQiWIdslcEaddz/r+jv3q/DmJ3MmOU4ZVecWc25UC9412E3qMPYXULGrnPP6YWMxdk5fThhXTEonR/3IupxPK2CB2rUVhtaebCQyravoW8jWc1lODP46Yoqsu74WCMJJWfoAqI9IMPV9dMMAXoUSWaqVFH1k0hKYz14TgjqWp1azOO9/ya+GJgPdapK15VDsp24cgewYTqI/VoOgV0Pks7zZ0Tk3ELiVhFIlSER1mn8qIp1c8HrOabmGZ8H7U/tYd9ZZblL5Nxi3liTGaPaQmKVp1AOIEQd1O1NvTcPcVF9EC6sPr0qnf8/4QsKXt9gfDnyE5REQOIWg3sBcB/gXXccmvmIZSHpAuSG5HqxVLgEa+RF/k9xcgOFyOW5A8X8qCAgRC4qngjYIUQuoo4Rs/ICAS4KzunW52agHuXFwlrCSJC4G0HiCjH3/8oQz1ZL5DwEBAlDcZIQFxfE3o3Q1Ce1k/grAP4qgAnKdmzEuYg1J+KB/qrbMnlyLnsTT+SMt/1qeuuaPQmInFvo2mnPxCsG4pW2IqfLKEyz1T61pg4gUA2KTNkq4Frcn06e+mxBRc5gsWER0Vt4/dSeX90fhnFK/U+th6AsAS6biBMN/SsRFwFvPwN9+qHPB07R7Pj16eHc+0z63DOfHIqoCVG+YRkg1rX4XRFqTWrV91NOSGpL/CHI8ZxC5HIMqAzXVhEQIhdRzwuRi6hjxKy8QIDrpH0LahmfFGJCd20g1DIvFtHCRvI5QM41OQ8vPhuXSUilbXprJ3LF1stURt1w1lAX215DL3hIj9mYIzyuX801IBYLQOq+o5SquFIAhtzcxnXQ/rqc1vbapMf5CojZZy6p8hI/pzA4n+WCAqjI4R0gkmkTOXu0QtSZ058TVWduTn9Dpp5TDd7mM5deNSgBkXNtK1fqXcLLIShoocjJSvo+COhPaTt9HzPxvxb+1YRO26DJJJRMutlDMg2+TADbcfZYc+UxlhprQtgzh3ab9RhlFH/S6ERwrS38N6JR0wuRaxR80lkQcP7kWbgEjughIEQuej4Ri/IPgR+BjOyA2a/ipUPC5EoXAVaPOKzve3gNzvI/E62byEG9srZoOA25uYXehsJkQuOQuGMCzpqp31H2oTvIFit06nKSe5jfg2ej1G0Qoq8UJyRybpijGSMbImfOjRGUs2LrYUVK9VrctTkkyjLhoD4iZyuDHHqJQuMOSeOwzMsSPGqumkj2PN71h6zDJsoWiLJ7Pi85kfNPng9YssUm2Qv/yH+0bsZLKXLrqTfU0xNxSm66n+YIthMiF0GniEn5iIAochH1mhC5iDpGzBIEBIG0EWjdRI432Zqw2KrVdiSeucZRxAzRQIjkAoRIlhryFheqyGh6z0OBqtTg9zFcp/ArUMfCFDnV3lasPCF5PkUOxIq+Znzl/dl2X4CE2bd9ZGyOCVM0RM2x1T4jFxijEr9PcnFJ9KDYyhOzFYsJoj0nd+DwwdhtSnlT5+ZotyHEtlIXmDuBIqf75hOWKPnBfu8MrOvgLx+hTkBa0/4kRrChELkIOkVMykcEhMhF1GtC5CLqGDFLEBAE0kbgRiiij6H16HSzLqY9cgs3DFPQmNQ9hVBIDnN0Lp1BUpM3z2Vv1p1bj9I9UFx+6m3DSswPcTZKnbkLhCs6Spq3A5JhgEjq0EooVypriE5Son+2lULTJ3QMrcT57U2RtTIOiyUYY6SbPCXM93YfR2GyCaFL0ibA5k2e5akw1titqRU5BAK3Giyd50TjY4fytvDTn5vp+xZS+2M4Gpml2p8bI2QUQSD/ERAiF1EfCpGLqGPELEFAEEgbgcew++Rcjs+0SiIH0nOogd7YWUzjp0zzYLKLjt5bQg/8M867caZF+8JZtsr/mkoTl85OjB/alF2whmZOu9htgw3vuEk7aPOyzwP9PPXfUPNt3LKwNqYLE6c48pjCjbDlJ9euoHtHoLxGygtrK5lKFY9M86yZyYcn/DTlGCENMrIh0D9fsYQv454pRXwNQc4Gxwj22Yg1rYRdmdSljOAyxCRBoMURECLX4i4IN0CIXEQdI2YJAoJA2ghwzbqJaH28tRI5+4xc2oi0RMNAdsrmMgEENPbkPrcsQ3PN26TztASWRq1UZ+W82TmbdKFNPviNIHJ8BjebJEpNbpxMIAjkEQJC5CLqLCFyEXWMmCUICAIZIXAnyByn4m9dqhzUqp3pqlUZwSWNBYEAArtQn7I/0USuRdA6rvUgcUuwlHclrLJ1OFRW0aIICJFrUfgTTy5ELqKOEbMEAUEgYwQ46QmXgliLV5/Wps5ljIZ0EATaKAJIcHIPSmssx/L345VtNtw2ip4sWxAIRUCIXEQfDCFyEXWMmCUICAJZIcDn5bhWWTu8uLi4XIKAINB2ENiHpaK0J03Fa50ocW3H8bLSJkdAiFyTQ5zdBELkssNNegkCgkDEEfjeBbRt+emIGynmCQKCQC4RuLwXUY/jUrY4l5jKWIIAIyBELqLPgRC5iDpGzBIEBAFBQBAQBAQBQUAQEAQigIAQuQg4IcwEIXIRdYyYJQgIAoKAICAICAKCgCAgCEQAASFyEXCCELmIOkHMEgQEAUFAEBAEBAFBQBAQBCKKgBC5iDpGFLmIOkbMEgQEAUFAEBAEBAFBQBAQBCKAgBC5CDhBFLmIOkHMEgQEAUFAEBAEBAFBQBAQBCKKgBC5iDpGFLmIOkbMyjsE3kPa+1/B6o/zznIxWBDIHgGu28dlHqRWV/YYSk9BQBAQBKKOgBC5iHpIiFxEHZOuWZWV9N6kSem2lnZAoEeO01NvBIGbjHGvxus6vHhjK5cg0FYQ4C8uKvE6htcGvG6X2l1txfWyTkFAEGhDCAiRi6izhchF1DEpzFoB8vB9tDlrCER+rqJlrD5pNp1MvJ6/7kK68tcfZm3IPfDDWzkYJ2sDpKMgEBEEWJH+FmyZiNczQuYi4hUxQxAQBASB3CAgRC43OOZ8FCFyOYe0yQccig0Tqz4/xUvCmbKH21bSHsUQD2ex8dwGP9yOvsez6Ju91dJTEIg2Au3xudgGE0fL5yLajhLrBAFBQBDIAAEhchmA1ZxNhcg1J9qNn+tObJLOl2+8Gw+kGeFkb5DiE0QHsiDFveELDinL7Ya1jvZfP4jenvUj3xpf3HkFbV42gvbv3k1XDhuW5fr12A8MfJL+jzWZrLJ2Zpxy6vmHYvr4inSGtdtirN1/TN+W711AFU+foqIO6czhtmncejOYC/bVPXuKumTQJWnTjyZQ7MFKF+Pg71ROsZnT8f4ag30Vfr/O4xM9Oq//a/B3Irv4+f3FkjVxz8ojyz6j83Z3S98/uVo3xqkxX3D8WYhcDlGVoQQBQUAQaFkEhMi1LP4JZxciF1HHhJjFGyQOW2pyBQib2rJRT/ksmFV1Z9wms9mQy/UmO2A4K3PzcS/TjWcM/aycb1Y12frjiOtpU+l6WktL6NszL6KGrgPpuWUjqU9sMX1hPZgF4SilG2MltLXT6/T0tg/ozMi5tJBWYqy7qcvhGMWuqCerPg2W5bTtSLEMbDkGrPrWWmR1q6O1sa40ALiNSfkArcAc1fQba10abVMOlrQBhyrPU/Y1bhynd19gemwlno+71S1Wb6+jS+i71hFawTfwe4xeJ+vQTRr7fcBzkNveHmct2v0WWKk+IZdN5D6aPh3+nIJn5RaaeH09jZ82vRHPSuMxaJrPRuPtkhEEAUFAEBAEskNAiFx2uDV5LyFyTQ5xziZ4DJu6TzDa0pyTB7+JRzHPABCI1WuQFcRcSYncU9iULsAm2MrZUj0D1dGPsPF/CIM3yfBmpkw3nnwe6B/R992mWbSySvvBiytwBnnat2sc/XHdUppUu9ZDrqtAAO+iBUNfppeh3MUpOMpHXqJQB3LRla5TuJZTRUOxUssOn6ilgbFiKvv3idS5aBoV1U6gyh+fQ3NmrTOKnd1W22KTSptQeJ8TeyylTD0xkaq/+gqNAREccCnW1qGeDn34OfXpdb5jq2qP391LE7nbPplG4185Tv5nsIreeGEt/Xd9gbbT4aDlVFmylVY2zFcKpn2xfVMn76AZS0f42patbU9vTOhNN5w3LgGR08SacX0Y42nyWQe8ulDRfP2Fh39+e0YQ19go+gdrO0jYCiqKzaP/xFs1pcD7PpvYsW8Nnn8Cng6R86idSGZEE/nrmxSXIo4ghtZ4+4nO/llJNVca73P494toJ6HfaYAlTQQBQUAQyAMEhMhF1ElC5CLqmBCzbsTm6BHcv7YJyUM4gbCNqcNG/2/uZhubzLMTJtD77dsr4vd8/f16k2wUvQdGTHPC9Xyb+rK/Jt4Io29lp/EektI8RC7TjWdLEbnLY0Tv0VJ6vWIffb+onI4qFamQJsWqqHLxq1S+8GYqtpU23zMUgyJHtBV9qXi+X11VJOBDkICLaADaHB2ygTZMmkyTF/EAS2nDohKav2gUHQMpsTxtbSL3jlKbVsGmaloKm7YqsgLCxmN1mEF052o6Uo5nZCTuF+H+Ak3kjjR0dImqGncXbPCGja6AzfNg81h8qTCVnofqtFUR2xVY7zyqNHaybZowafI0bOZ8+mZZERQqHm8QrQdhvdOsY/KiwUS1B8j6iIkTfl78JC0GZguhllHtkYAiV4UvEQrpIU/f71oHaIWyFX2HPGZwmgLVsCKgGtbRCsw7j7H4tiFpNAcWMs6vavvZd1ca7P94kSFyl6FfIc0DPlZ9Q/pfYoQQueyflcb/Tcz089T4GWUEQUAQEAQEgaZEQIhcU6LbiLGFyDUCvGbu2lybI60EfUiHjnd1VmgrJzpEDBvQP/LmdDFVW6Poy9gNuKeJ3A0dY9QbP79ecYAex6a+Rm28/Zt6a3P78I2wCjebgk37eNKhYmfQ92z6m9lG+INJ8mPon+55t5Yicq7KYxQ7Jkc7GDfGqhNWUKeJi1F+/JCU08ZHZ9LTIGg16o1VUNRmURcfOZtqQhm1ivSCUUKd0EObeID0OYqcoxoZlc/4PNTW31Vh3ELqxuGCB10VSj1XvJbfeS02hM1WYz3t+e9Wu3Z8xq8cpGimJkWKnE2hHvsr1BcIdXi3i1EiVQgpfj+BeXoDq7eos36Olcxr5gmGVgbIkaOQ9vGqX3VYT1cHJ6/1uj38grmUfw7h30sXgxAvRNijwdnGXhG5sTSNtiCc1vVl2mp0CJFr3LPSiA8TujbX36rGWSm9BQFBQBAQBNJFQIhcukg1czshcs0MeCOma67Nkd6ADqbuo10id3rHb80ZKq3+vHluD/r0g4+1gqEIGG8+l0MR2aCVG16nE843xxNmhvu+Tad3I1yOzXex2nA3YMyORlFJezPbCGzzhch5wxmVn0B+joDIDYBqVVDgArDv2c2B5CVu+KRuZatNIDOKmGhFLmYTDBMOqAgXUx37DFkIkfsM712G52H48OF0cRUTEU3ew2y1vEQO3mbfnrNjBc0f+ZuQs3Ar8KisMWob28xjTsWXB7Poz/jyYLaZ8z8xp1YmQW7vjdFdy5iosjR8CJb0R69LgM1AB5yq6tdoHdRAL9kNPSOnnmvG5ULd1/69D3By1MMkirF5/pdDidPn73TbvhiqWD3bUB99RA42L28gmmcrfBmo0QlCK+3Q18yelUZ8kEzX5vpb1XhLZQRBQBAQBASBdBAQIpcOSi3QRohcC4Ce5ZTNtTmKP5vlN1ircp7zOA6R66zC6f4y+ht0dccLNF04NZusPZP9iTF8YXSezSrun/d5D/q7q/rR/TXvOKFxQuRs/BOQI58ih9BL+ONUMJmInVzDOUNFUO5iCDlsHJHzqUsw03120iFyWiFjEvjpp7tdwuQ8bia00lbKFDHCc9cHCUKc82AmhJHbnPQmbdFhlsett+lszHM2EM9Yz19a9DYIqXv+sBDPbZVDBp3pA+cKHTVaEV87DDQZ2SpEaGgVwkHd0EuND19GDfQROW2no+RlokanSeT86m2CZyXLv0/ebs31tyoHpsoQgoAgIAgIAmkgIEQuDZBaookQuZZAPbs5m2tzlJTIqQ3jKlpMs0G0zGbUIXLlKhzPVnEoUYbDUCL3c1oeu81NOOG0GSShlU6Wl8TkSJ/lGkujEZpXY6s9vsfMhFxCaS0ouJjqoWLVIAT2C+v+pKGVqRQ5y7rGnOmaQROHPkfHd7IathKq7Bxf1kRbEbJ+Z4gPsmdaZ5CYQ4VLQomqxZmwuIyROuSR1V8m96dr9ph2OlT34oKx1P3zLfQW5jxJ74ME9XfO5Y1ueM7BgbO9jgE2vUZsoRM7bVKlSdZufOnwP/s+UEg5CrMHN03e7L4my2eiLyJCPtaaLHvO/ilyiPN4yF6p3BpC5IjMmcfTv6fHu39dJ/pRn7H4rJbOlOkSOSiiqZ+V7P4+CZFrPG4ygiAgCAgCUUVAiFxEPSNELqKOCTGreYlc0IAl2Jz/kBZgA63PTZnNJv+sNpH6bNIxKB0dQRYmjniPKneaxBLd/AREb17jFY0jSq0Yi75bqBrTn0D/HvsP0HyM2dRZK6MYWpn5k1mLYEU3C2R4f52wxpstMvN54nvw35G/4swah8W659cSjWyyPnL0ozn3Zp9hS9QjbEz3nmc8HgBn9uqQ6dGfuTPQxkyU2lZumA6uuUAx2Rh19J1Zv6DXVk/J0URNu6bm+luVIzBkGEFAEBAEBIEUCAiRi+gjIkQuoo5pQSKXFSK+zXMgu2VGA3o3mLXo6U1Hn9FAGTVuHUQuoyW3fGMOczzGalpTla5o+SXmzoLgGcfcjdwUIwmRawpUZUxBQBAQBFoOASFyLYd90pmFyEXUMflG5PIHxlBLhci1hAProCB2yaK4eUvYKnNmgoAQuUzQkraCgCAgCEQfASFyEfWRELmIOkaIXLM6Rohcs8Itk7VyBITItXIHy/IEAUGgzSEgRC6iLhciF1HHCJFrVscIkWtWuGWyVo6AELlW7mBZniAgCLQ5BITIRdTlQuQi6hghcs3qmGgQuTraf/0genvWj5y1v7jzCnp52Yi8DT/cv3s3XTkM9dKa+vreBVT37Kkc4hTui4fhizFNvZbQ8cspNnM6WWVcBN17lVPZ2vbOjVlVKCgR16b5DRYi1/yYy4yCgCAgCDQlAkLkmhLdRowtRK4R4DVz16bYHJ3sHaNfLFmjVpLvpKEx7ogGkdNp9Y8O2UCr/+8zrcAnK1A/sDqk0HdjPBXeN7Sgd6OmifcFDzdo2rQERK6O1qLY94Bg/b5G2eDpbJcpsIuT22+ZjLHfnnkLTS4rQoECLv/wOspKjM8hqc18EU3xtypzK6SHICAICAKCQK4QECKXKyRzPI4QuRwD2oTD5X5zZGp60VJ6acEu+rR0PRUTcsKXoqbXfU24kEYMzcWuL7cLRDdinGDXqBC5WGxqCPGpooqGAiqafwFVPH2KijhtPxSoslFP0QMjptHHV9ir0SrSVQM+gCrzFhKJFGAzH8h2iOyihNT8+iqnypKtNKl2raviqPe74/4q/32MxmMvGPqyXyEMtcO2RxO52z6ZRuNfOU5+taiK3nhhLf13fQF1Lpqm18QXxqvsND4wNzJb4guHqZN30IylI9y2sJ/VqDcm9KYbzhvn1iD0Ode121XTTCkC4MkY+uZ3+nLJjDBfoMFHE6juq68YomTG+gDE71KQ8A747NTzYqqA110BvMpRmmE6nR46lLrs3UtdEmIdgk1SIoeafJ5C74rUOplAw9avff/GC9vopi2rmkTBy/3fqhx+2GUoQUAQEAQEgYwRECKXMWTN00GIXPPgnItZcr85qkMx567+DbAqWDwF3+hX6I0qNq1l/z4xsAnXG+5x7Te7G+sAQahoKFYb7sMnamlgrFiNoTbMtROo8sfn0JxZ6zwEJPGm90BhP89muJymx2bSWhR//sLql1PFISpErm9sFI3+5DFafGakemRUvTe1iWdy8AQ9X7+AbugYo94o5v16xQF6vKgcCgyn7y9F8ewSkKDXqfyvN4GQ84X7fbjvh3j/QkUuilA4XBX5Vn4eS6vXTKWPpk9HcXdu010XX+8wg1avKqRf4z4oHu6bItJQCsv3TsbYujD2ZyAM8XZ4n/QVKLo9j7aiNiDP8zzG26rG04W+KzHehkmTaf6iUfQP1nZaodap27pz24XMl9KGRSU0eZGpTfgRFxLHz4ufpMULb4b9KLJdiyLbvqLidvFrt+93rQNmHvQd8piaf/Iiu0i41/YYyh36fcHvDoQ/SGG3GOt4kDYCg8kjsaYiELkFNpEbi/VVUeXiV6kcttl4HVd1EvW81p7bgTXqI8ZhnQwb248eO+MKgeM9VTyc6zR+Yop/B9Z/OEbnfaMHfbqw3GDnKVieiz9UGCP3f6tyZJgMIwgIAoKAIJAVAkLksoKt6TsJkWt6jDOZYd60ebR+08bQLv0/PUkv4p3B2Ijn5gohcmQ2klzoW20Ip2BjPd5srM9gc9iJjqoN6SpsrGfrjbX1OD0eu80t2q36cdvOTqig3jCz1XpTyZv3Y9i8O4XFQze9Y7FRv4eqsRkeg3AxyzquiRzIyhdnchs6xkRuK6w799weaUH7KXxxNVq+mzNf8LQ6nO8vo7/h2HB6x2/J6tkRBGcl1n837peCYGww2OFXRSrwHs0xm3d9Hm0b1nNdEiL3Tbx/Zyl8rJTXQox5hsaBmIyM3Urz7Pu2CtTnIk8Bd6hjQ4bQwb3L6PbYwng7lI325XmW+JYp/s3rcAtxl4P0zKRKVlnP5+dmCUji/SDppjSBWZ9dMPyEIo9n6C3qrNenPgpmnqBSGyA5+rm1ya2tYtWB3HY1Re69rg/xRc0PoJbq0Eq24zI8K59+ujueJDvPfye0NEQUmB5ZwPPrzxDfV1+iBLEG4Q7F5kovIffYmZDIYX19boLfXLXOXv8Rfs48it24H/yBNuPsn7eoe1ofgiSNhMg1FkHpLwgIAoJAtBAQIhctfzjWCJGLlmMKC8fR5RcNoO/d909xht0xfHgzELkqbKwLqfL072l596+7G01s/jjU7Ji1nvp4Q86gzN2+uIK+jtC2h5j8sdUeIueGp63Ahnmes2F2zjSpzbu7uV2PzS0TDP+ml+dejA3+g/QOExSHgNRi83ketWsXTACRuU+ZyBWi24Rdu9Lq/A58sRQtc03kQsP51GbdVk1cgnF1xwuUrVWnZtNxKGVMcDRJgDLkIy22kqN90Nl6GYTxVnoISllBgV5uVdVUqrYuol/FbnD9aBM5ApHzjK17hNvBSpN7rQBBXKPVNtOH11dtzaI/Y57ZIELDgeN/Vm2ho4qE1dF78P8stK1h5ar0AFn/wmu/BHYOdIatqn6N1jV09BBRUDkOJwwSOfUcelQs+3cfMTXhxfaz68ySJLSS20DVuhyhlO85z6Krdt6vsHex5eb7nt1Mb4OMeQmUUj/teZ3QycNQ+QrjscmAyGmyi3Urv8Wvfx3u38kq4u88rsL88741l1b82zX4nE1rtNotRC6tPyPSSBAQBASBvEFAiFxEXSVELlqOYSJ3V/FUmomkCsEr95ujMEVOqzPHoIpMgcr2grPB1SRgA5ja2ZitDtkWBjbDSYicCutDN3vjfQRELvWmN4zIVSG5RCFtv2subXxwuSdMMzt/RiW0MjWR036wcWRCEbsC57KUaueqL+tZcYtT5HS4IBOrO5gQO5v5UvrOrD702uopOtwvSC5KQQgWuArWRhCQydbP1fMRZ4c6H2ZfJrTSJlhKXQsqRe4zeOSRGI2aY2lf2m3/CFVpkOd5A+Ho+UsrQIoKQUyrDBn0TG+rlUYl9KuUNjHOhsgZm5djrnn2OTpP2KpPkQPZw++ngOnf2+RafdsRmNenfrpYO6HP6RI5PA/qrB5jXm7U2sD6tSJnk/5CfElSnBPy5v3k5f5vVXafa+klCAgCgoAgkBsEhMjlBsecjyJELueQNmrAliZyWsnRG0lFBuzNPhOGS7UiN8KQASZk6tt/JHh4HAqJTQD0GDq0MqjIBYmcDqdzlaTwTW8iRa5RUPs65w+RI2oAvh2hWE0c8R5V7jRnxqBmqU0/lKDRtIUOYnUnmcgd0hv7iwvGUvfPt9D2neY8mtnwcxhnt5p36KgKtUtALnB2bhvGvs6MXaPOXw1LYIcXVh3y+CaUt7+7qh+drtmDc2wgnd20mmfb9NZOtvV9qqf+WFcHqG+FVA+VTp/9gzqH9Y7B3L1GbKETO+3zbIU4f1dFu2H//+z7QE366QcfB87I2SGmdl99tk+fOUxN5C6Hje/5nhKQ1JH1dHyHDu9k9dNRv+zzhQj7tc50NmfTtC9svByVNBmRgyoaho3Vp7/nrKPHKLUWr5F4HjrsMQlXEqwf2jOf4asCdoPhexvn3H2a5IxcLrGUsQQBQUAQiAICQuSi4IUQG4TIRcsxzU3kVHiXD4JVOAc0S6dY92z222HDd9LOyKcUB5tITKHvIjGKHU42EZvt49iY16RL5LrZCSmSbXpdIqcTRiyBjffntJ5XNIhcJh59IJ8AACAASURBVM9iHRLJ/E0n3/BdtdB6zjeJSOwzZInaQl09e5b+itBUldgm5aXH9rdNPLZ3OPfcl3vXvWcyPyoxT4+nkrz47PG2CRsjmfFhdqdcbBYNgjZmP284NlmYpLoksiN7+1JZIopcKoTkfUFAEBAE8gsBIXIR9ZcQuWg5pnmJXHprD9uE84b77NlOgfNptUiTf74nPXx64+tW6W8qVSbMOAKTyVzxbfOPyCVfr1aKbCLXOGyktyCQKQJC5DJFTNoLAoKAIBBtBITIRdQ/QuSi5ZgoErloIdQ01rQ2IsdEuw6aVnpKW9NgKqO2XQSEyLVd38vKBQFBoHUiIEQuon4VIhctxwiRaxl/tD4i1zI4yqyCACMgRE6eA0FAEBAEWhcCQuQi6k8hctFyjBC5lvGHELlc415H+68fRA8MfJIaug5Udcr0VU49/1CceZZRlLmoePpUlmG78Ws72TtGv/zQcsfD+D2/d8q166MJFHuwkqyykNIWeK/nyVdSroHr7XXZuzegiqZYf5pj59pbuR5PiFyuEZXxBAFBQBBoWQSEyLUs/glnFyIXLcc0jshV0RsvrKX/ri9Qi5pVhQT0YRvRnCy5nGIzp4eMX05la9v7ZmhaO3KyGGRAjNFjGGp0mgW+ObvmP6J9buvI5WYtuRmlDuUdutIA4KES32R06YySW1Fp7/WKffRuUTktJJMx0i6XUN+Qxvic5GYNskNOo2PAu2+wTlxGNvkb6wySdo21KnoMpSweMdlauaVTvkFlmAxcKtlPqvOH/rqJzgjO+r1lGjzjB0oXNGKJLdpViFyLwi+TCwKCgCCQcwSEyOUc0twMmDaRq6ykeyZNorcwLZKIy5UhAn3QfiJez8zrTvTsqYS9G0XkDmKDOWgwfXvmIzSz22t0sHS9u4HO0N6UzVWNLjuFu6e1Soc+BTbcQhOvr1dvZE7kGkMiUloe2iCviBw+izSRnya+ypFgplgpSyoJDGqClf37ROpcNI2KaidQ5Y/PoTmz1nnUo3KqLNlKk2rXuiRcjdcd91e59+16ZHamUszD/VY2zPeoa+FY63ptbkkJPq+nas8pImbs/cDUO3PGd7+EULZjPbrMwhTqsb+CPu4xgaq/+oohleX4wmIb3bRlleeLhHIk35lOBwr70YKhL9PLUACTng9Uz6mpT2c+N33oPFO8XJdNqDTEkdW7qZN30IylI7SCp8jW+/Rxr/7qfvhcCYhciL/YR44/fETOq97F42P7n784eWDENPr4Pf9zEefn7D4aWfUSIpcVbNJJEBAEBIHIIiBELqKuSYfIbcTmYjLsfxQv/ndwmqpFRJfcImbtv/4iuvet/4JKQcR1hOcmwLDxRM4oH2qVgc0kwrZ408ibce/mkzeqv1iyRm8GuRizIQhhG0F7U/vaMyOxyU5E5NzC1H6wQ0gEGtjzO4QvQCJ8WSqxhjps6LtQFQhMARXN94TcITyubNRToetIRUDyh8glLr7O9ceODtlAGyZNpsmLGPmltGFRCc1fNAr1/7aTpcj3WFq9Zip9NH06SD4rUt1R8wwlKDrMoNWrCunXuA+KR1YpiNYCjKeIVkdVSHzYzPn0zbIi9Avxu+PoRATGNLALX6PIuDt+NYhTIVUa29leLlq+zBA5Kl5PR8rb0wBV01DXoDu6+FUqX3gzFUPps1AbTitsY4kW30PVuD/Go66Ff+Dd4uhcnJ5rGb5FnXWR9Oe5ZuIUqsa4f4rdgMLqGsfJi0zNPlX78BKiIU9Q+d7JsMGubeedKQEO9vpNvbijRrX8PlRLVcTbrqt4qDP1vXQU1e/fjs+kIZYBfFao2o76ixvtF9hkHUng5wub9e+eELlmhVsmEwQEAUGgyREQItfkEGc3QSoixyFkl2PofdddSFf++sPsJpFeDgJ8bqbXvn20DXfCwvgaT+Sm0G2fFNPiMyPpK727IwW9J6QNmz5a/GTIBngVQuCqydlMlodt+C804WarsKmdTfNAFE6GbZaN0nHo+O3OmlWpgFAScSEKTbN6o+dfis3s1lJsZrFN9pKIWGwxCjk/qBQW1Z7b/AsrKiyPPEHP1y+gGzpyuv0lGOcAPY5xdJFjvVlPh4C0BiIXLL7+Ar4s4MhAJirzQBLWgSTcydjdx64pBDZnaBxwHRm7lebZ9x2icZiKQK5UAXelWBllDES/Dr0Tq116XCZiXDA+7gobH43cEhflIHUztRp2komKh6iBZB1BMe4BTlijKYKOtkewNl2EvhNGc+sOJlPlFC5Y97oFBhf8G2NySxfhX5DV0uEgvu4XI7qkA+YA4VPvoyg6X+qZVCQzMyLHz6aNkyKiPAbWFwMhvQSFxI86vgrHR6/ZDvHUuDNhX4exgn5O6I8m+tssRK6JgJVhBQFBQBBoIQSEyLUQ8KmmTUXk+mJT8DQGuV1UuFRQpv1+DTC9Fq2/DMG08USuA3UffTVd3fECqq/aAkJjF/j2FCtWpGoqimqvo/d504cwMcvqB4v0Fl2dDwps+I9bb9NZD6HS4WUhypvaqF8CG3SharZj37Ob6ekrE2wunTDBOmyIu4LU8ca0yiURgU25n8iZ0DgqxSZ2g1adeFK1PrxXOgf/pkdAWiORUyQMcCjCcvr39Hj3r6P4+1gqKNCPalXVVKhOF9GvoDo9ZEgfgIT/WKnzEDm0PXpvjO5axoXemTwfMs9L2CPvD0u0W6gwSVb3enYMGb8KoZeFNPvcHjR8+HD6Tzy3Sp0KIXJvgeh4SZNNovwELz0ip4nZUpi4C0Xt1wEr7jeVFhOHJGP+PvpZLigY6Cy0qvo1shqwBk/oqFYDg2fmUityLvEGvj4iNwU2vOBRPsPx8RNz/Zl5wfo5PR67Lc7Pv8E5w8zPOqb9Jy2uoRC57LGTnoKAICAIRBEBIXJR9ApsSkbkWD26CurRcR/hqEKSC2y3fUk0EiW+yGTRyHK3+4905TD9Lbd75Sp5RpbZ8jJZQtK2fowSbXRSEbnvYo5EYZmklBNvaKVRC4w6NQkhaVWjv0EF9e9Q5U47HKycnoMCcj/GPYlNfrE1F6Frt8ZtBI/8YDoNWOYhbmrDn25opQkHDJAI3lwOxAb2MrOBvxgbeBXWlzaRs+fX4XZ/wdqYOCqScmo2WXtuT5uA5CuR0ySClSioRCAhTM7HmJBaH5EDMXoLCo5LgkrpO7P60GurpyC0MpacyPkSdHhCEhM879om77NRCpWthCodJTVAFNWzZD9brsoWRuS0YuUmKVEhmY4iZ5Op9IicJvy8CNtW+zk1IYrm88Shm+qCnT1/adHH+FLC+yWGrexppdO+GkPk2J/b4ZdCesjBLB4fvyKn/cJfZrzlUwhdP+fsT1kaAwmRSwMkaSIICAKCQB4hIEQuos5KRuT4bNwm2L3OS+RCyIJWZ5Kdm0ln8Qk2XyHJM17ceUXKhAtxM6bKFpeOiY1p4ygd+qzKPcCMj6MFSVkyIpeoj2NWiG/s7HtHOFzRUQ208sCb/gtgx0+McmOTAueskAoV0xvBn60uoj7oo5ULIq1mJFLk4u/7w8/8Y2ryYVSJpETObLSdza39zOlNs01cyPb1H6CcXMFnvFSGCrXRTRRi1h7r+TJFIhqv+1sya6V9HmziiC10fCerZOkROSZGAy7VhLdbzTt0VGEdOHPnPKfm7Fyn1+nYmZvom3wuDefoRjc8h/kY909couEjMIxSHVTdrlB6B0OZ7UrtMNdJW/VNMv7FBWOp++db6C2sSbfvr8/DQck7AhVMn5ErpekghWvxpcBohB/WGFLnV8XcvyXvqNBdb+IVrxdL6XKM9Z5HTdPjTEEob4UKH2X1fAzm6gWsT9hffqi/dwhTpouNDWF/+1ZQCZ7JUt/fDCRnodmGiCJ80yHeQUXO2GtCWo9ZLyj84/A5cS/d2GsT7YY/+Tpd8wXOyB0gy5wx9fu5MX+8Mu8rRC5zzKSHICAICAJRRkCIXES9k4zIPYYNC18PZ0TkqlA/6i56e9aPdOY8lWXbTUzBySjc+3gLCSrGtd9Mzy0bCaLgnoVy4PJ9Wx8EMXGmOjspx+Zln+ukGB3Cs/v5E3xo2znrnVv3CnOaJCFhmf4cdTKsDbr6k4PYSoIOd/sD3n8mEF6ZjMgxsV6PPq8kCnNVG78gRquwKZ1FXRSOg2nuXYX04pHfYdOH3KMdvtAbZGxKJ454DyqdSeYQuuG3yZtu++bBHvTpp1ucc0Ip/RW6uTTqCwjCxKHPGVLC4ZKXaZIAEmGd6ax/9raJI3J2hsPAOrqZxBg+AhJUfLWPep7AHjiT8GGEhMaQxTWjPjn9G1CL5/r8rOqq8Wf+r+3aJc/qqGz1hOPyr1hzHbJlOufOWNEq5kyUiRZWh0yafyN1RjL08o/vnpPz3k+0zlpYd34aa4CNM79sZBmOAA7OWupgQ5c0bMiN4+PwQVbSivNfoX9sf5batfsWiGFf54sWnjF9P+fGPu8oMfytsl56yZNdNfdzyIiCgCAgCAgCzYeAELnmwzqjmbIjcm5CDZ5MJ9Xgb6W367TdTua8wdhYHKAVhkTQkMdMRj0T1qe+2Z6CLHrjaTWy5dV4vgn3E4OV5E2esaO73sDaysTYe35EhciiaGfTsxNocFKOlYsImSLxDXcfhJ6psz/Ilsff8tMaJMaochN8dCuE7VVU6cmG9wVCqrqo8Ctto870x9+WnwUR60rzOEteB5yZ+TGUn7g2nUKSgzSOyDEmvYHZRvx7bSakw7PxrGjoYjb/3k1oLTbcFLfhDt8INm7zGjam9174Zj6ERCQgBqHEIUhAAn05rPI63PN9YZHGp4hVvD1tOAmQL5toGni1SBN8UVSNch/NeT6s2daJL0fO+0YPmnrL7fTuv60wyiwne2nZi9XqK2FC2BnglrVMZhcEBAFBQBDIFgEhctki18T9siNyOqGGfV2I0Kk9JrTS3dyZ7HOcRMGnqulD+Z2tl+kTnMWqtJMsmDAiHdJUi2+Tz8O3zO3UuRRv8gye83TNSyrZgi+cSqXiZjUHCS4QsvQFwvVYOXDOEHmIHL9vhwg6yTNUxjo7BMs9p+NPKKBDEquhcL2LBBF2pj9/chDdpp21PiQ5SOOJnJ0opSprMtfED1SeDc/hqlwbMZvC3qxY70LfhAppnmEh5uYnAi2pvIUhlu0XI/mJvlgtCAgCgkDbQECIXET9nB2RC4RAOmfkPonPPucQOfsciUvkNsee8JxZ0udaLOsaWguit/2uubRi2XKyOLGAkwjBD2IokVOZCu1shmivbPMrcmHp7I+AyHEdKjujH8/UY1MJff28cSky/YUn8ghPDtJ4Isd28TfeBfj3KrxYSeLrxog+X1E0688wiskb1/Obh1cwvDUTm/ks0CR0yFTNy2QOaSsI5AsCJfg8vAljs/liJF/WKHYKAoKAINAWERAiF1Gv55TI9UHdJYd0Vekiv0mInKpfxWnG+YyNSWpiJxlw4EpyRi6ZImcrbuGKXEhdsoAiV1lyN/Vaug6qmj/T37gfXKfOz3kz/QUTeeg2I5Uy57cjN0TOxobnfYU3TRF9tqJqVm8YxqF2hXg1urg9wjYn4KzcDkMKmdT1uIoptlyCQNtA4CAyGzN5W2k+U+us0/gp0bnItoGJrFIQEAQEgdaGgBC5iHo0p0TOGq7On3F2Nb72IZ38SUcN8ytyKsOgOn+mwzT/Z98HSJ7xI4RE4lyaFytF5ILgTQFBqqD7VYY5k3LcCa2822RU1IkvnKx+vtDKECJ3X5VOqhHIhscZEO1Mfzr7Xkimv9A2YclBdkNx1Fkrs0l2EtFHSMwCAjap5g3tSUFEEGhDCPTAWjkiYAJe2Z3dbUNgyVIFAUFAEMhTBITIRdRxGRO5NNaRMGFFaN86nIfrpM/D5ejav3s3XT50qMrM95lKkx8s1ptsovBseOmcQ8kkOYgQuRw5W4YRBAQBQUAQEAQEAUFAEGhSBITINSm82Q9uEzmkX4wbZDA1UBHu5tv5HxXqaNLVc+FrVu+49lmULlVEOIFBBVA0f/WrzVEyV2wRBAQBQUAQEAQEAUFAEGijCAiRi7DjOdNk2PU8ygrwlW9ETq/Fk/kygtgzkVsGuwqR1MV7rfi3VfTtmWvptdVTImi1mCQICAKCgCAgCAgCgoAg0NYQECKXhx4PLQieh+uIoskSWhlFr4hNgoAgIAgIAoKAICAICAJBBITI5eEz0TxErpzK1rb3oTOr6k6yynJ3Zi6K0AuRi6JXxCZBQBAQBAQBQUAQEAQEASFyreAZaBYiZ8oOfHvmLTTx+nqFWuZErg6157rSAGTC5LTy+XA1lshxLbnHsVDOkngiHxYcMRu5nD3X4GtMDbmILUnMEQQEAUFAEBAEBAFBoEkQEEWuSWBt2kGbj8i9jrT840MWU06VJVtpUu1an0J3sneMfrFkjUv4TPr/ox3qyarvQHzmb2AvU8foowlU99VXUNKgiioaCqho/gVU8fQpKuLcLt+7gMpGPUUPjJhGH19hT6/nXNkwX9WLa6qrMUSOi+6WwrCpeD2NmmU99u5tKjNb6bi1KKrenZ7F6jbiVYVXo+vJtVKkZFmCgCAgCAgCgoAgIAgIkcvDZ6D5iNxKOnT8dgchRcJUjbmxtHrNVPpo+nRaSLqYtspISavo9YpqWlpUTltLUVqAUOttAZEmch1RiDukTty/cD06Zm9P0PP1C+iGjlyWYAnGOUCPY5waVaIghrrko2jYzPn0zbIizGnXvsu987IlctzvJZjzphTdzYlT9PNEZL0EVCdOzMmYMoggIAgIAoKAICAICAKtCQEhcnnozeYjcpegKLhW0K7ueAHte3YzPX1ljO5kknYf3y0EwTpD/2BtpxWVlWbDXQdS1xWbcCZgVVSEYt6qyDhIXWIitxJt78Z4pRhvAx3DeBYPr0gj3iudg3+nUI/9FUqhq8NbvuLkOfRhNkTu5JAh1HPfPrLmIZvos6dyaE3bHoqf812A4BU8P3IJAoKAICAICAKCgCAgCPgRECKXh08Eb3A/gd1Lm3KDq87IBUMr6+hHIGkP0VgqKNDAVVVNpd9Y02ggbLrs3B40fPhwurhqCyHoMgMiZytsUPBiRH8Z/Q1FHNX4p2aTted2OnpvjO5CXYAaVVfvEMbu1ySe+xHWcToE28LCcXRX8VSaOW1a3LyJyF+TGMiDIvTUCUNtskmSDNyM88fgD6spn/OWwE/mFAQEAUFAEBAEBAFBIAcICJHLAYjNPUQNNrdc5ezdptzghhI50iGUI0HSfserLqXvzOpDP1tdRH1iTOjWqaQmR9FmQFIiZwghK3sqtNImciug4M0zCh4Gwhm72BUIy/wDwjL5X5yzIyh7HGapVMAmAH4CbOczbrcHsE1G5O5En1tC+jSBeWrI9ZjvTscHYbOw+rkGBCiedObCJuXfpPPnYhY9Rl/M9W4voh7Hs1Pl+NwiJ57ZkzuTZCRBIG8Q+BYs5RDl/Kw5mjcwi6GCgCAgCLQYAkLkWgz6RkyMMMbYpEnYqLN2ZJKHNGK40K4JiByTqwGXatWsW807dFQRtjpaAaVuXocZNHHoc3R8JytnHC55GRS8QnqoE5S9M531z942cUSOqAEb7440mCaOeI8qdw5G/fADZHXTSt1R9B3d8BzGbrozckoBCgmRTEbkhqLPiwCxuRJzeImcSiATK6bKH5/jJJ/RGLqhqEQhyWlUKGx3is1EECxKSoSNo54LJKXhsTnJzMtIMsMhrc1J5G7EWh7DnKMz/NKCs4fyJrYQr3ncX87a5fovhIwXdQTwGa/BfyeWwM4/4dWcf6OiDo3YJwgIAoJAa0FAiFyeepKVBk5vvy7DDW6ulnv27Fn6a7t2vrNq3nv8czu8zyfaKhq66GyUfGFzUYfkFcnPuNWBWPzNzXBpG51W3+xXeA8w5Sss9X00iZwhuLQUyWH20feRHOZorUX152siR8XryRrSPiQ5TXdNvBEiSx1eU4loFFEOjGOdhLJ3Kcj04iepfOHNVKzI+d15QeTaw5cvwJdBZTX7p0N6CgL5i8BGfB7wF4G+bKH/XuQvcmK5ICAICALRRkCIXLT9k9Q6DjtjxaGlyFweQxdnOpO45Uk2OlElct4wU0cpe54JmCZdSr0LJKcZZz1II2O30jznvj9c1VXcPCRcJZ7R4bN/34yhldkochzqyjq11KJrTZ9QWUtjEUj2RVVjx5b+goAgIAgIAi2DgBC5lsE9Z7Pyf5x/itHsMDLkTZQrAwQ2o+2reBWlIMRRJXKx4NlEPrvmIXKcvCWYnKbauoh+FbuBHsK38/rkGZ+pC5xxVGfgYjQJSl0VwmgL6t9BqOsUELmKyBM5FR6bTSilCSMt+8t3aOr/N8VVkTN4njiMtecfij31DxN1rkNYaydfHca0pkGimTpkRg0q2nYNR+8YnYumZbmGtCzJUaNyKlvb3hlrVtWdmWMC1T8My/27d9PXhg1rXIZbU9PSu1h/fcscwdAcwzgh+dmdN20OE2UOQUAQEAQEgcwQECKXGV7RbI3Nxrblp+kVWFcfTQsjaxUnArg9jbIB+UrkwpLTvLZ6Cs4rguClIHJHdthJa/xkL9KKHD4L7fFZyDiEDHhw8NnYe0po/ujlOkxVkdk6Wosw1AHAihP5hF+e5DJ2gh6VmCd4ecfSiYLYF+lfJkmQ4ze7p51NdinqO/ZwhsuYyCnVlc+8pm9Ro1uqs7hT6Nszb6GZ3V6jTaXrkfF2JX0BNTn9EiMulnw28nKEF1vdCH6L0W9V6ZPsL524aQlwRcYdc2VO5NJ5hrK3MZOeHHL8ZRp/7zIZU9oKAoKAICAItBwCQuRaDnuZOY8QyCsiByVNJ4fRGT/DktOoMhKpFLk/8yZ7MM29q5BePPI7Ol2D3I8dvqAjDRizmbJWZhpayRv5f8RzlWlGVy4h4YaaYgBFat4n61B/hZ8uas/krIreeGEt/Xd9AdlEyZ9cphxnQouNEqaTzHCimM1IFGMnCrLHUglmeplkRSCg49pvphlLR7gqGu5VdhrvJLHh86Z+v7lETp15NAQm+LFitW7q5B3+seOS2NTh7CMIK0jL8/X3U9Grdl1IHs1dk50UJ/ZgpVHOQhLpwM791w+iBUNfpoex7sQEGEPHJVUqhQpcQpXq2UwwThwugFZh+QpNj80EEXwfRLAfdXFqW2IerLfs3yeST/EzCX8qS1Z5MPaj52bgDftjFbZ2IlsddeYyCaK036vxfBT4zgzrgvfldPbsdDo9dCh12btXkdhQv4WsPZM/o82dmCkT26StICAICAKCQOYICJHLHDPp0QYRiBKRSw/+WmwYz3c2jGHJadIbx5uspg5b6y4ZKCXpzZCsVXMROb1hhzq2/iH64o4r3TWC0A1YYBO5apCMQqocsoE2TJpM8xfpMhjLTJZQlVxmM5LLHPsQqtZFqkzGsJnz6ZtlRbSQM62WDveMhZIascUgHA/ScTX3KtqwaDZNXmQytSJhDSuEq9eMp4+mT0f/MxjzbEIipwgeiMKhDz9XcO7ozr6vwxnJrnQnkthsWFTijp0giY1Sb0HkDh2fTS/27u4SfaVW8vydneyxdOfq5Il0gFH53slIkKPDcROSuSCRUwR6MBVbizHXrQgLdm3/rnWAVqj2Y4HLVPo1cNH1KlkRXYx/rwGRK6S1yJJbfaaTGz5s1FbGUvfxYIlMuKtXFXrGCiNyHwKTrs4binwrO7Ud2j/s8wt1eRb48vWKaloKVXcrn0MFes4zhC9BYqYtfylQBHu7gbTer54B+H7IY6pupjrbGvTblWFrz+wzJkQuM7yktSAgCAgCUUdAiFzUPST2RQKB/CNykYCt0UY0F5FjQ1kBeQ2pYIuV1YOpx/4DOOvmbrY5RM/NxloOUjeTKlkFU8RIJ5fRChM29X+8iGKD3BIQdejbxbNxX6HOJS6mY9ZCXw1Gt9h7OUhzsSKUWvHjkhuDkhM5ZCHtPvqUsv50zUsgjv1BNtwwxRMYp7chMU4mWU8SmzEOYQsQRg+R8ybXSZRI5xMQsEpHwUzxCCi8vG1AZjrsIasnCM8xlC2xxqs3HWWMcQPZ/MK6H9jYXyxoLJkUv8NESiXxsdXLn9Py2G2+xD58HrTamkXv4pyoo8LafgMZ81563sHAVRO50zU/ADGdRu+HJBFStS0dFbAOpK4rSB0TTc8z5JsnSOSYYHYyJDHEb9Q5ZO2ZfcSEyGWGl7QWBAQBQSDqCAiRi7qHxL5IICBErmXc0FxEjhNjXInEGM5lVBzLmuOoJitAxDZCQZl9bg8aPnw4/WfVFlXuIZTIgRAcvTdGdy3jmoocknkIm/Q/ecYyKlLpQkW2FAn0Xtjwn/d5D/q7q/rR/ajXqBS9JEQuNLRSkYZLqKBgoDNyVbUuNxGWxCYdImcTJiZRSgUEeSwo0MNXVXHCnGk0BmGMk769CclxeN0rQLBmJVZxE9WrVPhrlUtdzu/d6T3MOwu3aljBKkWdyfuSE7kpIHIvOGHEK+CDefj95/Q47jvhxUmJXPDcYOK1D4Sdl5nn42I8H1oxTETktC2uImfmSei3hpC1Z/a5FCKXGV7SWhAQBASBqCMgRC7qHhL7IoGAELmWcUPzELkqHTLpPWN2EORgkA7Xs8PfdFifrRLV6Vp8iYjcIShyV9jn6nR5By77cAZqFW/cvYrcCLyn1BxArFQzqFnLEYLnnHlT82ZB5NQaPCQR4/T8pUVvI0RvgCIYiiG5GUsTKHJaldKhlS6RIx1G6JyVtBOO9KZxPzhHnwlkGhc8exh8jBIROaUUurbrkEWLjvwgRqPmWDorqGrD/rgpiSJn0TpWz2w7ORnNpVqR82VuzYjIha/9Z6uLfOqqe74uEZFzy37o0Erjk0R+Wxm2dq1YpnsJkUsXKWknCAgCgkB+ICBELj/8JFa2MALNTeS86eRf3HkFvYyNcfpZ/FoYrBxO3zxEziYFHRBCd7UptQA1qRREzA7Rw7mrY2duom8iiczFg2x2mwAAEXxJREFUBQhh/HwLvbUT4ZhIrGFZSIhiJ5dRIYH6jJy+N4NGNzwH9YiJ2DCdLdSM1ceEA3ZRBGowTRzxnirx8F2cKdMb+7G4t4WqmeDt1KGe80HC3CQ1NtAeUolsjd6rBuOMwTi9MM4JUz5ijCIt8UlsdDijDgfVZE/PfxzrrAkhcnbylr+gPEU3qIZHFRExtpi+lTtXQqW7m84qImZCB70GJiJyaKPJm227CTVU7TtABSykeiheNZ4zcu55wyUgaiNcomaSjbCd7WDnSRX22eAPU82QyCVdO3w+cehzBjcmo5dhrkLld2vvTSp5jv0Mbd+pSbyPyGHtif0WWPshkMFL3S8CUn30hMilQkjeFwQEAUEgvxAQIpdf/hJrWwiB5iVybjr5lxbsok+Rkr2Yw/MUsWghAFJM6037nksLm43I2UbjjNPhMYVuNkl135vwxXtOznvfn1zGwQDj1SEroUvC/WO5WNXh/F0nateunQe+Wsx8vulbi/smw2XGAIfNmSCJjc/eBGsKzB+eSCfYFwRs5pdZ1IjzYuAS18Mn/kZ9kHQk7MsNXzZQj63u+caMAUzYIWzt3nvunH682X4nY2nC0cP9Flw7f/Z+kmaZBSFyufO9jCQICAKCQBQQECIXBS+IDZFHoLmJXNyZJxVGNgXnjSr05jUsnTrfD6ax96ZgD0kjzynZVRr92glU+eNzaM6sdZ5i1lVII3+XSiPvKoI6TfqBwn6e++X+tO859GazE7kc2i5DeRDAc1mNQuZJSxEIYFkgkOiLgfChhMhlAbF0EQQEAUEgwggIkYuwc8S06CDARK6q6lcq9C54XYhwrRdxc3DOKimHhcqtwDmuebq+Vmg69U4ms58njb31uD+hQzCNvEmjP3kRr0ineeeU+scQ6mVRIearosrFr1L5wpuhCOrQNp0qfyzR4nuoGvfHEJ9ROq6JHELHvjgzPqchoEzkzsC6oXfNTethOPFvK+gwWmZaRy6twaWRIJDnCAiRy3MHivmCgCAgCAQQECInj4QgkAYCnNXwzS/fDm1ZNnJuMxA5k5Dj9O9pefevx6VTP2atj0tjf/viCvr6eeNC64FxCvbfWOtAxOwsflzvyiSn4AQeqo6ZfabJ1CNDWvcjC+zEF0iTblLo+9O+M0S1UO3OC4QJpgFySJOMidwBEDmc6RIilx3e0qt1IyBErnX7V1YnCAgCbQ8BIXJtz+ey4hwjkPvNUZgiV4jMh2eglt1PYenUN4CFnY0F09jbtbQ0SdMp3O3sg34ipzMpukTuCIgcK292annuvu/ZzSEZD4P1u6poLRI7bIeCtvHB5Z4wzexAb/bQSoSs9jz5SpzdTOS/hvIEuUk4U049/1CcBjZ1OFfWKe1zZd4EOTbaKmyWqwBE+qrCOpGTssx7PjBTgzPDyhkdIZ91CPmM92sdwooH0QMDn6T/Y01upG2ZrqXp2uf+b1XT2SojCwKCgCAgCKRGQIhcaoykhSCQFIHcb47iiZxOZa5T36tCzIF06qzIhaWxfxxp7O0sh/408smJnF+RI9SvitEpkL2/96ZJT6jI5e6BaXYiF6xfZpayFvd/m2ZCiZSr5xT4TmmC+NZu4hg7pf+UlENyQhZd120prV7Tw2mfMZFTZzGDddPSmL4xTUy6fQ7dzZ4oZ4KVbWzgiw5nDaV0Y6yEtiJU+OltH9AZKO4LTWhxF/XMr8HncFpjVqw+T5d7y100arT0O+f+b1X6c0tLQUAQEAQEgdwjIEQu95jKiG0MgdxvjuxNuRfIVQiFnKWTRYSmU4fskiKNvT+NfAoi161Kp0yHKjeaOM27Tp/v1sZiQ9xCzPrs3BLYeH9OE1pEhciRkzQmLNmL9hMrYlMn76A3nh5OL37ZDkpYHfmyE0Ltq/vqKyAr5VTRUGyUsnKqLNlKKxvmm9prbuIYy+qH/rVudkOT4OaBEdNC1LzEJQi8ts1YOsJV6DAeJ7jhuXUymzr4t6vy4/P196sEONWwVyco8axFYdHdo6LpNUyqRflrR1XTihYnynkYYydNcpKMyCVI6hOPNT4WXqyCSX94CbhX2Wm8x84ERC5Qw47Xvg24XAciX4/nvCPpEg0fX1EFPxZQ0fwLqOLpU1T0KuMy0XxovT52sdA4J/exfkYCY7OqCvvLRj1F4f5P749u7v9WpTevtBIEBAFBQBBoGgSEyDUNrjJqG0KgpTZH4enUw9PYVzScn2WIXVj693DnJkr73phHIRpEzt3wHwlN9jLe1DzTiWYeX0S0h3QtubgC2jhnaP0L10LT73Oh8GEz59M3y4qg+jBZ/r2TOIbr1vlrzY2F2jaVVk+fbuqneZE1NqJG2qEPP1dv7OjOPjfnG00ym8mLBuMI4wGyTnJhbPy8+EknmY0FRUzXbtNEblRHkHOf8qtDd1WRb0540+E10rXntF0fwa6Fat3ddbF0JNMp3zsZiXKmgOBXJCZziYhcgqQ+2sbEWOsvFTxJf3i96sznFNg53tjJIcZn/bXkHDhjUOSItgIzKp7vC6tsMESOiteTtbm9qmlH9ATd9slVCc6jbtdfiDhY6Lpy03GPkwP5fIyR1NqcZ0SP/Xz9AroBvugNv7xecYAeLyoP8X96n7KW+luVnnXSShAQBAQBQSBTBITIZYqYtBcEAgjI5qjpHoloEjk7CYxWJI9ZC32JZk5gM947HSL3RxC9Qba6w7oPqdBCZzN/nx7fsq4BMSqkeU4oXjnUsOmBc1u2ioti5aNPKYecrnmJrNL+CJU0xbRxT9umSUxFQxdN7pUCZRRa5xylyYKaiMgx2UBNQxXma34mZDrlc5zjrAfpk9itVKkKb6dxQC+UyBmF0RmbsZgKrP1JfYJYB33BKpZSyzqUA99ihe//397Zh1ZVxnH8t5lREk1N2ZihookrNcGEQkGcBtK7uBQKlXCiKWSSGPhPKSiB4Agrl1BpYuELjt5AMsXbYoPSiOYoZTk0kDTfetERK3f7Ps9z3u655+yee3fv3b273wOHwfac5+XznHM43/1+z/cxYkyJ5okhQk7R2yUHNy2TNyHKWzXN9+DaWi9DVFrsBGstqt5E3F6XGrIetfpOlDHRbHVcmTJFzpw6ZTZI12Nzo9oJc6/Fvl13A7gesNxk7fnyr4eN9gzyXRWNE0uRAAmQQLEQoJArlpliPwuWAD+Ocjc1hSnk7DVkltBq2KDFkopW6cNZZ5cqInevdL5cJku2K7GgBE8H6hgTKOSeg5CzDWmCaYekVmqxMQ6mNfc5l8VaEEnrvh3bS4jEZjwks7u/l6aTVtQsgpDbgjJm3aUrHm1TnFhMCcKlMhMpkXVPfIp61bgajQgKu00ChVxM1Jj36XbUYdxVt6wRGb89nHXcPxd2m+BQcWOE3DZ5jKzHdiEm+hkm5LxpkaoCO80YfenwCzlbpIUIOYGQc9xfXQB+sa6cX5OFnF03IoyYqz8wVw/efo+uJHZ1ucTbFqb94PFdlTYyXkACJEACBU2AQq6gp4edKwYC/DjK3SwVg5Czo0AvYjsH5fxp1hH6UyutD31vamUHhJ5jelKm0yyfxh5+z/uiNXF85Ot0Rjs6pSNo57Toc48QIWeJJEdkQtCM/Coe4D4aEpGDjNLbI3qiT66Qs6KHdtRObMORKpm35i5rzZ/lhOpE1gLulZDUyjBTn2pE5sJYq7kIMv3ZAdMfJ6Kpx9KLkNNi1hgL2Yfui2IRUcg5xkINEHKv2HV1yUGknC4C0ObAiJz/HrGFnBGxjpBPYZbT29PId1Xu3lWsmQRIgAT6gwCFXH9QZ5sDikCUjyNlXz8J9vU5P0Ls1IvVmr5/hJx3lhBRunZCNmPvPhWFMmvkEiNyKpryt05ZrJEF00+LMZVRQu4Xsz5q8AuyYOpu83vfGjkVaenE32f8u9tnKLMVqXSvumvkIN4qNpqI0rXWNqxzQ9riUG8/w81OWtG3mVjTVjn9iFyyI29azNTIqiW1sv/sd6bOwTetNW9WuuckJWhqEM0bLW3dV1FmhY46eoWc13hnKCJdnZqN1Re0uQBtNp3ciSjdCpmpBVJASqAWcv4nA0K1Y6yMn2AiUeWo+4qVqmnSKf2sPdHPFKY/LWjq0skaGJb8LGsxRtvV1SuKP4LgWmyNvTumzH62Iqq4HlEzEx3rVH3R6wPdtEkj3syYXWOhHmOUEmgatFVa4tPleNmckHvErdukg5oxN6Hvep1jwvxHe7NEeVdFq4mlSIAESIAECoEAhVwhzAL7UNQEUn8cNSLbrsXagDu3Q9WRmyRb8+K1pk9XyCl3yUF1dXJLh5Hydyihfv/UqfJPebkl6jwW/uhTF9wMQ1MLA/4eZhwTbHATZZxd7po4p7j3d11IlBxi+pjQn6DrkttT/VJjTxzjdbTpNdnpkifrP5Mv3o+ynYLbhn/MvbL2jK2n5w7fpvRe457rKDksBTjj1FldOSzFuLzV+Mds/y3ZNChhjlPdI7oanwtqlGn3lRmE98OtQ4c87poZVMJLSIAESIAECoYAhVzBTAU7UqwEogq5Z/9cKo99clHqY0jScmzaY3J43x75rXu2JOz5lWSVbujYtusJNvIwZvhgzyA5PL9K5lTMCxRy2kUwZN+qwDpTWdOHWa1n2Zo+bSEHRupj9dLkyTICphL5OnTUy4q86YhJHBGTfDVeNO34155l1nGyzoybMlqpbG/P+z85MustryIBEiABEohCgEIuCiWWIYFeCEQRco9ijcsxpFcpm/aPYdN+TKegNcJwYrU0wZr8QN0iWbvRrJFq1GlvpuzXKIvduXS6mkn32gaL+3Xi2Mj/rtLSjI38GxuegonDOKRdnU1Ku9ObRWfJmr7j4nLZXzXcTUlzDDJ6jO18Fq3pMxFy65SQw3ztzXNUDuClp6fCFwXio5MbAmSdLtf5OvVTZFven4t0e8ryJEACJEACUQlQyEUlxXIkEEIgipDTgs124PMYULhpY7sg6pZJk4qa6T2v7DU5VsqbtUnxTaw1Uulrto18M1zxZjlrtixhGJpamS1ret/+W34hl0Vr+kyEnJqmUcpZET9X8aOVzy0JaLOczeBwgc8D7wYSIAESGFAEKOQG1HRyMP1BIIqQG1X2oYm26Q6aPbFaYMl+AUYHy+8eIdOmTZNfYarQqUVYl5xGZKseJVthcCANSNPT+0ol28jvhRufu4+X5RAYIOQCUysztqYPF3I68pdFa/pMhZxKI5uLNLKRYLgS58LVw0XeMfur8SCBUiCgnoHjeAZ2WoM9ymegFKadYyQBEigxAhRyJTbhHG72CSzGf7ufUWIh9L/djaJTK22BpaNrsCSvfhzizLUmt8XW2dfL5OGVcbn8ACq1y55B2Ykex79AG/laOOrFLDHoHWe2rekThZxjtY5Npl0hlx1r+iqwbe/DejcVifgSKD7H2ZP9qWeNJFCwBCrRs0dwzsPJyHTBThM7RgIkQAJ9IkAh1yd8vJgETBTsJ4B4qxchp1IrjyLylmgfb6zMR89GyuONI9IMe/orck66ZSysxgfD9r1WjPW5cUAMtJGXWojEmPwAi/b/2s/r6fjr/OWcW9N/C9v2IKt1r5BLy5o+5EYqA9s408H4mJEACZAACZAACZBAEgEKOd4UJNBXAnCYLNtxTS5HiBwF2ce7v0u0gw+2Pg+2g8/cll4NPlNr+jCr9USg0azpkyfhJYg4ZRKff9OSvt4QvJ4ESIAESIAESIAEck+AQi73jNlCCRBQUbl3Mc4fuUdTVmb7IHiq3cbyvR9cVjrPSkiABEiABEiABEggDwQo5PIAmU2UBoEtllPiXAz3bZw1FHXpTTwim98gsrkNV53AeUwxZFplegxZmgRIgARIgARIoGQIUMiVzFRzoPkgoDbX3oRNzJrRWFs+GhxAbZRjLLU4Z+F8jQJuAM0sh0ICJEACJEACJJALAhRyuaDKOkmABEiABEiABEiABEiABEgghwQo5HIIl1WTAAmQAAmQAAmQAAmQAAmQQC4I/A+4xzt/hToRlQAAAABJRU5ErkJggg==;" vertex="1" parent="1">
          <mxGeometry x="310" y="290" width="882" height="540" as="geometry" />
        </mxCell>
        <mxCell id="-pdbObQCnFsLMG_-y1Zl-9" value="" style="edgeStyle=orthogonalEdgeStyle;rounded=0;orthogonalLoop=1;jettySize=auto;html=1;strokeColor=default;endArrow=none;endFill=0;" edge="1" parent="1" source="-pdbObQCnFsLMG_-y1Zl-2" target="-pdbObQCnFsLMG_-y1Zl-8">
          <mxGeometry relative="1" as="geometry" />
        </mxCell>
        <mxCell id="-pdbObQCnFsLMG_-y1Zl-2" value="&lt;p style=&quot;line-height: 130%; font-size: 12px;&quot;&gt;&lt;font style=&quot;font-size: 12px;&quot;&gt;POS Patterns&lt;br&gt;&lt;/font&gt;&lt;/p&gt;" style="rounded=1;whiteSpace=wrap;html=1;strokeColor=#C01C28;align=center;fontSize=4.5;strokeWidth=2;" vertex="1" parent="1">
          <mxGeometry x="720" y="360" width="80" height="35" as="geometry" />
        </mxCell>
        <mxCell id="-pdbObQCnFsLMG_-y1Zl-8" value="&lt;p style=&quot;line-height: 130%; font-size: 12px;&quot;&gt;Schopf et al., 2022&lt;font style=&quot;font-size: 12px;&quot;&gt;&lt;br&gt;&lt;/font&gt;&lt;/p&gt;" style="rounded=1;whiteSpace=wrap;html=1;strokeColor=#C01C28;align=center;fontSize=4.5;strokeWidth=2;fillColor=#fff2cc;gradientColor=#ffd966;" vertex="1" parent="1">
          <mxGeometry x="620" y="360" width="80" height="35" as="geometry" />
        </mxCell>
        <mxCell id="-pdbObQCnFsLMG_-y1Zl-10" value="" style="endArrow=none;html=1;rounded=0;" edge="1" parent="1">
          <mxGeometry width="50" height="50" relative="1" as="geometry">
            <mxPoint x="712" y="427" as="sourcePoint" />
            <mxPoint x="712" y="377" as="targetPoint" />
          </mxGeometry>
        </mxCell>
        <mxCell id="-pdbObQCnFsLMG_-y1Zl-11" value="" style="rounded=0;whiteSpace=wrap;html=1;dashed=1;fillColor=none;" vertex="1" parent="1">
          <mxGeometry x="614" y="353" width="192" height="48" as="geometry" />
        </mxCell>
      </root>
    </mxGraphModel>
  </diagram>
</mxfile>
